%TF.GenerationSoftware,KiCad,Pcbnew,9.0.6*%
%TF.CreationDate,2025-12-13T09:12:38-08:00*%
%TF.ProjectId,LCDdisplayController,4c434464-6973-4706-9c61-79436f6e7472,rev?*%
%TF.SameCoordinates,Original*%
%TF.FileFunction,Copper,L1,Top*%
%TF.FilePolarity,Positive*%
%FSLAX46Y46*%
G04 Gerber Fmt 4.6, Leading zero omitted, Abs format (unit mm)*
G04 Created by KiCad (PCBNEW 9.0.6) date 2025-12-13 09:12:38*
%MOMM*%
%LPD*%
G01*
G04 APERTURE LIST*
G04 Aperture macros list*
%AMRoundRect*
0 Rectangle with rounded corners*
0 $1 Rounding radius*
0 $2 $3 $4 $5 $6 $7 $8 $9 X,Y pos of 4 corners*
0 Add a 4 corners polygon primitive as box body*
4,1,4,$2,$3,$4,$5,$6,$7,$8,$9,$2,$3,0*
0 Add four circle primitives for the rounded corners*
1,1,$1+$1,$2,$3*
1,1,$1+$1,$4,$5*
1,1,$1+$1,$6,$7*
1,1,$1+$1,$8,$9*
0 Add four rect primitives between the rounded corners*
20,1,$1+$1,$2,$3,$4,$5,0*
20,1,$1+$1,$4,$5,$6,$7,0*
20,1,$1+$1,$6,$7,$8,$9,0*
20,1,$1+$1,$8,$9,$2,$3,0*%
G04 Aperture macros list end*
%TA.AperFunction,ComponentPad*%
%ADD10RoundRect,0.250000X0.550000X-0.550000X0.550000X0.550000X-0.550000X0.550000X-0.550000X-0.550000X0*%
%TD*%
%TA.AperFunction,ComponentPad*%
%ADD11C,1.600000*%
%TD*%
%TA.AperFunction,ComponentPad*%
%ADD12C,1.500000*%
%TD*%
%TA.AperFunction,ComponentPad*%
%ADD13R,1.700000X1.700000*%
%TD*%
%TA.AperFunction,ComponentPad*%
%ADD14O,1.700000X1.700000*%
%TD*%
%TA.AperFunction,ComponentPad*%
%ADD15C,1.400000*%
%TD*%
%TA.AperFunction,ComponentPad*%
%ADD16O,1.400000X1.400000*%
%TD*%
%TA.AperFunction,ComponentPad*%
%ADD17R,1.550000X1.550000*%
%TD*%
%TA.AperFunction,ComponentPad*%
%ADD18C,1.550000*%
%TD*%
%TA.AperFunction,ViaPad*%
%ADD19C,0.600000*%
%TD*%
%TA.AperFunction,Conductor*%
%ADD20C,0.200000*%
%TD*%
%TA.AperFunction,Conductor*%
%ADD21C,0.500000*%
%TD*%
G04 APERTURE END LIST*
D10*
%TO.P,U3,1,~{RESET}/PC6*%
%TO.N,/RES*%
X71120000Y-102870000D03*
D11*
%TO.P,U3,2,PD0*%
%TO.N,Net-(U1-Q0)*%
X73660000Y-102870000D03*
%TO.P,U3,3,PD1*%
%TO.N,Net-(U1-Q1)*%
X76200000Y-102870000D03*
%TO.P,U3,4,PD2*%
%TO.N,Net-(U1-Q2)*%
X78740000Y-102870000D03*
%TO.P,U3,5,PD3*%
%TO.N,Net-(U1-Q3)*%
X81280000Y-102870000D03*
%TO.P,U3,6,PD4*%
%TO.N,Net-(U1-Q4)*%
X83820000Y-102870000D03*
%TO.P,U3,7,VCC*%
%TO.N,+5V*%
X86360000Y-102870000D03*
%TO.P,U3,8,GND*%
%TO.N,GND*%
X88900000Y-102870000D03*
%TO.P,U3,9,XTAL1/PB6*%
%TO.N,Net-(U3-XTAL1{slash}PB6)*%
X91440000Y-102870000D03*
%TO.P,U3,10,XTAL2/PB7*%
%TO.N,Net-(U3-XTAL2{slash}PB7)*%
X93980000Y-102870000D03*
%TO.P,U3,11,PD5*%
%TO.N,Net-(U1-Q5)*%
X96520000Y-102870000D03*
%TO.P,U3,12,PD6*%
%TO.N,Net-(U1-Q6)*%
X99060000Y-102870000D03*
%TO.P,U3,13,PD7*%
%TO.N,Net-(U1-Q7)*%
X101600000Y-102870000D03*
%TO.P,U3,14,PB0*%
%TO.N,/D4*%
X104140000Y-102870000D03*
%TO.P,U3,15,PB1*%
%TO.N,/D5*%
X104140000Y-95250000D03*
%TO.P,U3,16,PB2*%
%TO.N,/D6*%
X101600000Y-95250000D03*
%TO.P,U3,17,PB3*%
%TO.N,/D7*%
X99060000Y-95250000D03*
%TO.P,U3,18,PB4*%
%TO.N,/E*%
X96520000Y-95250000D03*
%TO.P,U3,19,PB5*%
%TO.N,/RS*%
X93980000Y-95250000D03*
%TO.P,U3,20,AVCC*%
%TO.N,+5V*%
X91440000Y-95250000D03*
%TO.P,U3,21,AREF*%
%TO.N,unconnected-(U3-AREF-Pad21)*%
X88900000Y-95250000D03*
%TO.P,U3,22,GND*%
%TO.N,GND*%
X86360000Y-95250000D03*
%TO.P,U3,23,PC0*%
%TO.N,/IN0*%
X83820000Y-95250000D03*
%TO.P,U3,24,PC1*%
%TO.N,/IN1*%
X81280000Y-95250000D03*
%TO.P,U3,25,PC2*%
%TO.N,/IN2*%
X78740000Y-95250000D03*
%TO.P,U3,26,PC3*%
%TO.N,/IN3*%
X76200000Y-95250000D03*
%TO.P,U3,27,PC4*%
%TO.N,Net-(U2-OE)*%
X73660000Y-95250000D03*
%TO.P,U3,28,PC5*%
%TO.N,Net-(U1-OE)*%
X71120000Y-95250000D03*
%TD*%
%TO.P,C1,1*%
%TO.N,GND*%
X41910000Y-101520000D03*
%TO.P,C1,2*%
%TO.N,+5V*%
X41910000Y-96520000D03*
%TD*%
D12*
%TO.P,Y1,1,1*%
%TO.N,Net-(U3-XTAL2{slash}PB7)*%
X91240000Y-90170000D03*
%TO.P,Y1,2,2*%
%TO.N,Net-(U3-XTAL1{slash}PB6)*%
X86360000Y-90170000D03*
%TD*%
D13*
%TO.P,J1,1,Pin_1*%
%TO.N,+5V*%
X43180000Y-107950000D03*
D14*
%TO.P,J1,2,Pin_2*%
%TO.N,Net-(J1-Pin_2)*%
X45720000Y-107950000D03*
%TO.P,J1,3,Pin_3*%
%TO.N,Net-(J1-Pin_3)*%
X48260000Y-107950000D03*
%TO.P,J1,4,Pin_4*%
%TO.N,Net-(J1-Pin_4)*%
X50800000Y-107950000D03*
%TO.P,J1,5,Pin_5*%
%TO.N,Net-(J1-Pin_5)*%
X53340000Y-107950000D03*
%TO.P,J1,6,Pin_6*%
%TO.N,Net-(J1-Pin_6)*%
X55880000Y-107950000D03*
%TO.P,J1,7,Pin_7*%
%TO.N,Net-(J1-Pin_7)*%
X58420000Y-107950000D03*
%TO.P,J1,8,Pin_8*%
%TO.N,Net-(J1-Pin_8)*%
X60960000Y-107950000D03*
%TO.P,J1,9,Pin_9*%
%TO.N,Net-(J1-Pin_9)*%
X63500000Y-107950000D03*
%TO.P,J1,10,Pin_10*%
%TO.N,Net-(J1-Pin_10)*%
X66040000Y-107950000D03*
%TO.P,J1,11,Pin_11*%
%TO.N,GND*%
X68580000Y-107950000D03*
%TD*%
D10*
%TO.P,U1,1,OE*%
%TO.N,Net-(U1-OE)*%
X44450000Y-102870000D03*
D11*
%TO.P,U1,2,D0*%
%TO.N,Net-(J1-Pin_2)*%
X46990000Y-102870000D03*
%TO.P,U1,3,D1*%
%TO.N,Net-(J1-Pin_3)*%
X49530000Y-102870000D03*
%TO.P,U1,4,D2*%
%TO.N,Net-(J1-Pin_4)*%
X52070000Y-102870000D03*
%TO.P,U1,5,D3*%
%TO.N,Net-(J1-Pin_5)*%
X54610000Y-102870000D03*
%TO.P,U1,6,D4*%
%TO.N,Net-(J1-Pin_6)*%
X57150000Y-102870000D03*
%TO.P,U1,7,D5*%
%TO.N,Net-(J1-Pin_7)*%
X59690000Y-102870000D03*
%TO.P,U1,8,D6*%
%TO.N,Net-(J1-Pin_8)*%
X62230000Y-102870000D03*
%TO.P,U1,9,D7*%
%TO.N,Net-(J1-Pin_9)*%
X64770000Y-102870000D03*
%TO.P,U1,10,GND*%
%TO.N,GND*%
X67310000Y-102870000D03*
%TO.P,U1,11,Load*%
%TO.N,Net-(J1-Pin_10)*%
X67310000Y-95250000D03*
%TO.P,U1,12,Q7*%
%TO.N,Net-(U1-Q7)*%
X64770000Y-95250000D03*
%TO.P,U1,13,Q6*%
%TO.N,Net-(U1-Q6)*%
X62230000Y-95250000D03*
%TO.P,U1,14,Q5*%
%TO.N,Net-(U1-Q5)*%
X59690000Y-95250000D03*
%TO.P,U1,15,Q4*%
%TO.N,Net-(U1-Q4)*%
X57150000Y-95250000D03*
%TO.P,U1,16,Q3*%
%TO.N,Net-(U1-Q3)*%
X54610000Y-95250000D03*
%TO.P,U1,17,Q2*%
%TO.N,Net-(U1-Q2)*%
X52070000Y-95250000D03*
%TO.P,U1,18,Q1*%
%TO.N,Net-(U1-Q1)*%
X49530000Y-95250000D03*
%TO.P,U1,19,Q0*%
%TO.N,Net-(U1-Q0)*%
X46990000Y-95250000D03*
%TO.P,U1,20,VCC*%
%TO.N,+5V*%
X44450000Y-95250000D03*
%TD*%
D15*
%TO.P,R4,1*%
%TO.N,Net-(J3-Pin_15)*%
X133350000Y-60960000D03*
D16*
%TO.P,R4,2*%
%TO.N,+5V*%
X133350000Y-68580000D03*
%TD*%
D15*
%TO.P,R1,1*%
%TO.N,Net-(J1-Pin_10)*%
X39370000Y-102870000D03*
D16*
%TO.P,R1,2*%
%TO.N,+5V*%
X39370000Y-95250000D03*
%TD*%
D10*
%TO.P,U2,1,OE*%
%TO.N,Net-(U2-OE)*%
X107950000Y-102870000D03*
D11*
%TO.P,U2,2,D0*%
%TO.N,Net-(J2-Pin_2)*%
X110490000Y-102870000D03*
%TO.P,U2,3,D1*%
%TO.N,Net-(J2-Pin_3)*%
X113030000Y-102870000D03*
%TO.P,U2,4,D2*%
%TO.N,Net-(J2-Pin_4)*%
X115570000Y-102870000D03*
%TO.P,U2,5,D3*%
%TO.N,Net-(J2-Pin_5)*%
X118110000Y-102870000D03*
%TO.P,U2,6,D4*%
%TO.N,Net-(J2-Pin_6)*%
X120650000Y-102870000D03*
%TO.P,U2,7,D5*%
%TO.N,Net-(J2-Pin_7)*%
X123190000Y-102870000D03*
%TO.P,U2,8,D6*%
%TO.N,Net-(J2-Pin_8)*%
X125730000Y-102870000D03*
%TO.P,U2,9,D7*%
%TO.N,Net-(J2-Pin_9)*%
X128270000Y-102870000D03*
%TO.P,U2,10,GND*%
%TO.N,GND*%
X130810000Y-102870000D03*
%TO.P,U2,11,Load*%
%TO.N,Net-(J2-Pin_10)*%
X130810000Y-95250000D03*
%TO.P,U2,12,Q7*%
%TO.N,Net-(U1-Q7)*%
X128270000Y-95250000D03*
%TO.P,U2,13,Q6*%
%TO.N,Net-(U1-Q6)*%
X125730000Y-95250000D03*
%TO.P,U2,14,Q5*%
%TO.N,Net-(U1-Q5)*%
X123190000Y-95250000D03*
%TO.P,U2,15,Q4*%
%TO.N,Net-(U1-Q4)*%
X120650000Y-95250000D03*
%TO.P,U2,16,Q3*%
%TO.N,Net-(U1-Q3)*%
X118110000Y-95250000D03*
%TO.P,U2,17,Q2*%
%TO.N,Net-(U1-Q2)*%
X115570000Y-95250000D03*
%TO.P,U2,18,Q1*%
%TO.N,Net-(U1-Q1)*%
X113030000Y-95250000D03*
%TO.P,U2,19,Q0*%
%TO.N,Net-(U1-Q0)*%
X110490000Y-95250000D03*
%TO.P,U2,20,VCC*%
%TO.N,+5V*%
X107950000Y-95250000D03*
%TD*%
%TO.P,C2,1*%
%TO.N,+5V*%
X133350000Y-96600000D03*
%TO.P,C2,2*%
%TO.N,GND*%
X133350000Y-101600000D03*
%TD*%
D17*
%TO.P,RV1,1,1*%
%TO.N,+5V*%
X133350000Y-71200000D03*
D18*
%TO.P,RV1,2,2*%
%TO.N,Net-(J3-Pin_3)*%
X130850000Y-73700000D03*
%TO.P,RV1,3,3*%
%TO.N,GND*%
X133350000Y-76200000D03*
%TD*%
D15*
%TO.P,R3,1*%
%TO.N,/RES*%
X71120000Y-91440000D03*
D16*
%TO.P,R3,2*%
%TO.N,+5V*%
X78740000Y-91440000D03*
%TD*%
D13*
%TO.P,J3,1,Pin_1*%
%TO.N,GND*%
X54610000Y-57150000D03*
D14*
%TO.P,J3,2,Pin_2*%
%TO.N,+5V*%
X57150000Y-57150000D03*
%TO.P,J3,3,Pin_3*%
%TO.N,Net-(J3-Pin_3)*%
X59690000Y-57150000D03*
%TO.P,J3,4,Pin_4*%
%TO.N,/RS*%
X62230000Y-57150000D03*
%TO.P,J3,5,Pin_5*%
%TO.N,GND*%
X64770000Y-57150000D03*
%TO.P,J3,6,Pin_6*%
%TO.N,/E*%
X67310000Y-57150000D03*
%TO.P,J3,7,Pin_7*%
%TO.N,unconnected-(J3-Pin_7-Pad7)*%
X69850000Y-57150000D03*
%TO.P,J3,8,Pin_8*%
%TO.N,unconnected-(J3-Pin_8-Pad8)*%
X72390000Y-57150000D03*
%TO.P,J3,9,Pin_9*%
%TO.N,unconnected-(J3-Pin_9-Pad9)*%
X74930000Y-57150000D03*
%TO.P,J3,10,Pin_10*%
%TO.N,unconnected-(J3-Pin_10-Pad10)*%
X77470000Y-57150000D03*
%TO.P,J3,11,Pin_11*%
%TO.N,/D4*%
X80010000Y-57150000D03*
%TO.P,J3,12,Pin_12*%
%TO.N,/D5*%
X82550000Y-57150000D03*
%TO.P,J3,13,Pin_13*%
%TO.N,/D6*%
X85090000Y-57150000D03*
%TO.P,J3,14,Pin_14*%
%TO.N,/D7*%
X87630000Y-57150000D03*
%TO.P,J3,15,Pin_15*%
%TO.N,Net-(J3-Pin_15)*%
X90170000Y-57150000D03*
%TO.P,J3,16,Pin_16*%
%TO.N,GND*%
X92710000Y-57150000D03*
%TD*%
D15*
%TO.P,R2,1*%
%TO.N,Net-(J2-Pin_10)*%
X133350000Y-78740000D03*
D16*
%TO.P,R2,2*%
%TO.N,+5V*%
X133350000Y-86360000D03*
%TD*%
D13*
%TO.P,J2,1,Pin_1*%
%TO.N,+5V*%
X104140000Y-107950000D03*
D14*
%TO.P,J2,2,Pin_2*%
%TO.N,Net-(J2-Pin_2)*%
X106680000Y-107950000D03*
%TO.P,J2,3,Pin_3*%
%TO.N,Net-(J2-Pin_3)*%
X109220000Y-107950000D03*
%TO.P,J2,4,Pin_4*%
%TO.N,Net-(J2-Pin_4)*%
X111760000Y-107950000D03*
%TO.P,J2,5,Pin_5*%
%TO.N,Net-(J2-Pin_5)*%
X114300000Y-107950000D03*
%TO.P,J2,6,Pin_6*%
%TO.N,Net-(J2-Pin_6)*%
X116840000Y-107950000D03*
%TO.P,J2,7,Pin_7*%
%TO.N,Net-(J2-Pin_7)*%
X119380000Y-107950000D03*
%TO.P,J2,8,Pin_8*%
%TO.N,Net-(J2-Pin_8)*%
X121920000Y-107950000D03*
%TO.P,J2,9,Pin_9*%
%TO.N,Net-(J2-Pin_9)*%
X124460000Y-107950000D03*
%TO.P,J2,10,Pin_10*%
%TO.N,Net-(J2-Pin_10)*%
X127000000Y-107950000D03*
%TO.P,J2,11,Pin_11*%
%TO.N,GND*%
X129540000Y-107950000D03*
%TD*%
D13*
%TO.P,J5,1,Pin_1*%
%TO.N,+5V*%
X80010000Y-107950000D03*
D14*
%TO.P,J5,2,Pin_2*%
%TO.N,/IN0*%
X82550000Y-107950000D03*
%TO.P,J5,3,Pin_3*%
%TO.N,/IN1*%
X85090000Y-107950000D03*
%TO.P,J5,4,Pin_4*%
%TO.N,/IN2*%
X87630000Y-107950000D03*
%TO.P,J5,5,Pin_5*%
%TO.N,/IN3*%
X90170000Y-107950000D03*
%TO.P,J5,6,Pin_6*%
%TO.N,GND*%
X92710000Y-107950000D03*
%TD*%
D11*
%TO.P,C3,1*%
%TO.N,Net-(U3-XTAL2{slash}PB7)*%
X96520000Y-91440000D03*
%TO.P,C3,2*%
%TO.N,GND*%
X96520000Y-88940000D03*
%TD*%
D13*
%TO.P,J4,1,Pin_1*%
%TO.N,GND*%
X46990000Y-35560000D03*
D14*
%TO.P,J4,2,Pin_2*%
%TO.N,+5V*%
X49530000Y-35560000D03*
%TO.P,J4,3,Pin_3*%
%TO.N,Net-(J3-Pin_3)*%
X52070000Y-35560000D03*
%TO.P,J4,4,Pin_4*%
%TO.N,/RS*%
X54610000Y-35560000D03*
%TO.P,J4,5,Pin_5*%
%TO.N,GND*%
X57150000Y-35560000D03*
%TO.P,J4,6,Pin_6*%
%TO.N,/E*%
X59690000Y-35560000D03*
%TO.P,J4,7,Pin_7*%
%TO.N,unconnected-(J4-Pin_7-Pad7)*%
X62230000Y-35560000D03*
%TO.P,J4,8,Pin_8*%
%TO.N,unconnected-(J4-Pin_8-Pad8)*%
X64770000Y-35560000D03*
%TO.P,J4,9,Pin_9*%
%TO.N,unconnected-(J4-Pin_9-Pad9)*%
X67310000Y-35560000D03*
%TO.P,J4,10,Pin_10*%
%TO.N,unconnected-(J4-Pin_10-Pad10)*%
X69850000Y-35560000D03*
%TO.P,J4,11,Pin_11*%
%TO.N,/D4*%
X72390000Y-35560000D03*
%TO.P,J4,12,Pin_12*%
%TO.N,/D5*%
X74930000Y-35560000D03*
%TO.P,J4,13,Pin_13*%
%TO.N,/D6*%
X77470000Y-35560000D03*
%TO.P,J4,14,Pin_14*%
%TO.N,/D7*%
X80010000Y-35560000D03*
%TO.P,J4,15,Pin_15*%
%TO.N,Net-(J3-Pin_15)*%
X82550000Y-35560000D03*
%TO.P,J4,16,Pin_16*%
%TO.N,GND*%
X85090000Y-35560000D03*
%TD*%
D11*
%TO.P,C4,1*%
%TO.N,Net-(U3-XTAL1{slash}PB6)*%
X81280000Y-91440000D03*
%TO.P,C4,2*%
%TO.N,GND*%
X81280000Y-88940000D03*
%TD*%
D19*
%TO.N,/D4*%
X102387000Y-59836000D03*
%TO.N,/D5*%
X85260265Y-85681735D03*
%TO.N,/D6*%
X99499300Y-59182000D03*
%TO.N,/E*%
X88900000Y-60452000D03*
%TO.N,/RS*%
X64465300Y-85197100D03*
%TO.N,Net-(U1-Q0)*%
X109829600Y-85217000D03*
%TO.N,Net-(U1-Q3)*%
X117016300Y-99584600D03*
%TO.N,Net-(U1-Q2)*%
X114096800Y-98218000D03*
X79062800Y-98218000D03*
%TO.N,Net-(U1-Q4)*%
X84216000Y-98977800D03*
X120753000Y-98178300D03*
X58420000Y-104366000D03*
%TO.N,Net-(U1-Q7)*%
X64770000Y-98216300D03*
X100279200Y-99800600D03*
%TO.N,Net-(U1-OE)*%
X70230700Y-101327500D03*
%TO.N,Net-(U1-Q6)*%
X89869600Y-94272700D03*
%TO.N,Net-(U1-Q5)*%
X96520000Y-97673500D03*
%TO.N,Net-(U1-Q1)*%
X75962800Y-96996600D03*
%TO.N,Net-(U2-OE)*%
X76143300Y-105507100D03*
%TD*%
D20*
%TO.N,GND*%
X130327400Y-79222600D02*
X133350000Y-76200000D01*
X130327400Y-91821000D02*
X130327400Y-79222600D01*
X135289000Y-96782600D02*
X130327400Y-91821000D01*
X133350000Y-101600000D02*
X135289000Y-99661000D01*
X135289000Y-99661000D02*
X135289000Y-96782600D01*
%TO.N,Net-(U1-Q5)*%
X122262500Y-95250000D02*
X123190000Y-95250000D01*
X119896200Y-97616300D02*
X122262500Y-95250000D01*
X96577200Y-97616300D02*
X119896200Y-97616300D01*
X96520000Y-97673500D02*
X96577200Y-97616300D01*
X62016600Y-97576600D02*
X59690000Y-95250000D01*
X64714500Y-97576600D02*
X62016600Y-97576600D01*
X96462800Y-97616300D02*
X64754200Y-97616300D01*
X96520000Y-97673500D02*
X96462800Y-97616300D01*
X64754200Y-97616300D02*
X64714500Y-97576600D01*
%TO.N,Net-(U1-Q7)*%
X83136000Y-99177600D02*
X83759000Y-99800600D01*
X83759000Y-99800600D02*
X100279200Y-99800600D01*
X65725800Y-99177600D02*
X83136000Y-99177600D01*
X64770000Y-98216300D02*
X64770000Y-98221800D01*
X64770000Y-98221800D02*
X65725800Y-99177600D01*
%TO.N,Net-(U1-Q0)*%
X109186200Y-84573600D02*
X57666400Y-84573600D01*
X109829600Y-85217000D02*
X109186200Y-84573600D01*
X57666400Y-84573600D02*
X46990000Y-95250000D01*
%TO.N,+5V*%
X133350000Y-96600000D02*
X130556600Y-96600000D01*
D21*
X80010000Y-107950000D02*
X78709000Y-106649000D01*
X102839000Y-106649000D02*
X86360000Y-106649000D01*
X106699000Y-96501000D02*
X107950000Y-95250000D01*
D20*
X81542900Y-93345000D02*
X79741700Y-91543800D01*
D21*
X78709000Y-106649000D02*
X44481000Y-106649000D01*
X44481000Y-106649000D02*
X43180000Y-107950000D01*
D20*
X78740000Y-91440000D02*
X79741700Y-91440000D01*
D21*
X86360000Y-106649000D02*
X81311000Y-106649000D01*
X92691000Y-96501000D02*
X106699000Y-96501000D01*
X104140000Y-107950000D02*
X102839000Y-106649000D01*
X91440000Y-95250000D02*
X92691000Y-96501000D01*
D20*
X129540000Y-95583400D02*
X129540000Y-94956200D01*
X129540000Y-94956200D02*
X128705700Y-94121900D01*
X91440000Y-95250000D02*
X91440000Y-94992200D01*
X130556600Y-96600000D02*
X129540000Y-95583400D01*
D21*
X86360000Y-102870000D02*
X86360000Y-106649000D01*
D20*
X128705700Y-94121900D02*
X109078100Y-94121900D01*
D21*
X81311000Y-106649000D02*
X80010000Y-107950000D01*
D20*
X91440000Y-94992200D02*
X89792800Y-93345000D01*
X109078100Y-94121900D02*
X107950000Y-95250000D01*
X89792800Y-93345000D02*
X81542900Y-93345000D01*
X79741700Y-91543800D02*
X79741700Y-91440000D01*
D21*
%TO.N,GND*%
X69881000Y-109251000D02*
X68580000Y-107950000D01*
X94011000Y-109251000D02*
X128239000Y-109251000D01*
X65960000Y-101520000D02*
X67310000Y-102870000D01*
X128239000Y-109251000D02*
X129540000Y-107950000D01*
D20*
X64770000Y-57150000D02*
X63619000Y-55999000D01*
X58301000Y-36711000D02*
X57150000Y-35560000D01*
X55999000Y-36711000D02*
X48141000Y-36711000D01*
X57150000Y-35560000D02*
X55999000Y-36711000D01*
X64770000Y-57150000D02*
X65921000Y-55999000D01*
X91559000Y-55999000D02*
X92710000Y-57150000D01*
X83939000Y-36711000D02*
X58301000Y-36711000D01*
D21*
X41910000Y-101520000D02*
X65960000Y-101520000D01*
D20*
X65921000Y-55999000D02*
X91559000Y-55999000D01*
D21*
X92710000Y-107950000D02*
X91409000Y-109251000D01*
D20*
X85090000Y-35560000D02*
X83939000Y-36711000D01*
X63619000Y-55999000D02*
X55761000Y-55999000D01*
X55761000Y-55999000D02*
X54610000Y-57150000D01*
X48141000Y-36711000D02*
X46990000Y-35560000D01*
D21*
X91409000Y-109251000D02*
X69881000Y-109251000D01*
X92710000Y-107950000D02*
X94011000Y-109251000D01*
D20*
%TO.N,Net-(U3-XTAL1{slash}PB6)*%
X85090000Y-91440000D02*
X81280000Y-91440000D01*
X86360000Y-90170000D02*
X85090000Y-91440000D01*
%TO.N,/D4*%
X80893200Y-57150000D02*
X83579200Y-59836000D01*
X80010000Y-57150000D02*
X80893200Y-57150000D01*
X83579200Y-59836000D02*
X102387000Y-59836000D01*
%TO.N,/D5*%
X85260265Y-85681735D02*
X85260265Y-85747565D01*
X102989600Y-94099600D02*
X104140000Y-95250000D01*
X93612300Y-94099600D02*
X102989600Y-94099600D01*
X85260265Y-85747565D02*
X93612300Y-94099600D01*
%TO.N,/D6*%
X87985700Y-59182000D02*
X85953700Y-57150000D01*
X99499300Y-59182000D02*
X87985700Y-59182000D01*
X85953700Y-57150000D02*
X85090000Y-57150000D01*
%TO.N,Net-(J1-Pin_10)*%
X64878000Y-109112000D02*
X66040000Y-107950000D01*
X39370000Y-107950000D02*
X40532000Y-109112000D01*
X40532000Y-109112000D02*
X64878000Y-109112000D01*
X39370000Y-102870000D02*
X39370000Y-107950000D01*
%TO.N,/E*%
X88900000Y-60452000D02*
X71475800Y-60452000D01*
X71475800Y-60452000D02*
X68173800Y-57150000D01*
X68173800Y-57150000D02*
X67310000Y-57150000D01*
%TO.N,/RS*%
X83927100Y-85197100D02*
X93980000Y-95250000D01*
X64465300Y-85197100D02*
X83927100Y-85197100D01*
%TO.N,Net-(J3-Pin_15)*%
X91033800Y-57150000D02*
X92303800Y-58420000D01*
X121539000Y-60960000D02*
X133350000Y-60960000D01*
X92303800Y-58420000D02*
X118999000Y-58420000D01*
X118999000Y-58420000D02*
X121539000Y-60960000D01*
X90170000Y-57150000D02*
X91033800Y-57150000D01*
%TO.N,Net-(J3-Pin_3)*%
X77103800Y-73700000D02*
X130850000Y-73700000D01*
X60553800Y-57150000D02*
X77103800Y-73700000D01*
X59690000Y-57150000D02*
X60553800Y-57150000D01*
%TO.N,Net-(U1-Q0)*%
X46990000Y-95250000D02*
X52465600Y-100725600D01*
X52465600Y-100725600D02*
X71515600Y-100725600D01*
X71515600Y-100725600D02*
X73660000Y-102870000D01*
%TO.N,Net-(U1-Q3)*%
X115977400Y-100623500D02*
X81280000Y-100623500D01*
X117016300Y-99584600D02*
X115977400Y-100623500D01*
X80363500Y-99707000D02*
X81280000Y-100623500D01*
X59067000Y-99707000D02*
X80363500Y-99707000D01*
X81280000Y-100623500D02*
X81280000Y-102870000D01*
X54610000Y-95250000D02*
X59067000Y-99707000D01*
%TO.N,Net-(U1-Q2)*%
X79162400Y-98317600D02*
X79062800Y-98218000D01*
X114096800Y-98218000D02*
X113997200Y-98317600D01*
X56944000Y-100124000D02*
X75994000Y-100124000D01*
X113997200Y-98317600D02*
X79162400Y-98317600D01*
X52070000Y-95250000D02*
X56944000Y-100124000D01*
X75994000Y-100124000D02*
X78740000Y-102870000D01*
%TO.N,Net-(U1-Q4)*%
X82266900Y-104423100D02*
X83820000Y-102870000D01*
X120753000Y-98178300D02*
X119953500Y-98977800D01*
X58420000Y-104366000D02*
X58477100Y-104423100D01*
X58477100Y-104423100D02*
X82266900Y-104423100D01*
X119953500Y-98977800D02*
X84216000Y-98977800D01*
%TO.N,Net-(U1-Q7)*%
X102772200Y-101697800D02*
X101600000Y-102870000D01*
X128270000Y-95250000D02*
X121822200Y-101697800D01*
X121822200Y-101697800D02*
X102772200Y-101697800D01*
%TO.N,Net-(U1-OE)*%
X58920300Y-104015400D02*
X58669200Y-103764300D01*
X57918300Y-104016900D02*
X45596900Y-104016900D01*
X70230700Y-101577000D02*
X67792300Y-104015400D01*
X58170900Y-103764300D02*
X57918300Y-104016900D01*
X58669200Y-103764300D02*
X58170900Y-103764300D01*
X67792300Y-104015400D02*
X58920300Y-104015400D01*
X45596900Y-104016900D02*
X44450000Y-102870000D01*
X70230700Y-101327500D02*
X70230700Y-101577000D01*
%TO.N,Net-(U1-Q6)*%
X89696100Y-94099200D02*
X63380800Y-94099200D01*
X119785200Y-101194800D02*
X125730000Y-95250000D01*
X63380800Y-94099200D02*
X62230000Y-95250000D01*
X89869600Y-94272700D02*
X89696100Y-94099200D01*
X100735200Y-101194800D02*
X119785200Y-101194800D01*
X99060000Y-102870000D02*
X100735200Y-101194800D01*
%TO.N,Net-(U1-Q1)*%
X50642600Y-94137400D02*
X49530000Y-95250000D01*
X60960000Y-95545100D02*
X60960000Y-94894000D01*
X60203400Y-94137400D02*
X50642600Y-94137400D01*
X111206500Y-97073500D02*
X76039700Y-97073500D01*
X113030000Y-95250000D02*
X111206500Y-97073500D01*
X60960000Y-94894000D02*
X60203400Y-94137400D01*
X76039700Y-97073500D02*
X75962800Y-96996600D01*
X62411500Y-96996600D02*
X60960000Y-95545100D01*
X75962800Y-96996600D02*
X62411500Y-96996600D01*
%TO.N,Net-(U2-OE)*%
X76143300Y-105507100D02*
X82825200Y-105507100D01*
X95250000Y-102494100D02*
X95250000Y-103218400D01*
X106832600Y-103987400D02*
X107950000Y-102870000D01*
X96019000Y-103987400D02*
X106832600Y-103987400D01*
X82825200Y-105507100D02*
X85090000Y-103242300D01*
X85090000Y-102514400D02*
X85852800Y-101751600D01*
X95250000Y-103218400D02*
X96019000Y-103987400D01*
X85852800Y-101751600D02*
X94507500Y-101751600D01*
X94507500Y-101751600D02*
X95250000Y-102494100D01*
X85090000Y-103242300D02*
X85090000Y-102514400D01*
%TD*%
%TA.AperFunction,Conductor*%
%TO.N,GND*%
G36*
X132285381Y-33540185D02*
G01*
X132331136Y-33592989D01*
X132341080Y-33662147D01*
X132312055Y-33725703D01*
X132280342Y-33751887D01*
X132180417Y-33809578D01*
X132180409Y-33809584D01*
X131961931Y-33977229D01*
X131767230Y-34171930D01*
X131767223Y-34171938D01*
X131767222Y-34171940D01*
X131599591Y-34390400D01*
X131599585Y-34390408D01*
X131599580Y-34390415D01*
X131461898Y-34628887D01*
X131461891Y-34628901D01*
X131356515Y-34883303D01*
X131285244Y-35149293D01*
X131249300Y-35422304D01*
X131249300Y-35697693D01*
X131280751Y-35936577D01*
X131285244Y-35970705D01*
X131310500Y-36064961D01*
X131356515Y-36236694D01*
X131461891Y-36491096D01*
X131461898Y-36491110D01*
X131541889Y-36629659D01*
X131599584Y-36729589D01*
X131767222Y-36948058D01*
X131767226Y-36948062D01*
X131767230Y-36948067D01*
X131961931Y-37142768D01*
X131961935Y-37142771D01*
X131961941Y-37142777D01*
X132180410Y-37310415D01*
X132418891Y-37448102D01*
X132418896Y-37448104D01*
X132418902Y-37448107D01*
X132550467Y-37502602D01*
X132673303Y-37553483D01*
X132939294Y-37624755D01*
X133212313Y-37660699D01*
X133212320Y-37660699D01*
X133487680Y-37660699D01*
X133487687Y-37660699D01*
X133760706Y-37624755D01*
X134026697Y-37553483D01*
X134281109Y-37448102D01*
X134519590Y-37310415D01*
X134738059Y-37142777D01*
X134932778Y-36948058D01*
X135100416Y-36729589D01*
X135158114Y-36629653D01*
X135208680Y-36581439D01*
X135277287Y-36568215D01*
X135342151Y-36594183D01*
X135382680Y-36651097D01*
X135389500Y-36691654D01*
X135389500Y-53216000D01*
X135369815Y-53283039D01*
X135317011Y-53328794D01*
X135265500Y-53340000D01*
X134039783Y-53340000D01*
X133972744Y-53320315D01*
X133944794Y-53295706D01*
X133934165Y-53283039D01*
X133838486Y-53169014D01*
X133686284Y-53041300D01*
X133600250Y-52991628D01*
X133514220Y-52941959D01*
X133514217Y-52941958D01*
X133514216Y-52941957D01*
X133490638Y-52933375D01*
X133327511Y-52874001D01*
X133131845Y-52839500D01*
X133131843Y-52839500D01*
X133098392Y-52839500D01*
X113095892Y-52839500D01*
X113030000Y-52839500D01*
X112930657Y-52839500D01*
X112930654Y-52839500D01*
X112734988Y-52874001D01*
X112548286Y-52941956D01*
X112548279Y-52941959D01*
X112376219Y-53041298D01*
X112376213Y-53041302D01*
X112224014Y-53169014D01*
X112141365Y-53267511D01*
X112117706Y-53295706D01*
X112059535Y-53334408D01*
X112022717Y-53340000D01*
X108957283Y-53340000D01*
X108890244Y-53320315D01*
X108862294Y-53295706D01*
X108851665Y-53283039D01*
X108755986Y-53169014D01*
X108603784Y-53041300D01*
X108517750Y-52991628D01*
X108431720Y-52941959D01*
X108431717Y-52941958D01*
X108431716Y-52941957D01*
X108408138Y-52933375D01*
X108245011Y-52874001D01*
X108049345Y-52839500D01*
X108049343Y-52839500D01*
X108015892Y-52839500D01*
X87378392Y-52839500D01*
X87312500Y-52839500D01*
X87213157Y-52839500D01*
X87213154Y-52839500D01*
X87017488Y-52874001D01*
X86830786Y-52941956D01*
X86830779Y-52941959D01*
X86658719Y-53041298D01*
X86658713Y-53041302D01*
X86506514Y-53169014D01*
X86423865Y-53267511D01*
X86400206Y-53295706D01*
X86342035Y-53334408D01*
X86305217Y-53340000D01*
X84065283Y-53340000D01*
X83998244Y-53320315D01*
X83970294Y-53295706D01*
X83959665Y-53283039D01*
X83863986Y-53169014D01*
X83711784Y-53041300D01*
X83625750Y-52991628D01*
X83539720Y-52941959D01*
X83539717Y-52941958D01*
X83539716Y-52941957D01*
X83516138Y-52933375D01*
X83353011Y-52874001D01*
X83157345Y-52839500D01*
X83157343Y-52839500D01*
X83123892Y-52839500D01*
X61025892Y-52839500D01*
X60960000Y-52839500D01*
X60860657Y-52839500D01*
X60860654Y-52839500D01*
X60664988Y-52874001D01*
X60478286Y-52941956D01*
X60478279Y-52941959D01*
X60306219Y-53041298D01*
X60306213Y-53041302D01*
X60154014Y-53169014D01*
X60071365Y-53267511D01*
X60047706Y-53295706D01*
X59989535Y-53334408D01*
X59952717Y-53340000D01*
X56760283Y-53340000D01*
X56693244Y-53320315D01*
X56665294Y-53295706D01*
X56654665Y-53283039D01*
X56558986Y-53169014D01*
X56406784Y-53041300D01*
X56320750Y-52991628D01*
X56234720Y-52941959D01*
X56234717Y-52941958D01*
X56234716Y-52941957D01*
X56211138Y-52933375D01*
X56048011Y-52874001D01*
X55852345Y-52839500D01*
X55852343Y-52839500D01*
X55818892Y-52839500D01*
X41340892Y-52839500D01*
X41275000Y-52839500D01*
X41175657Y-52839500D01*
X41175654Y-52839500D01*
X40979988Y-52874001D01*
X40793286Y-52941956D01*
X40793279Y-52941959D01*
X40621219Y-53041298D01*
X40621213Y-53041302D01*
X40469014Y-53169014D01*
X40386365Y-53267511D01*
X40362706Y-53295706D01*
X40304535Y-53334408D01*
X40267717Y-53340000D01*
X37454500Y-53340000D01*
X37387461Y-53320315D01*
X37341706Y-53267511D01*
X37330500Y-53216000D01*
X37330500Y-36691659D01*
X37350185Y-36624620D01*
X37402989Y-36578865D01*
X37472147Y-36568921D01*
X37535703Y-36597946D01*
X37561887Y-36629659D01*
X37619577Y-36729582D01*
X37619582Y-36729590D01*
X37619589Y-36729599D01*
X37787218Y-36948058D01*
X37787224Y-36948065D01*
X37981933Y-37142774D01*
X37981939Y-37142779D01*
X38200408Y-37310416D01*
X38438889Y-37448104D01*
X38566095Y-37500794D01*
X38693299Y-37553484D01*
X38693300Y-37553484D01*
X38693302Y-37553485D01*
X38959293Y-37624757D01*
X39218505Y-37658883D01*
X39232296Y-37660699D01*
X39232312Y-37660701D01*
X39232319Y-37660701D01*
X39507679Y-37660701D01*
X39507686Y-37660701D01*
X39780705Y-37624757D01*
X40046696Y-37553485D01*
X40301109Y-37448104D01*
X40539590Y-37310416D01*
X40758059Y-37142779D01*
X40952778Y-36948060D01*
X41120415Y-36729591D01*
X41258103Y-36491110D01*
X41363484Y-36236697D01*
X41434756Y-35970706D01*
X41470700Y-35697687D01*
X41470700Y-35422313D01*
X41434756Y-35149294D01*
X41363484Y-34883303D01*
X41354223Y-34860946D01*
X41290169Y-34706304D01*
X41290168Y-34706302D01*
X41271882Y-34662155D01*
X45640000Y-34662155D01*
X45640000Y-35310000D01*
X46556988Y-35310000D01*
X46524075Y-35367007D01*
X46490000Y-35494174D01*
X46490000Y-35625826D01*
X46524075Y-35752993D01*
X46556988Y-35810000D01*
X45640000Y-35810000D01*
X45640000Y-36457844D01*
X45646401Y-36517372D01*
X45646403Y-36517379D01*
X45696645Y-36652086D01*
X45696649Y-36652093D01*
X45782809Y-36767187D01*
X45782812Y-36767190D01*
X45897906Y-36853350D01*
X45897913Y-36853354D01*
X46032620Y-36903596D01*
X46032627Y-36903598D01*
X46092155Y-36909999D01*
X46092172Y-36910000D01*
X46740000Y-36910000D01*
X46740000Y-35993012D01*
X46797007Y-36025925D01*
X46924174Y-36060000D01*
X47055826Y-36060000D01*
X47182993Y-36025925D01*
X47240000Y-35993012D01*
X47240000Y-36910000D01*
X47887828Y-36910000D01*
X47887844Y-36909999D01*
X47947372Y-36903598D01*
X47947379Y-36903596D01*
X48082086Y-36853354D01*
X48082093Y-36853350D01*
X48197187Y-36767190D01*
X48197190Y-36767187D01*
X48283350Y-36652093D01*
X48283354Y-36652086D01*
X48332422Y-36520529D01*
X48374293Y-36464595D01*
X48439757Y-36440178D01*
X48508030Y-36455030D01*
X48536285Y-36476181D01*
X48650213Y-36590109D01*
X48822179Y-36715048D01*
X48822181Y-36715049D01*
X48822184Y-36715051D01*
X49011588Y-36811557D01*
X49213757Y-36877246D01*
X49423713Y-36910500D01*
X49423714Y-36910500D01*
X49636286Y-36910500D01*
X49636287Y-36910500D01*
X49846243Y-36877246D01*
X50048412Y-36811557D01*
X50237816Y-36715051D01*
X50270019Y-36691654D01*
X50409786Y-36590109D01*
X50409788Y-36590106D01*
X50409792Y-36590104D01*
X50560104Y-36439792D01*
X50560106Y-36439788D01*
X50560109Y-36439786D01*
X50669086Y-36289789D01*
X50685051Y-36267816D01*
X50689514Y-36259054D01*
X50737488Y-36208259D01*
X50805308Y-36191463D01*
X50871444Y-36213999D01*
X50910486Y-36259056D01*
X50914951Y-36267820D01*
X51039890Y-36439786D01*
X51190213Y-36590109D01*
X51362179Y-36715048D01*
X51362181Y-36715049D01*
X51362184Y-36715051D01*
X51551588Y-36811557D01*
X51753757Y-36877246D01*
X51963713Y-36910500D01*
X51963714Y-36910500D01*
X52176286Y-36910500D01*
X52176287Y-36910500D01*
X52386243Y-36877246D01*
X52588412Y-36811557D01*
X52777816Y-36715051D01*
X52810019Y-36691654D01*
X52949786Y-36590109D01*
X52949788Y-36590106D01*
X52949792Y-36590104D01*
X53100104Y-36439792D01*
X53100106Y-36439788D01*
X53100109Y-36439786D01*
X53209086Y-36289789D01*
X53225051Y-36267816D01*
X53229514Y-36259054D01*
X53277488Y-36208259D01*
X53345308Y-36191463D01*
X53411444Y-36213999D01*
X53450486Y-36259056D01*
X53454951Y-36267820D01*
X53579890Y-36439786D01*
X53730213Y-36590109D01*
X53902179Y-36715048D01*
X53902181Y-36715049D01*
X53902184Y-36715051D01*
X54091588Y-36811557D01*
X54293757Y-36877246D01*
X54503713Y-36910500D01*
X54503714Y-36910500D01*
X54716286Y-36910500D01*
X54716287Y-36910500D01*
X54926243Y-36877246D01*
X55128412Y-36811557D01*
X55317816Y-36715051D01*
X55350019Y-36691654D01*
X55489786Y-36590109D01*
X55489788Y-36590106D01*
X55489792Y-36590104D01*
X55640104Y-36439792D01*
X55640106Y-36439788D01*
X55640109Y-36439786D01*
X55707515Y-36347007D01*
X55765051Y-36267816D01*
X55769793Y-36258508D01*
X55817763Y-36207711D01*
X55885583Y-36190911D01*
X55951719Y-36213445D01*
X55990763Y-36258500D01*
X55995377Y-36267555D01*
X56120272Y-36439459D01*
X56120276Y-36439464D01*
X56270535Y-36589723D01*
X56270540Y-36589727D01*
X56442442Y-36714620D01*
X56631782Y-36811095D01*
X56833871Y-36876757D01*
X56900000Y-36887231D01*
X56900000Y-35993012D01*
X56957007Y-36025925D01*
X57084174Y-36060000D01*
X57215826Y-36060000D01*
X57342993Y-36025925D01*
X57400000Y-35993012D01*
X57400000Y-36887230D01*
X57466126Y-36876757D01*
X57466129Y-36876757D01*
X57668217Y-36811095D01*
X57857557Y-36714620D01*
X58029459Y-36589727D01*
X58029464Y-36589723D01*
X58179723Y-36439464D01*
X58179727Y-36439459D01*
X58304620Y-36267558D01*
X58309232Y-36258507D01*
X58357205Y-36207709D01*
X58425025Y-36190912D01*
X58491161Y-36213447D01*
X58530204Y-36258504D01*
X58534949Y-36267817D01*
X58659890Y-36439786D01*
X58810213Y-36590109D01*
X58982179Y-36715048D01*
X58982181Y-36715049D01*
X58982184Y-36715051D01*
X59171588Y-36811557D01*
X59373757Y-36877246D01*
X59583713Y-36910500D01*
X59583714Y-36910500D01*
X59796286Y-36910500D01*
X59796287Y-36910500D01*
X60006243Y-36877246D01*
X60208412Y-36811557D01*
X60397816Y-36715051D01*
X60430019Y-36691654D01*
X60569786Y-36590109D01*
X60569788Y-36590106D01*
X60569792Y-36590104D01*
X60720104Y-36439792D01*
X60720106Y-36439788D01*
X60720109Y-36439786D01*
X60829086Y-36289789D01*
X60845051Y-36267816D01*
X60849514Y-36259054D01*
X60897488Y-36208259D01*
X60965308Y-36191463D01*
X61031444Y-36213999D01*
X61070486Y-36259056D01*
X61074951Y-36267820D01*
X61199890Y-36439786D01*
X61350213Y-36590109D01*
X61522179Y-36715048D01*
X61522181Y-36715049D01*
X61522184Y-36715051D01*
X61711588Y-36811557D01*
X61913757Y-36877246D01*
X62123713Y-36910500D01*
X62123714Y-36910500D01*
X62336286Y-36910500D01*
X62336287Y-36910500D01*
X62546243Y-36877246D01*
X62748412Y-36811557D01*
X62937816Y-36715051D01*
X62970019Y-36691654D01*
X63109786Y-36590109D01*
X63109788Y-36590106D01*
X63109792Y-36590104D01*
X63260104Y-36439792D01*
X63260106Y-36439788D01*
X63260109Y-36439786D01*
X63369086Y-36289789D01*
X63385051Y-36267816D01*
X63389514Y-36259054D01*
X63437488Y-36208259D01*
X63505308Y-36191463D01*
X63571444Y-36213999D01*
X63610486Y-36259056D01*
X63614951Y-36267820D01*
X63739890Y-36439786D01*
X63890213Y-36590109D01*
X64062179Y-36715048D01*
X64062181Y-36715049D01*
X64062184Y-36715051D01*
X64251588Y-36811557D01*
X64453757Y-36877246D01*
X64663713Y-36910500D01*
X64663714Y-36910500D01*
X64876286Y-36910500D01*
X64876287Y-36910500D01*
X65086243Y-36877246D01*
X65288412Y-36811557D01*
X65477816Y-36715051D01*
X65510019Y-36691654D01*
X65649786Y-36590109D01*
X65649788Y-36590106D01*
X65649792Y-36590104D01*
X65800104Y-36439792D01*
X65800106Y-36439788D01*
X65800109Y-36439786D01*
X65909086Y-36289789D01*
X65925051Y-36267816D01*
X65929514Y-36259054D01*
X65977488Y-36208259D01*
X66045308Y-36191463D01*
X66111444Y-36213999D01*
X66150486Y-36259056D01*
X66154951Y-36267820D01*
X66279890Y-36439786D01*
X66430213Y-36590109D01*
X66602179Y-36715048D01*
X66602181Y-36715049D01*
X66602184Y-36715051D01*
X66791588Y-36811557D01*
X66993757Y-36877246D01*
X67203713Y-36910500D01*
X67203714Y-36910500D01*
X67416286Y-36910500D01*
X67416287Y-36910500D01*
X67626243Y-36877246D01*
X67828412Y-36811557D01*
X68017816Y-36715051D01*
X68050019Y-36691654D01*
X68189786Y-36590109D01*
X68189788Y-36590106D01*
X68189792Y-36590104D01*
X68340104Y-36439792D01*
X68340106Y-36439788D01*
X68340109Y-36439786D01*
X68449086Y-36289789D01*
X68465051Y-36267816D01*
X68469514Y-36259054D01*
X68517488Y-36208259D01*
X68585308Y-36191463D01*
X68651444Y-36213999D01*
X68690486Y-36259056D01*
X68694951Y-36267820D01*
X68819890Y-36439786D01*
X68970213Y-36590109D01*
X69142179Y-36715048D01*
X69142181Y-36715049D01*
X69142184Y-36715051D01*
X69331588Y-36811557D01*
X69533757Y-36877246D01*
X69743713Y-36910500D01*
X69743714Y-36910500D01*
X69956286Y-36910500D01*
X69956287Y-36910500D01*
X70166243Y-36877246D01*
X70368412Y-36811557D01*
X70557816Y-36715051D01*
X70590019Y-36691654D01*
X70729786Y-36590109D01*
X70729788Y-36590106D01*
X70729792Y-36590104D01*
X70880104Y-36439792D01*
X70880106Y-36439788D01*
X70880109Y-36439786D01*
X70989086Y-36289789D01*
X71005051Y-36267816D01*
X71009514Y-36259054D01*
X71057488Y-36208259D01*
X71125308Y-36191463D01*
X71191444Y-36213999D01*
X71230486Y-36259056D01*
X71234951Y-36267820D01*
X71359890Y-36439786D01*
X71510213Y-36590109D01*
X71682179Y-36715048D01*
X71682181Y-36715049D01*
X71682184Y-36715051D01*
X71871588Y-36811557D01*
X72073757Y-36877246D01*
X72283713Y-36910500D01*
X72283714Y-36910500D01*
X72496286Y-36910500D01*
X72496287Y-36910500D01*
X72706243Y-36877246D01*
X72908412Y-36811557D01*
X73097816Y-36715051D01*
X73130019Y-36691654D01*
X73269786Y-36590109D01*
X73269788Y-36590106D01*
X73269792Y-36590104D01*
X73420104Y-36439792D01*
X73420106Y-36439788D01*
X73420109Y-36439786D01*
X73529086Y-36289789D01*
X73545051Y-36267816D01*
X73549514Y-36259054D01*
X73597488Y-36208259D01*
X73665308Y-36191463D01*
X73731444Y-36213999D01*
X73770486Y-36259056D01*
X73774951Y-36267820D01*
X73899890Y-36439786D01*
X74050213Y-36590109D01*
X74222179Y-36715048D01*
X74222181Y-36715049D01*
X74222184Y-36715051D01*
X74411588Y-36811557D01*
X74613757Y-36877246D01*
X74823713Y-36910500D01*
X74823714Y-36910500D01*
X75036286Y-36910500D01*
X75036287Y-36910500D01*
X75246243Y-36877246D01*
X75448412Y-36811557D01*
X75637816Y-36715051D01*
X75670019Y-36691654D01*
X75809786Y-36590109D01*
X75809788Y-36590106D01*
X75809792Y-36590104D01*
X75960104Y-36439792D01*
X75960106Y-36439788D01*
X75960109Y-36439786D01*
X76069086Y-36289789D01*
X76085051Y-36267816D01*
X76089514Y-36259054D01*
X76137488Y-36208259D01*
X76205308Y-36191463D01*
X76271444Y-36213999D01*
X76310486Y-36259056D01*
X76314951Y-36267820D01*
X76439890Y-36439786D01*
X76590213Y-36590109D01*
X76762179Y-36715048D01*
X76762181Y-36715049D01*
X76762184Y-36715051D01*
X76951588Y-36811557D01*
X77153757Y-36877246D01*
X77363713Y-36910500D01*
X77363714Y-36910500D01*
X77576286Y-36910500D01*
X77576287Y-36910500D01*
X77786243Y-36877246D01*
X77988412Y-36811557D01*
X78177816Y-36715051D01*
X78210019Y-36691654D01*
X78349786Y-36590109D01*
X78349788Y-36590106D01*
X78349792Y-36590104D01*
X78500104Y-36439792D01*
X78500106Y-36439788D01*
X78500109Y-36439786D01*
X78609086Y-36289789D01*
X78625051Y-36267816D01*
X78629514Y-36259054D01*
X78677488Y-36208259D01*
X78745308Y-36191463D01*
X78811444Y-36213999D01*
X78850486Y-36259056D01*
X78854951Y-36267820D01*
X78979890Y-36439786D01*
X79130213Y-36590109D01*
X79302179Y-36715048D01*
X79302181Y-36715049D01*
X79302184Y-36715051D01*
X79491588Y-36811557D01*
X79693757Y-36877246D01*
X79903713Y-36910500D01*
X79903714Y-36910500D01*
X80116286Y-36910500D01*
X80116287Y-36910500D01*
X80326243Y-36877246D01*
X80528412Y-36811557D01*
X80717816Y-36715051D01*
X80750019Y-36691654D01*
X80889786Y-36590109D01*
X80889788Y-36590106D01*
X80889792Y-36590104D01*
X81040104Y-36439792D01*
X81040106Y-36439788D01*
X81040109Y-36439786D01*
X81149086Y-36289789D01*
X81165051Y-36267816D01*
X81169514Y-36259054D01*
X81217488Y-36208259D01*
X81285308Y-36191463D01*
X81351444Y-36213999D01*
X81390486Y-36259056D01*
X81394951Y-36267820D01*
X81519890Y-36439786D01*
X81670213Y-36590109D01*
X81842179Y-36715048D01*
X81842181Y-36715049D01*
X81842184Y-36715051D01*
X82031588Y-36811557D01*
X82233757Y-36877246D01*
X82443713Y-36910500D01*
X82443714Y-36910500D01*
X82656286Y-36910500D01*
X82656287Y-36910500D01*
X82866243Y-36877246D01*
X83068412Y-36811557D01*
X83257816Y-36715051D01*
X83290019Y-36691654D01*
X83429786Y-36590109D01*
X83429788Y-36590106D01*
X83429792Y-36590104D01*
X83580104Y-36439792D01*
X83580106Y-36439788D01*
X83580109Y-36439786D01*
X83647515Y-36347007D01*
X83705051Y-36267816D01*
X83709793Y-36258508D01*
X83757763Y-36207711D01*
X83825583Y-36190911D01*
X83891719Y-36213445D01*
X83930763Y-36258500D01*
X83935377Y-36267555D01*
X84060272Y-36439459D01*
X84060276Y-36439464D01*
X84210535Y-36589723D01*
X84210540Y-36589727D01*
X84382442Y-36714620D01*
X84571782Y-36811095D01*
X84773871Y-36876757D01*
X84840000Y-36887231D01*
X84840000Y-35993012D01*
X84897007Y-36025925D01*
X85024174Y-36060000D01*
X85155826Y-36060000D01*
X85282993Y-36025925D01*
X85340000Y-35993012D01*
X85340000Y-36887230D01*
X85406126Y-36876757D01*
X85406129Y-36876757D01*
X85608217Y-36811095D01*
X85797557Y-36714620D01*
X85969459Y-36589727D01*
X85969464Y-36589723D01*
X86119723Y-36439464D01*
X86119727Y-36439459D01*
X86244620Y-36267557D01*
X86341095Y-36078217D01*
X86406757Y-35876129D01*
X86406757Y-35876126D01*
X86417231Y-35810000D01*
X85523012Y-35810000D01*
X85555925Y-35752993D01*
X85590000Y-35625826D01*
X85590000Y-35494174D01*
X85555925Y-35367007D01*
X85523012Y-35310000D01*
X86417231Y-35310000D01*
X86406757Y-35243873D01*
X86406757Y-35243870D01*
X86341095Y-35041782D01*
X86244620Y-34852442D01*
X86119727Y-34680540D01*
X86119723Y-34680535D01*
X85969464Y-34530276D01*
X85969459Y-34530272D01*
X85797557Y-34405379D01*
X85608215Y-34308903D01*
X85406124Y-34243241D01*
X85340000Y-34232768D01*
X85340000Y-35126988D01*
X85282993Y-35094075D01*
X85155826Y-35060000D01*
X85024174Y-35060000D01*
X84897007Y-35094075D01*
X84840000Y-35126988D01*
X84840000Y-34232768D01*
X84839999Y-34232768D01*
X84773875Y-34243241D01*
X84571784Y-34308903D01*
X84382442Y-34405379D01*
X84210540Y-34530272D01*
X84210535Y-34530276D01*
X84060276Y-34680535D01*
X84060272Y-34680540D01*
X83935378Y-34852443D01*
X83930762Y-34861502D01*
X83882784Y-34912295D01*
X83814963Y-34929087D01*
X83748829Y-34906546D01*
X83709794Y-34861493D01*
X83705051Y-34852184D01*
X83705049Y-34852181D01*
X83705048Y-34852179D01*
X83580109Y-34680213D01*
X83429786Y-34529890D01*
X83257820Y-34404951D01*
X83068414Y-34308444D01*
X83068413Y-34308443D01*
X83068412Y-34308443D01*
X82866243Y-34242754D01*
X82866241Y-34242753D01*
X82866240Y-34242753D01*
X82704957Y-34217208D01*
X82656287Y-34209500D01*
X82443713Y-34209500D01*
X82395042Y-34217208D01*
X82233760Y-34242753D01*
X82031585Y-34308444D01*
X81842179Y-34404951D01*
X81670213Y-34529890D01*
X81519890Y-34680213D01*
X81394949Y-34852182D01*
X81390484Y-34860946D01*
X81342509Y-34911742D01*
X81274688Y-34928536D01*
X81208553Y-34905998D01*
X81169516Y-34860946D01*
X81165050Y-34852182D01*
X81040109Y-34680213D01*
X80889786Y-34529890D01*
X80717820Y-34404951D01*
X80528414Y-34308444D01*
X80528413Y-34308443D01*
X80528412Y-34308443D01*
X80326243Y-34242754D01*
X80326241Y-34242753D01*
X80326240Y-34242753D01*
X80164957Y-34217208D01*
X80116287Y-34209500D01*
X79903713Y-34209500D01*
X79855042Y-34217208D01*
X79693760Y-34242753D01*
X79491585Y-34308444D01*
X79302179Y-34404951D01*
X79130213Y-34529890D01*
X78979890Y-34680213D01*
X78854949Y-34852182D01*
X78850484Y-34860946D01*
X78802509Y-34911742D01*
X78734688Y-34928536D01*
X78668553Y-34905998D01*
X78629516Y-34860946D01*
X78625050Y-34852182D01*
X78500109Y-34680213D01*
X78349786Y-34529890D01*
X78177820Y-34404951D01*
X77988414Y-34308444D01*
X77988413Y-34308443D01*
X77988412Y-34308443D01*
X77786243Y-34242754D01*
X77786241Y-34242753D01*
X77786240Y-34242753D01*
X77624957Y-34217208D01*
X77576287Y-34209500D01*
X77363713Y-34209500D01*
X77315042Y-34217208D01*
X77153760Y-34242753D01*
X76951585Y-34308444D01*
X76762179Y-34404951D01*
X76590213Y-34529890D01*
X76439890Y-34680213D01*
X76314949Y-34852182D01*
X76310484Y-34860946D01*
X76262509Y-34911742D01*
X76194688Y-34928536D01*
X76128553Y-34905998D01*
X76089516Y-34860946D01*
X76085050Y-34852182D01*
X75960109Y-34680213D01*
X75809786Y-34529890D01*
X75637820Y-34404951D01*
X75448414Y-34308444D01*
X75448413Y-34308443D01*
X75448412Y-34308443D01*
X75246243Y-34242754D01*
X75246241Y-34242753D01*
X75246240Y-34242753D01*
X75084957Y-34217208D01*
X75036287Y-34209500D01*
X74823713Y-34209500D01*
X74775042Y-34217208D01*
X74613760Y-34242753D01*
X74411585Y-34308444D01*
X74222179Y-34404951D01*
X74050213Y-34529890D01*
X73899890Y-34680213D01*
X73774949Y-34852182D01*
X73770484Y-34860946D01*
X73722509Y-34911742D01*
X73654688Y-34928536D01*
X73588553Y-34905998D01*
X73549516Y-34860946D01*
X73545050Y-34852182D01*
X73420109Y-34680213D01*
X73269786Y-34529890D01*
X73097820Y-34404951D01*
X72908414Y-34308444D01*
X72908413Y-34308443D01*
X72908412Y-34308443D01*
X72706243Y-34242754D01*
X72706241Y-34242753D01*
X72706240Y-34242753D01*
X72544957Y-34217208D01*
X72496287Y-34209500D01*
X72283713Y-34209500D01*
X72235042Y-34217208D01*
X72073760Y-34242753D01*
X71871585Y-34308444D01*
X71682179Y-34404951D01*
X71510213Y-34529890D01*
X71359890Y-34680213D01*
X71234949Y-34852182D01*
X71230484Y-34860946D01*
X71182509Y-34911742D01*
X71114688Y-34928536D01*
X71048553Y-34905998D01*
X71009516Y-34860946D01*
X71005050Y-34852182D01*
X70880109Y-34680213D01*
X70729786Y-34529890D01*
X70557820Y-34404951D01*
X70368414Y-34308444D01*
X70368413Y-34308443D01*
X70368412Y-34308443D01*
X70166243Y-34242754D01*
X70166241Y-34242753D01*
X70166240Y-34242753D01*
X70004957Y-34217208D01*
X69956287Y-34209500D01*
X69743713Y-34209500D01*
X69695042Y-34217208D01*
X69533760Y-34242753D01*
X69331585Y-34308444D01*
X69142179Y-34404951D01*
X68970213Y-34529890D01*
X68819890Y-34680213D01*
X68694949Y-34852182D01*
X68690484Y-34860946D01*
X68642509Y-34911742D01*
X68574688Y-34928536D01*
X68508553Y-34905998D01*
X68469516Y-34860946D01*
X68465050Y-34852182D01*
X68340109Y-34680213D01*
X68189786Y-34529890D01*
X68017820Y-34404951D01*
X67828414Y-34308444D01*
X67828413Y-34308443D01*
X67828412Y-34308443D01*
X67626243Y-34242754D01*
X67626241Y-34242753D01*
X67626240Y-34242753D01*
X67464957Y-34217208D01*
X67416287Y-34209500D01*
X67203713Y-34209500D01*
X67155042Y-34217208D01*
X66993760Y-34242753D01*
X66791585Y-34308444D01*
X66602179Y-34404951D01*
X66430213Y-34529890D01*
X66279890Y-34680213D01*
X66154949Y-34852182D01*
X66150484Y-34860946D01*
X66102509Y-34911742D01*
X66034688Y-34928536D01*
X65968553Y-34905998D01*
X65929516Y-34860946D01*
X65925050Y-34852182D01*
X65800109Y-34680213D01*
X65649786Y-34529890D01*
X65477820Y-34404951D01*
X65288414Y-34308444D01*
X65288413Y-34308443D01*
X65288412Y-34308443D01*
X65086243Y-34242754D01*
X65086241Y-34242753D01*
X65086240Y-34242753D01*
X64924957Y-34217208D01*
X64876287Y-34209500D01*
X64663713Y-34209500D01*
X64615042Y-34217208D01*
X64453760Y-34242753D01*
X64251585Y-34308444D01*
X64062179Y-34404951D01*
X63890213Y-34529890D01*
X63739890Y-34680213D01*
X63614949Y-34852182D01*
X63610484Y-34860946D01*
X63562509Y-34911742D01*
X63494688Y-34928536D01*
X63428553Y-34905998D01*
X63389516Y-34860946D01*
X63385050Y-34852182D01*
X63260109Y-34680213D01*
X63109786Y-34529890D01*
X62937820Y-34404951D01*
X62748414Y-34308444D01*
X62748413Y-34308443D01*
X62748412Y-34308443D01*
X62546243Y-34242754D01*
X62546241Y-34242753D01*
X62546240Y-34242753D01*
X62384957Y-34217208D01*
X62336287Y-34209500D01*
X62123713Y-34209500D01*
X62075042Y-34217208D01*
X61913760Y-34242753D01*
X61711585Y-34308444D01*
X61522179Y-34404951D01*
X61350213Y-34529890D01*
X61199890Y-34680213D01*
X61074949Y-34852182D01*
X61070484Y-34860946D01*
X61022509Y-34911742D01*
X60954688Y-34928536D01*
X60888553Y-34905998D01*
X60849516Y-34860946D01*
X60845050Y-34852182D01*
X60720109Y-34680213D01*
X60569786Y-34529890D01*
X60397820Y-34404951D01*
X60208414Y-34308444D01*
X60208413Y-34308443D01*
X60208412Y-34308443D01*
X60006243Y-34242754D01*
X60006241Y-34242753D01*
X60006240Y-34242753D01*
X59844957Y-34217208D01*
X59796287Y-34209500D01*
X59583713Y-34209500D01*
X59535042Y-34217208D01*
X59373760Y-34242753D01*
X59171585Y-34308444D01*
X58982179Y-34404951D01*
X58810213Y-34529890D01*
X58659890Y-34680213D01*
X58534949Y-34852182D01*
X58530202Y-34861499D01*
X58482227Y-34912293D01*
X58414405Y-34929087D01*
X58348271Y-34906548D01*
X58309234Y-34861495D01*
X58304622Y-34852444D01*
X58179727Y-34680540D01*
X58179723Y-34680535D01*
X58029464Y-34530276D01*
X58029459Y-34530272D01*
X57857557Y-34405379D01*
X57668215Y-34308903D01*
X57466124Y-34243241D01*
X57400000Y-34232768D01*
X57400000Y-35126988D01*
X57342993Y-35094075D01*
X57215826Y-35060000D01*
X57084174Y-35060000D01*
X56957007Y-35094075D01*
X56900000Y-35126988D01*
X56900000Y-34232768D01*
X56899999Y-34232768D01*
X56833875Y-34243241D01*
X56631784Y-34308903D01*
X56442442Y-34405379D01*
X56270540Y-34530272D01*
X56270535Y-34530276D01*
X56120276Y-34680535D01*
X56120272Y-34680540D01*
X55995378Y-34852443D01*
X55990762Y-34861502D01*
X55942784Y-34912295D01*
X55874963Y-34929087D01*
X55808829Y-34906546D01*
X55769794Y-34861493D01*
X55765051Y-34852184D01*
X55765049Y-34852181D01*
X55765048Y-34852179D01*
X55640109Y-34680213D01*
X55489786Y-34529890D01*
X55317820Y-34404951D01*
X55128414Y-34308444D01*
X55128413Y-34308443D01*
X55128412Y-34308443D01*
X54926243Y-34242754D01*
X54926241Y-34242753D01*
X54926240Y-34242753D01*
X54764957Y-34217208D01*
X54716287Y-34209500D01*
X54503713Y-34209500D01*
X54455042Y-34217208D01*
X54293760Y-34242753D01*
X54091585Y-34308444D01*
X53902179Y-34404951D01*
X53730213Y-34529890D01*
X53579890Y-34680213D01*
X53454949Y-34852182D01*
X53450484Y-34860946D01*
X53402509Y-34911742D01*
X53334688Y-34928536D01*
X53268553Y-34905998D01*
X53229516Y-34860946D01*
X53225050Y-34852182D01*
X53100109Y-34680213D01*
X52949786Y-34529890D01*
X52777820Y-34404951D01*
X52588414Y-34308444D01*
X52588413Y-34308443D01*
X52588412Y-34308443D01*
X52386243Y-34242754D01*
X52386241Y-34242753D01*
X52386240Y-34242753D01*
X52224957Y-34217208D01*
X52176287Y-34209500D01*
X51963713Y-34209500D01*
X51915042Y-34217208D01*
X51753760Y-34242753D01*
X51551585Y-34308444D01*
X51362179Y-34404951D01*
X51190213Y-34529890D01*
X51039890Y-34680213D01*
X50914949Y-34852182D01*
X50910484Y-34860946D01*
X50862509Y-34911742D01*
X50794688Y-34928536D01*
X50728553Y-34905998D01*
X50689516Y-34860946D01*
X50685050Y-34852182D01*
X50560109Y-34680213D01*
X50409786Y-34529890D01*
X50237820Y-34404951D01*
X50048414Y-34308444D01*
X50048413Y-34308443D01*
X50048412Y-34308443D01*
X49846243Y-34242754D01*
X49846241Y-34242753D01*
X49846240Y-34242753D01*
X49684957Y-34217208D01*
X49636287Y-34209500D01*
X49423713Y-34209500D01*
X49375042Y-34217208D01*
X49213760Y-34242753D01*
X49011585Y-34308444D01*
X48822179Y-34404951D01*
X48650215Y-34529889D01*
X48536285Y-34643819D01*
X48474962Y-34677303D01*
X48405270Y-34672319D01*
X48349337Y-34630447D01*
X48332422Y-34599470D01*
X48283354Y-34467913D01*
X48283350Y-34467906D01*
X48197190Y-34352812D01*
X48197187Y-34352809D01*
X48082093Y-34266649D01*
X48082086Y-34266645D01*
X47947379Y-34216403D01*
X47947372Y-34216401D01*
X47887844Y-34210000D01*
X47240000Y-34210000D01*
X47240000Y-35126988D01*
X47182993Y-35094075D01*
X47055826Y-35060000D01*
X46924174Y-35060000D01*
X46797007Y-35094075D01*
X46740000Y-35126988D01*
X46740000Y-34210000D01*
X46092155Y-34210000D01*
X46032627Y-34216401D01*
X46032620Y-34216403D01*
X45897913Y-34266645D01*
X45897906Y-34266649D01*
X45782812Y-34352809D01*
X45782809Y-34352812D01*
X45696649Y-34467906D01*
X45696645Y-34467913D01*
X45646403Y-34602620D01*
X45646401Y-34602627D01*
X45640000Y-34662155D01*
X41271882Y-34662155D01*
X41258107Y-34628899D01*
X41258102Y-34628889D01*
X41258101Y-34628887D01*
X41120415Y-34390409D01*
X41007489Y-34243241D01*
X40952779Y-34171941D01*
X40952773Y-34171934D01*
X40758064Y-33977225D01*
X40758057Y-33977219D01*
X40539598Y-33809590D01*
X40539596Y-33809589D01*
X40539590Y-33809584D01*
X40439655Y-33751886D01*
X40391441Y-33701320D01*
X40378219Y-33632712D01*
X40404187Y-33567848D01*
X40461101Y-33527320D01*
X40501657Y-33520500D01*
X132218342Y-33520500D01*
X132285381Y-33540185D01*
G37*
%TD.AperFunction*%
%TD*%
%TA.AperFunction,Conductor*%
%TO.N,GND*%
G36*
X67239079Y-101345785D02*
G01*
X67284834Y-101398589D01*
X67294778Y-101467747D01*
X67265753Y-101531303D01*
X67206975Y-101569077D01*
X67191438Y-101572573D01*
X67005582Y-101602009D01*
X66810968Y-101665244D01*
X66628644Y-101758143D01*
X66584077Y-101790523D01*
X66584077Y-101790524D01*
X67263554Y-102470000D01*
X67257339Y-102470000D01*
X67155606Y-102497259D01*
X67064394Y-102549920D01*
X66989920Y-102624394D01*
X66937259Y-102715606D01*
X66910000Y-102817339D01*
X66910000Y-102823553D01*
X66230524Y-102144077D01*
X66230523Y-102144077D01*
X66198143Y-102188644D01*
X66150765Y-102281630D01*
X66102790Y-102332426D01*
X66034969Y-102349221D01*
X65968834Y-102326683D01*
X65929795Y-102281630D01*
X65923865Y-102269991D01*
X65882287Y-102188390D01*
X65882285Y-102188387D01*
X65882284Y-102188385D01*
X65761971Y-102022786D01*
X65617213Y-101878028D01*
X65451613Y-101757715D01*
X65451612Y-101757714D01*
X65451610Y-101757713D01*
X65390967Y-101726814D01*
X65269223Y-101664781D01*
X65074534Y-101601522D01*
X64892309Y-101572661D01*
X64891752Y-101572572D01*
X64828618Y-101542644D01*
X64791687Y-101483332D01*
X64792685Y-101413470D01*
X64831295Y-101355237D01*
X64895259Y-101327123D01*
X64911151Y-101326100D01*
X67172040Y-101326100D01*
X67239079Y-101345785D01*
G37*
%TD.AperFunction*%
%TA.AperFunction,Conductor*%
G36*
X69342940Y-101335045D02*
G01*
X69373838Y-101342348D01*
X69376221Y-101344818D01*
X69379514Y-101345785D01*
X69400304Y-101369778D01*
X69422352Y-101392629D01*
X69423895Y-101397003D01*
X69425269Y-101398589D01*
X69434093Y-101425913D01*
X69437498Y-101443034D01*
X69431268Y-101512625D01*
X69403561Y-101554902D01*
X68659990Y-102298473D01*
X68598667Y-102331958D01*
X68528975Y-102326974D01*
X68473042Y-102285102D01*
X68461824Y-102267086D01*
X68421861Y-102188652D01*
X68389474Y-102144077D01*
X68389474Y-102144076D01*
X67710000Y-102823551D01*
X67710000Y-102817339D01*
X67682741Y-102715606D01*
X67630080Y-102624394D01*
X67555606Y-102549920D01*
X67464394Y-102497259D01*
X67362661Y-102470000D01*
X67356446Y-102470000D01*
X68035922Y-101790524D01*
X68035921Y-101790523D01*
X67991359Y-101758147D01*
X67991350Y-101758141D01*
X67809031Y-101665244D01*
X67614417Y-101602009D01*
X67428562Y-101572573D01*
X67365427Y-101542644D01*
X67328496Y-101483332D01*
X67329494Y-101413470D01*
X67368104Y-101355237D01*
X67432068Y-101327123D01*
X67447960Y-101326100D01*
X69312475Y-101326100D01*
X69342940Y-101335045D01*
G37*
%TD.AperFunction*%
%TA.AperFunction,Conductor*%
G36*
X57075888Y-101345785D02*
G01*
X57121643Y-101398589D01*
X57131587Y-101467747D01*
X57102562Y-101531303D01*
X57043784Y-101569077D01*
X57028249Y-101572572D01*
X57027691Y-101572661D01*
X56845465Y-101601522D01*
X56650776Y-101664781D01*
X56468386Y-101757715D01*
X56302786Y-101878028D01*
X56158028Y-102022786D01*
X56037715Y-102188386D01*
X55990485Y-102281080D01*
X55942510Y-102331876D01*
X55874689Y-102348671D01*
X55808554Y-102326134D01*
X55769515Y-102281080D01*
X55751601Y-102245922D01*
X55722287Y-102188390D01*
X55690092Y-102144077D01*
X55601971Y-102022786D01*
X55457213Y-101878028D01*
X55291613Y-101757715D01*
X55291612Y-101757714D01*
X55291610Y-101757713D01*
X55230967Y-101726814D01*
X55109223Y-101664781D01*
X54914534Y-101601522D01*
X54732309Y-101572661D01*
X54731752Y-101572572D01*
X54668618Y-101542644D01*
X54631687Y-101483332D01*
X54632685Y-101413470D01*
X54671295Y-101355237D01*
X54735259Y-101327123D01*
X54751151Y-101326100D01*
X57008849Y-101326100D01*
X57075888Y-101345785D01*
G37*
%TD.AperFunction*%
%TA.AperFunction,Conductor*%
G36*
X59573385Y-101333304D02*
G01*
X59598744Y-101336582D01*
X59606349Y-101342984D01*
X59615888Y-101345785D01*
X59632633Y-101365110D01*
X59652196Y-101381578D01*
X59655132Y-101391075D01*
X59661643Y-101398589D01*
X59665282Y-101423900D01*
X59672836Y-101448329D01*
X59670171Y-101457905D01*
X59671587Y-101467747D01*
X59660963Y-101491009D01*
X59654111Y-101515643D01*
X59646692Y-101522259D01*
X59642562Y-101531303D01*
X59621048Y-101545128D01*
X59601966Y-101562147D01*
X59587706Y-101566555D01*
X59583784Y-101569077D01*
X59568249Y-101572572D01*
X59567691Y-101572661D01*
X59385465Y-101601522D01*
X59190776Y-101664781D01*
X59008386Y-101757715D01*
X58842786Y-101878028D01*
X58698028Y-102022786D01*
X58577715Y-102188386D01*
X58530485Y-102281080D01*
X58482510Y-102331876D01*
X58414689Y-102348671D01*
X58348554Y-102326134D01*
X58309515Y-102281080D01*
X58291601Y-102245922D01*
X58262287Y-102188390D01*
X58230092Y-102144077D01*
X58141971Y-102022786D01*
X57997213Y-101878028D01*
X57831613Y-101757715D01*
X57831612Y-101757714D01*
X57831610Y-101757713D01*
X57770967Y-101726814D01*
X57649223Y-101664781D01*
X57454534Y-101601522D01*
X57272309Y-101572661D01*
X57271752Y-101572572D01*
X57208618Y-101542644D01*
X57171687Y-101483332D01*
X57172685Y-101413470D01*
X57211295Y-101355237D01*
X57275259Y-101327123D01*
X57291151Y-101326100D01*
X59548849Y-101326100D01*
X59573385Y-101333304D01*
G37*
%TD.AperFunction*%
%TA.AperFunction,Conductor*%
G36*
X62155888Y-101345785D02*
G01*
X62201643Y-101398589D01*
X62211587Y-101467747D01*
X62182562Y-101531303D01*
X62123784Y-101569077D01*
X62108249Y-101572572D01*
X62107691Y-101572661D01*
X61925465Y-101601522D01*
X61730776Y-101664781D01*
X61548386Y-101757715D01*
X61382786Y-101878028D01*
X61238028Y-102022786D01*
X61117715Y-102188386D01*
X61070485Y-102281080D01*
X61022510Y-102331876D01*
X60954689Y-102348671D01*
X60888554Y-102326134D01*
X60849515Y-102281080D01*
X60831601Y-102245922D01*
X60802287Y-102188390D01*
X60770092Y-102144077D01*
X60681971Y-102022786D01*
X60537213Y-101878028D01*
X60371613Y-101757715D01*
X60371612Y-101757714D01*
X60371610Y-101757713D01*
X60310967Y-101726814D01*
X60189223Y-101664781D01*
X59994534Y-101601522D01*
X59812309Y-101572661D01*
X59811752Y-101572572D01*
X59748618Y-101542644D01*
X59711687Y-101483332D01*
X59712685Y-101413470D01*
X59751295Y-101355237D01*
X59815259Y-101327123D01*
X59831151Y-101326100D01*
X62088849Y-101326100D01*
X62155888Y-101345785D01*
G37*
%TD.AperFunction*%
%TA.AperFunction,Conductor*%
G36*
X64653385Y-101333304D02*
G01*
X64678744Y-101336582D01*
X64686349Y-101342984D01*
X64695888Y-101345785D01*
X64712633Y-101365110D01*
X64732196Y-101381578D01*
X64735132Y-101391075D01*
X64741643Y-101398589D01*
X64745282Y-101423900D01*
X64752836Y-101448329D01*
X64750171Y-101457905D01*
X64751587Y-101467747D01*
X64740963Y-101491009D01*
X64734111Y-101515643D01*
X64726692Y-101522259D01*
X64722562Y-101531303D01*
X64701048Y-101545128D01*
X64681966Y-101562147D01*
X64667706Y-101566555D01*
X64663784Y-101569077D01*
X64648249Y-101572572D01*
X64647691Y-101572661D01*
X64465465Y-101601522D01*
X64270776Y-101664781D01*
X64088386Y-101757715D01*
X63922786Y-101878028D01*
X63778028Y-102022786D01*
X63657715Y-102188386D01*
X63610485Y-102281080D01*
X63562510Y-102331876D01*
X63494689Y-102348671D01*
X63428554Y-102326134D01*
X63389515Y-102281080D01*
X63371601Y-102245922D01*
X63342287Y-102188390D01*
X63310092Y-102144077D01*
X63221971Y-102022786D01*
X63077213Y-101878028D01*
X62911613Y-101757715D01*
X62911612Y-101757714D01*
X62911610Y-101757713D01*
X62850967Y-101726814D01*
X62729223Y-101664781D01*
X62534534Y-101601522D01*
X62352309Y-101572661D01*
X62351752Y-101572572D01*
X62288618Y-101542644D01*
X62251687Y-101483332D01*
X62252685Y-101413470D01*
X62291295Y-101355237D01*
X62355259Y-101327123D01*
X62371151Y-101326100D01*
X64628849Y-101326100D01*
X64653385Y-101333304D01*
G37*
%TD.AperFunction*%
%TA.AperFunction,Conductor*%
G36*
X85960000Y-95302661D02*
G01*
X85987259Y-95404394D01*
X86039920Y-95495606D01*
X86114394Y-95570080D01*
X86205606Y-95622741D01*
X86307339Y-95650000D01*
X86313553Y-95650000D01*
X85634076Y-96329474D01*
X85634848Y-96339271D01*
X85620484Y-96407648D01*
X85571432Y-96457405D01*
X85511230Y-96473000D01*
X84730861Y-96473000D01*
X84663822Y-96453315D01*
X84618067Y-96400511D01*
X84608123Y-96331353D01*
X84637148Y-96267797D01*
X84657978Y-96248680D01*
X84662022Y-96245742D01*
X84667219Y-96241966D01*
X84811966Y-96097219D01*
X84811968Y-96097215D01*
X84811971Y-96097213D01*
X84927014Y-95938868D01*
X84932287Y-95931610D01*
X84979795Y-95838369D01*
X85027769Y-95787573D01*
X85095590Y-95770778D01*
X85161725Y-95793315D01*
X85200765Y-95838369D01*
X85248141Y-95931350D01*
X85248147Y-95931359D01*
X85280523Y-95975921D01*
X85280524Y-95975922D01*
X85960000Y-95296446D01*
X85960000Y-95302661D01*
G37*
%TD.AperFunction*%
%TA.AperFunction,Conductor*%
G36*
X87439474Y-95975921D02*
G01*
X87471861Y-95931347D01*
X87471861Y-95931346D01*
X87519234Y-95838371D01*
X87567208Y-95787575D01*
X87635028Y-95770779D01*
X87701164Y-95793316D01*
X87740203Y-95838369D01*
X87787713Y-95931611D01*
X87908028Y-96097213D01*
X88052782Y-96241967D01*
X88062022Y-96248680D01*
X88104689Y-96304009D01*
X88110670Y-96373622D01*
X88078065Y-96435418D01*
X88017227Y-96469777D01*
X87989139Y-96473000D01*
X87208769Y-96473000D01*
X87141730Y-96453315D01*
X87095975Y-96400511D01*
X87085151Y-96339271D01*
X87085922Y-96329474D01*
X86406447Y-95650000D01*
X86412661Y-95650000D01*
X86514394Y-95622741D01*
X86605606Y-95570080D01*
X86680080Y-95495606D01*
X86732741Y-95404394D01*
X86760000Y-95302661D01*
X86760000Y-95296447D01*
X87439474Y-95975921D01*
G37*
%TD.AperFunction*%
%TA.AperFunction,Conductor*%
G36*
X63609817Y-85193785D02*
G01*
X63655572Y-85246589D01*
X63664395Y-85273909D01*
X63695561Y-85430589D01*
X63695564Y-85430601D01*
X63755902Y-85576272D01*
X63755909Y-85576285D01*
X63843510Y-85707388D01*
X63843513Y-85707392D01*
X63955007Y-85818886D01*
X63955011Y-85818889D01*
X64086114Y-85906490D01*
X64086127Y-85906497D01*
X64134171Y-85926397D01*
X64231803Y-85966837D01*
X64386453Y-85997599D01*
X64386456Y-85997600D01*
X64386458Y-85997600D01*
X64544144Y-85997600D01*
X64544145Y-85997599D01*
X64698797Y-85966837D01*
X64844479Y-85906494D01*
X64945807Y-85838789D01*
X64976175Y-85818498D01*
X65042853Y-85797620D01*
X65045066Y-85797600D01*
X83627003Y-85797600D01*
X83694042Y-85817285D01*
X83714684Y-85833919D01*
X86594741Y-88713977D01*
X86628226Y-88775300D01*
X86623242Y-88844992D01*
X86581370Y-88900925D01*
X86515906Y-88925342D01*
X86487662Y-88924131D01*
X86458422Y-88919500D01*
X86458417Y-88919500D01*
X86261583Y-88919500D01*
X86261578Y-88919500D01*
X86067173Y-88950290D01*
X85879970Y-89011117D01*
X85704594Y-89100476D01*
X85621180Y-89161081D01*
X85545354Y-89216172D01*
X85545352Y-89216174D01*
X85545351Y-89216174D01*
X85406174Y-89355351D01*
X85406174Y-89355352D01*
X85406172Y-89355354D01*
X85356485Y-89423741D01*
X85290476Y-89514594D01*
X85201117Y-89689970D01*
X85140290Y-89877173D01*
X85109500Y-90071577D01*
X85109500Y-90268422D01*
X85141023Y-90467453D01*
X85132068Y-90536747D01*
X85106231Y-90574532D01*
X84877582Y-90803182D01*
X84816262Y-90836666D01*
X84789903Y-90839500D01*
X82509602Y-90839500D01*
X82442563Y-90819815D01*
X82399117Y-90771795D01*
X82392284Y-90758385D01*
X82271971Y-90592786D01*
X82127213Y-90448028D01*
X81961611Y-90327713D01*
X81907621Y-90300203D01*
X81856825Y-90252228D01*
X81840031Y-90184407D01*
X81862569Y-90118272D01*
X81907624Y-90079233D01*
X81961349Y-90051859D01*
X82005921Y-90019474D01*
X81326447Y-89340000D01*
X81332661Y-89340000D01*
X81434394Y-89312741D01*
X81525606Y-89260080D01*
X81600080Y-89185606D01*
X81652741Y-89094394D01*
X81680000Y-88992661D01*
X81680000Y-88986447D01*
X82359474Y-89665921D01*
X82391859Y-89621349D01*
X82484755Y-89439031D01*
X82547990Y-89244417D01*
X82580000Y-89042317D01*
X82580000Y-88837682D01*
X82547990Y-88635582D01*
X82484755Y-88440968D01*
X82391859Y-88258650D01*
X82359474Y-88214077D01*
X82359474Y-88214076D01*
X81680000Y-88893551D01*
X81680000Y-88887339D01*
X81652741Y-88785606D01*
X81600080Y-88694394D01*
X81525606Y-88619920D01*
X81434394Y-88567259D01*
X81332661Y-88540000D01*
X81326446Y-88540000D01*
X82005922Y-87860524D01*
X82005921Y-87860523D01*
X81961359Y-87828147D01*
X81961350Y-87828141D01*
X81779031Y-87735244D01*
X81584417Y-87672009D01*
X81382317Y-87640000D01*
X81177683Y-87640000D01*
X80975582Y-87672009D01*
X80780968Y-87735244D01*
X80598644Y-87828143D01*
X80554077Y-87860523D01*
X80554077Y-87860524D01*
X81233554Y-88540000D01*
X81227339Y-88540000D01*
X81125606Y-88567259D01*
X81034394Y-88619920D01*
X80959920Y-88694394D01*
X80907259Y-88785606D01*
X80880000Y-88887339D01*
X80880000Y-88893553D01*
X80200524Y-88214077D01*
X80200523Y-88214077D01*
X80168143Y-88258644D01*
X80075244Y-88440968D01*
X80012009Y-88635582D01*
X79980000Y-88837682D01*
X79980000Y-89042317D01*
X80012009Y-89244417D01*
X80075244Y-89439031D01*
X80168141Y-89621350D01*
X80168147Y-89621359D01*
X80200523Y-89665921D01*
X80200524Y-89665922D01*
X80880000Y-88986446D01*
X80880000Y-88992661D01*
X80907259Y-89094394D01*
X80959920Y-89185606D01*
X81034394Y-89260080D01*
X81125606Y-89312741D01*
X81227339Y-89340000D01*
X81233553Y-89340000D01*
X80554076Y-90019474D01*
X80598652Y-90051861D01*
X80652376Y-90079234D01*
X80703172Y-90127208D01*
X80719968Y-90195028D01*
X80697431Y-90261164D01*
X80652379Y-90300203D01*
X80598386Y-90327714D01*
X80432786Y-90448028D01*
X80288028Y-90592786D01*
X80167714Y-90758386D01*
X80134558Y-90823458D01*
X80112938Y-90846348D01*
X80092699Y-90870440D01*
X80089141Y-90871543D01*
X80086583Y-90874253D01*
X80056029Y-90881818D01*
X80025968Y-90891147D01*
X80021671Y-90890326D01*
X80018762Y-90891047D01*
X79990961Y-90886658D01*
X79978120Y-90883099D01*
X79973484Y-90880423D01*
X79821455Y-90839687D01*
X79820993Y-90839559D01*
X79791732Y-90821380D01*
X79762352Y-90803472D01*
X79761784Y-90802774D01*
X79761644Y-90802687D01*
X79761546Y-90802482D01*
X79753788Y-90792947D01*
X79655692Y-90657930D01*
X79655687Y-90657924D01*
X79522075Y-90524312D01*
X79522073Y-90524310D01*
X79369199Y-90413240D01*
X79200836Y-90327454D01*
X79021118Y-90269059D01*
X78834486Y-90239500D01*
X78834481Y-90239500D01*
X78645519Y-90239500D01*
X78645514Y-90239500D01*
X78458881Y-90269059D01*
X78279163Y-90327454D01*
X78110800Y-90413240D01*
X78023579Y-90476610D01*
X77957927Y-90524310D01*
X77957925Y-90524312D01*
X77957924Y-90524312D01*
X77824312Y-90657924D01*
X77824312Y-90657925D01*
X77824310Y-90657927D01*
X77776610Y-90723579D01*
X77713240Y-90810800D01*
X77627454Y-90979163D01*
X77569059Y-91158881D01*
X77539500Y-91345513D01*
X77539500Y-91534486D01*
X77569059Y-91721118D01*
X77627454Y-91900836D01*
X77677765Y-91999576D01*
X77713240Y-92069199D01*
X77824310Y-92222073D01*
X77957927Y-92355690D01*
X78110801Y-92466760D01*
X78190347Y-92507290D01*
X78279163Y-92552545D01*
X78279165Y-92552545D01*
X78279168Y-92552547D01*
X78375497Y-92583846D01*
X78458881Y-92610940D01*
X78645514Y-92640500D01*
X78645519Y-92640500D01*
X78834486Y-92640500D01*
X79021118Y-92610940D01*
X79046007Y-92602853D01*
X79200832Y-92552547D01*
X79369199Y-92466760D01*
X79522073Y-92355690D01*
X79525533Y-92352230D01*
X79586856Y-92318745D01*
X79656548Y-92323729D01*
X79700895Y-92352230D01*
X80635684Y-93287019D01*
X80669169Y-93348342D01*
X80664185Y-93418034D01*
X80622313Y-93473967D01*
X80556849Y-93498384D01*
X80548003Y-93498700D01*
X63467469Y-93498700D01*
X63467453Y-93498699D01*
X63459857Y-93498699D01*
X63301743Y-93498699D01*
X63187197Y-93529392D01*
X63149014Y-93539623D01*
X63109698Y-93562323D01*
X63109697Y-93562323D01*
X63012087Y-93618677D01*
X63012082Y-93618681D01*
X62900278Y-93730486D01*
X62674842Y-93955921D01*
X62613519Y-93989406D01*
X62548848Y-93986173D01*
X62534534Y-93981522D01*
X62358112Y-93953580D01*
X62332352Y-93949500D01*
X62127648Y-93949500D01*
X62103329Y-93953351D01*
X61925465Y-93981522D01*
X61730776Y-94044781D01*
X61548386Y-94137715D01*
X61382786Y-94258028D01*
X61382782Y-94258032D01*
X61365706Y-94275109D01*
X61304383Y-94308594D01*
X61234691Y-94303610D01*
X61190344Y-94275109D01*
X60690990Y-93775755D01*
X60690988Y-93775752D01*
X60572117Y-93656881D01*
X60572116Y-93656880D01*
X60485304Y-93606760D01*
X60485304Y-93606759D01*
X60485300Y-93606758D01*
X60435185Y-93577823D01*
X60282457Y-93536899D01*
X60124343Y-93536899D01*
X60116747Y-93536899D01*
X60116731Y-93536900D01*
X50729269Y-93536900D01*
X50729253Y-93536899D01*
X50721657Y-93536899D01*
X50563543Y-93536899D01*
X50468665Y-93562322D01*
X50410810Y-93577824D01*
X50360696Y-93606759D01*
X50360695Y-93606760D01*
X50317289Y-93631820D01*
X50273885Y-93656879D01*
X50273882Y-93656881D01*
X50162078Y-93768686D01*
X49974842Y-93955921D01*
X49913519Y-93989406D01*
X49848848Y-93986173D01*
X49834534Y-93981522D01*
X49658112Y-93953580D01*
X49632352Y-93949500D01*
X49439096Y-93949500D01*
X49372057Y-93929815D01*
X49326302Y-93877011D01*
X49316358Y-93807853D01*
X49345383Y-93744297D01*
X49351415Y-93737819D01*
X51743722Y-91345513D01*
X69919500Y-91345513D01*
X69919500Y-91534486D01*
X69949059Y-91721118D01*
X70007454Y-91900836D01*
X70057765Y-91999576D01*
X70093240Y-92069199D01*
X70204310Y-92222073D01*
X70337927Y-92355690D01*
X70490801Y-92466760D01*
X70570347Y-92507290D01*
X70659163Y-92552545D01*
X70659165Y-92552545D01*
X70659168Y-92552547D01*
X70755497Y-92583846D01*
X70838881Y-92610940D01*
X71025514Y-92640500D01*
X71025519Y-92640500D01*
X71214486Y-92640500D01*
X71401118Y-92610940D01*
X71426007Y-92602853D01*
X71580832Y-92552547D01*
X71749199Y-92466760D01*
X71902073Y-92355690D01*
X72035690Y-92222073D01*
X72146760Y-92069199D01*
X72232547Y-91900832D01*
X72290940Y-91721118D01*
X72320500Y-91534486D01*
X72320500Y-91345513D01*
X72290940Y-91158881D01*
X72241336Y-91006217D01*
X72232547Y-90979168D01*
X72232545Y-90979165D01*
X72232545Y-90979163D01*
X72185411Y-90886658D01*
X72146760Y-90810801D01*
X72035690Y-90657927D01*
X71902073Y-90524310D01*
X71749199Y-90413240D01*
X71580836Y-90327454D01*
X71401118Y-90269059D01*
X71214486Y-90239500D01*
X71214481Y-90239500D01*
X71025519Y-90239500D01*
X71025514Y-90239500D01*
X70838881Y-90269059D01*
X70659163Y-90327454D01*
X70490800Y-90413240D01*
X70403579Y-90476610D01*
X70337927Y-90524310D01*
X70337925Y-90524312D01*
X70337924Y-90524312D01*
X70204312Y-90657924D01*
X70204312Y-90657925D01*
X70204310Y-90657927D01*
X70156610Y-90723579D01*
X70093240Y-90810800D01*
X70007454Y-90979163D01*
X69949059Y-91158881D01*
X69919500Y-91345513D01*
X51743722Y-91345513D01*
X51836269Y-91252966D01*
X55269133Y-87820102D01*
X55702476Y-87386760D01*
X57878817Y-85210419D01*
X57940140Y-85176934D01*
X57966498Y-85174100D01*
X63542778Y-85174100D01*
X63609817Y-85193785D01*
G37*
%TD.AperFunction*%
%TA.AperFunction,Conductor*%
G36*
X40334756Y-54629685D02*
G01*
X40362704Y-54654292D01*
X40469014Y-54780986D01*
X40621216Y-54908700D01*
X40793284Y-55008043D01*
X40979988Y-55075998D01*
X41175657Y-55110500D01*
X41209108Y-55110500D01*
X47988861Y-55110500D01*
X48055900Y-55130185D01*
X48101655Y-55182989D01*
X48111599Y-55252147D01*
X48082574Y-55315703D01*
X48050861Y-55341887D01*
X47954016Y-55397800D01*
X47954000Y-55397811D01*
X47735541Y-55565440D01*
X47735534Y-55565446D01*
X47540825Y-55760155D01*
X47540819Y-55760162D01*
X47373190Y-55978621D01*
X47373184Y-55978630D01*
X47235496Y-56217110D01*
X47235494Y-56217114D01*
X47130115Y-56471521D01*
X47058843Y-56737515D01*
X47022899Y-57010526D01*
X47022899Y-57285915D01*
X47058843Y-57558926D01*
X47130115Y-57824920D01*
X47223879Y-58051286D01*
X47235496Y-58079331D01*
X47373184Y-58317812D01*
X47373189Y-58317818D01*
X47373190Y-58317820D01*
X47540819Y-58536279D01*
X47540825Y-58536286D01*
X47735534Y-58730995D01*
X47735540Y-58731000D01*
X47954009Y-58898637D01*
X48192490Y-59036325D01*
X48201809Y-59040185D01*
X48446900Y-59141705D01*
X48446901Y-59141705D01*
X48446903Y-59141706D01*
X48712894Y-59212978D01*
X48985913Y-59248922D01*
X48985920Y-59248922D01*
X49261280Y-59248922D01*
X49261287Y-59248922D01*
X49534306Y-59212978D01*
X49800297Y-59141706D01*
X50054710Y-59036325D01*
X50293191Y-58898637D01*
X50511660Y-58731000D01*
X50706379Y-58536281D01*
X50874016Y-58317812D01*
X51011704Y-58079331D01*
X51117085Y-57824918D01*
X51188357Y-57558927D01*
X51224301Y-57285908D01*
X51224301Y-57010534D01*
X51188357Y-56737515D01*
X51117085Y-56471524D01*
X51117084Y-56471521D01*
X51044507Y-56296304D01*
X51026220Y-56252155D01*
X53260000Y-56252155D01*
X53260000Y-56900000D01*
X54176988Y-56900000D01*
X54144075Y-56957007D01*
X54110000Y-57084174D01*
X54110000Y-57215826D01*
X54144075Y-57342993D01*
X54176988Y-57400000D01*
X53260000Y-57400000D01*
X53260000Y-58047844D01*
X53266401Y-58107372D01*
X53266403Y-58107379D01*
X53316645Y-58242086D01*
X53316649Y-58242093D01*
X53402809Y-58357187D01*
X53402812Y-58357190D01*
X53517906Y-58443350D01*
X53517913Y-58443354D01*
X53652620Y-58493596D01*
X53652627Y-58493598D01*
X53712155Y-58499999D01*
X53712172Y-58500000D01*
X54360000Y-58500000D01*
X54360000Y-57583012D01*
X54417007Y-57615925D01*
X54544174Y-57650000D01*
X54675826Y-57650000D01*
X54802993Y-57615925D01*
X54860000Y-57583012D01*
X54860000Y-58500000D01*
X55507828Y-58500000D01*
X55507844Y-58499999D01*
X55567372Y-58493598D01*
X55567379Y-58493596D01*
X55702086Y-58443354D01*
X55702093Y-58443350D01*
X55817187Y-58357190D01*
X55817190Y-58357187D01*
X55903350Y-58242093D01*
X55903354Y-58242086D01*
X55952422Y-58110529D01*
X55994293Y-58054595D01*
X56059757Y-58030178D01*
X56128030Y-58045030D01*
X56156285Y-58066181D01*
X56270213Y-58180109D01*
X56442179Y-58305048D01*
X56442181Y-58305049D01*
X56442184Y-58305051D01*
X56631588Y-58401557D01*
X56833757Y-58467246D01*
X57043713Y-58500500D01*
X57043714Y-58500500D01*
X57256286Y-58500500D01*
X57256287Y-58500500D01*
X57466243Y-58467246D01*
X57668412Y-58401557D01*
X57857816Y-58305051D01*
X57944471Y-58242093D01*
X58029786Y-58180109D01*
X58029788Y-58180106D01*
X58029792Y-58180104D01*
X58180104Y-58029792D01*
X58180106Y-58029788D01*
X58180109Y-58029786D01*
X58305048Y-57857820D01*
X58305047Y-57857820D01*
X58305051Y-57857816D01*
X58309514Y-57849054D01*
X58357488Y-57798259D01*
X58425308Y-57781463D01*
X58491444Y-57803999D01*
X58530486Y-57849056D01*
X58534951Y-57857820D01*
X58659890Y-58029786D01*
X58810213Y-58180109D01*
X58982179Y-58305048D01*
X58982181Y-58305049D01*
X58982184Y-58305051D01*
X59171588Y-58401557D01*
X59373757Y-58467246D01*
X59583713Y-58500500D01*
X59583714Y-58500500D01*
X59796286Y-58500500D01*
X59796287Y-58500500D01*
X60006243Y-58467246D01*
X60208412Y-58401557D01*
X60397816Y-58305051D01*
X60484471Y-58242093D01*
X60569787Y-58180108D01*
X60571546Y-58178606D01*
X60572353Y-58178244D01*
X60573734Y-58177241D01*
X60573944Y-58177530D01*
X60635303Y-58150027D01*
X60704390Y-58160456D01*
X60739770Y-58185205D01*
X76618939Y-74064374D01*
X76618949Y-74064385D01*
X76623279Y-74068715D01*
X76623280Y-74068716D01*
X76735084Y-74180520D01*
X76735086Y-74180521D01*
X76735090Y-74180524D01*
X76872009Y-74259573D01*
X76872016Y-74259577D01*
X76983819Y-74289534D01*
X77024742Y-74300500D01*
X77024743Y-74300500D01*
X129648456Y-74300500D01*
X129715495Y-74320185D01*
X129755846Y-74364787D01*
X129756550Y-74364356D01*
X129758845Y-74368102D01*
X129758943Y-74368210D01*
X129759095Y-74368508D01*
X129877103Y-74530932D01*
X130019068Y-74672897D01*
X130181492Y-74790905D01*
X130266007Y-74833967D01*
X130360373Y-74882050D01*
X130360375Y-74882050D01*
X130360378Y-74882052D01*
X130551320Y-74944093D01*
X130749616Y-74975500D01*
X130749617Y-74975500D01*
X130950383Y-74975500D01*
X130950384Y-74975500D01*
X131148680Y-74944093D01*
X131339622Y-74882052D01*
X131518508Y-74790905D01*
X131680932Y-74672897D01*
X131822897Y-74530932D01*
X131940905Y-74368508D01*
X132032052Y-74189622D01*
X132094093Y-73998680D01*
X132125500Y-73800384D01*
X132125500Y-73599616D01*
X132094093Y-73401320D01*
X132032052Y-73210378D01*
X132032050Y-73210375D01*
X132032050Y-73210373D01*
X131957051Y-73063181D01*
X131940905Y-73031492D01*
X131822897Y-72869068D01*
X131680932Y-72727103D01*
X131518508Y-72609095D01*
X131339626Y-72517949D01*
X131148680Y-72455907D01*
X130950384Y-72424500D01*
X130749616Y-72424500D01*
X130650468Y-72440203D01*
X130551319Y-72455907D01*
X130360373Y-72517949D01*
X130181491Y-72609095D01*
X130088822Y-72676423D01*
X130019068Y-72727103D01*
X130019066Y-72727105D01*
X130019065Y-72727105D01*
X129877105Y-72869065D01*
X129877105Y-72869066D01*
X129877103Y-72869068D01*
X129798431Y-72977350D01*
X129759094Y-73031493D01*
X129758943Y-73031790D01*
X129758853Y-73031884D01*
X129756550Y-73035644D01*
X129755760Y-73035160D01*
X129710971Y-73082588D01*
X129648456Y-73099500D01*
X77403897Y-73099500D01*
X77336858Y-73079815D01*
X77316216Y-73063181D01*
X74630170Y-70377135D01*
X132074500Y-70377135D01*
X132074500Y-72022870D01*
X132074501Y-72022876D01*
X132080908Y-72082483D01*
X132131202Y-72217328D01*
X132131206Y-72217335D01*
X132217452Y-72332544D01*
X132217455Y-72332547D01*
X132332664Y-72418793D01*
X132332671Y-72418797D01*
X132467517Y-72469091D01*
X132467516Y-72469091D01*
X132474444Y-72469835D01*
X132527127Y-72475500D01*
X134172872Y-72475499D01*
X134232483Y-72469091D01*
X134367331Y-72418796D01*
X134482546Y-72332546D01*
X134568796Y-72217331D01*
X134619091Y-72082483D01*
X134625500Y-72022873D01*
X134625499Y-70377128D01*
X134619091Y-70317517D01*
X134568796Y-70182669D01*
X134568795Y-70182668D01*
X134568793Y-70182664D01*
X134482547Y-70067455D01*
X134482544Y-70067452D01*
X134367335Y-69981206D01*
X134367328Y-69981202D01*
X134232482Y-69930908D01*
X134232483Y-69930908D01*
X134172883Y-69924501D01*
X134172881Y-69924500D01*
X134172873Y-69924500D01*
X134172865Y-69924500D01*
X133872096Y-69924500D01*
X133805057Y-69904815D01*
X133759302Y-69852011D01*
X133749358Y-69782853D01*
X133778383Y-69719297D01*
X133815801Y-69690015D01*
X133979199Y-69606760D01*
X134132073Y-69495690D01*
X134265690Y-69362073D01*
X134376760Y-69209199D01*
X134462547Y-69040832D01*
X134520940Y-68861118D01*
X134550500Y-68674486D01*
X134550500Y-68485513D01*
X134520940Y-68298881D01*
X134462545Y-68119163D01*
X134376759Y-67950800D01*
X134265690Y-67797927D01*
X134132073Y-67664310D01*
X133979199Y-67553240D01*
X133810836Y-67467454D01*
X133631118Y-67409059D01*
X133444486Y-67379500D01*
X133444481Y-67379500D01*
X133255519Y-67379500D01*
X133255514Y-67379500D01*
X133068881Y-67409059D01*
X132889163Y-67467454D01*
X132720800Y-67553240D01*
X132633579Y-67616610D01*
X132567927Y-67664310D01*
X132567925Y-67664312D01*
X132567924Y-67664312D01*
X132434312Y-67797924D01*
X132434312Y-67797925D01*
X132434310Y-67797927D01*
X132386610Y-67863579D01*
X132323240Y-67950800D01*
X132237454Y-68119163D01*
X132179059Y-68298881D01*
X132149500Y-68485513D01*
X132149500Y-68674486D01*
X132179059Y-68861118D01*
X132237454Y-69040836D01*
X132323240Y-69209199D01*
X132434310Y-69362073D01*
X132567927Y-69495690D01*
X132720801Y-69606760D01*
X132884199Y-69690015D01*
X132934995Y-69737989D01*
X132951790Y-69805810D01*
X132929253Y-69871945D01*
X132874538Y-69915397D01*
X132827904Y-69924500D01*
X132527130Y-69924500D01*
X132527123Y-69924501D01*
X132467516Y-69930908D01*
X132332671Y-69981202D01*
X132332664Y-69981206D01*
X132217455Y-70067452D01*
X132217452Y-70067455D01*
X132131206Y-70182664D01*
X132131202Y-70182671D01*
X132080908Y-70317517D01*
X132074501Y-70377116D01*
X132074501Y-70377123D01*
X132074500Y-70377135D01*
X74630170Y-70377135D01*
X62806943Y-58553908D01*
X62773458Y-58492585D01*
X62778442Y-58422893D01*
X62820314Y-58366960D01*
X62838329Y-58355742D01*
X62851182Y-58349193D01*
X62937816Y-58305051D01*
X63024471Y-58242093D01*
X63109786Y-58180109D01*
X63109788Y-58180106D01*
X63109792Y-58180104D01*
X63260104Y-58029792D01*
X63260106Y-58029788D01*
X63260109Y-58029786D01*
X63362134Y-57889359D01*
X63385051Y-57857816D01*
X63389793Y-57848508D01*
X63437763Y-57797711D01*
X63505583Y-57780911D01*
X63571719Y-57803445D01*
X63610763Y-57848500D01*
X63615377Y-57857555D01*
X63740272Y-58029459D01*
X63740276Y-58029464D01*
X63890535Y-58179723D01*
X63890540Y-58179727D01*
X64062442Y-58304620D01*
X64251782Y-58401095D01*
X64453871Y-58466757D01*
X64520000Y-58477231D01*
X64520000Y-57583012D01*
X64577007Y-57615925D01*
X64704174Y-57650000D01*
X64835826Y-57650000D01*
X64962993Y-57615925D01*
X65020000Y-57583012D01*
X65020000Y-58477230D01*
X65086126Y-58466757D01*
X65086129Y-58466757D01*
X65288217Y-58401095D01*
X65477557Y-58304620D01*
X65649459Y-58179727D01*
X65649464Y-58179723D01*
X65799723Y-58029464D01*
X65799727Y-58029459D01*
X65924620Y-57857558D01*
X65929232Y-57848507D01*
X65977205Y-57797709D01*
X66045025Y-57780912D01*
X66111161Y-57803447D01*
X66150204Y-57848504D01*
X66154949Y-57857817D01*
X66279890Y-58029786D01*
X66430213Y-58180109D01*
X66602179Y-58305048D01*
X66602181Y-58305049D01*
X66602184Y-58305051D01*
X66791588Y-58401557D01*
X66993757Y-58467246D01*
X67203713Y-58500500D01*
X67203714Y-58500500D01*
X67416286Y-58500500D01*
X67416287Y-58500500D01*
X67626243Y-58467246D01*
X67828412Y-58401557D01*
X68017816Y-58305051D01*
X68104471Y-58242093D01*
X68189787Y-58180108D01*
X68191546Y-58178606D01*
X68192353Y-58178244D01*
X68193734Y-58177241D01*
X68193944Y-58177530D01*
X68255303Y-58150027D01*
X68324390Y-58160456D01*
X68359770Y-58185205D01*
X70990939Y-60816374D01*
X70990949Y-60816385D01*
X70995279Y-60820715D01*
X70995280Y-60820716D01*
X71107084Y-60932520D01*
X71158645Y-60962288D01*
X71193895Y-60982639D01*
X71193897Y-60982641D01*
X71231951Y-61004611D01*
X71244015Y-61011577D01*
X71396743Y-61052500D01*
X71554857Y-61052500D01*
X88320234Y-61052500D01*
X88387273Y-61072185D01*
X88389125Y-61073398D01*
X88520814Y-61161390D01*
X88520827Y-61161397D01*
X88666498Y-61221735D01*
X88666503Y-61221737D01*
X88821153Y-61252499D01*
X88821156Y-61252500D01*
X88821158Y-61252500D01*
X88978844Y-61252500D01*
X88978845Y-61252499D01*
X89133497Y-61221737D01*
X89279179Y-61161394D01*
X89410289Y-61073789D01*
X89521789Y-60962289D01*
X89609394Y-60831179D01*
X89669737Y-60685497D01*
X89697605Y-60545397D01*
X89699413Y-60536309D01*
X89731798Y-60474398D01*
X89792514Y-60439824D01*
X89821030Y-60436500D01*
X101807234Y-60436500D01*
X101874273Y-60456185D01*
X101876125Y-60457398D01*
X102007814Y-60545390D01*
X102007827Y-60545397D01*
X102153498Y-60605735D01*
X102153503Y-60605737D01*
X102308153Y-60636499D01*
X102308156Y-60636500D01*
X102308158Y-60636500D01*
X102465844Y-60636500D01*
X102465845Y-60636499D01*
X102620497Y-60605737D01*
X102766179Y-60545394D01*
X102897289Y-60457789D01*
X103008789Y-60346289D01*
X103096394Y-60215179D01*
X103156737Y-60069497D01*
X103187500Y-59914842D01*
X103187500Y-59757158D01*
X103187500Y-59757155D01*
X103187499Y-59757153D01*
X103176358Y-59701142D01*
X103156737Y-59602503D01*
X103156735Y-59602498D01*
X103096397Y-59456827D01*
X103096390Y-59456814D01*
X103008789Y-59325711D01*
X103008786Y-59325707D01*
X102915260Y-59232181D01*
X102881775Y-59170858D01*
X102886759Y-59101166D01*
X102928631Y-59045233D01*
X102994095Y-59020816D01*
X103002941Y-59020500D01*
X118698903Y-59020500D01*
X118765942Y-59040185D01*
X118786584Y-59056819D01*
X121054139Y-61324374D01*
X121054149Y-61324385D01*
X121058479Y-61328715D01*
X121058480Y-61328716D01*
X121170284Y-61440520D01*
X121170286Y-61440521D01*
X121170290Y-61440524D01*
X121307209Y-61519573D01*
X121307216Y-61519577D01*
X121419019Y-61549534D01*
X121459942Y-61560500D01*
X121459943Y-61560500D01*
X132239208Y-61560500D01*
X132306247Y-61580185D01*
X132339524Y-61611612D01*
X132434310Y-61742073D01*
X132567927Y-61875690D01*
X132720801Y-61986760D01*
X132800347Y-62027290D01*
X132889163Y-62072545D01*
X132889165Y-62072545D01*
X132889168Y-62072547D01*
X132985497Y-62103846D01*
X133068881Y-62130940D01*
X133255514Y-62160500D01*
X133255519Y-62160500D01*
X133444486Y-62160500D01*
X133631118Y-62130940D01*
X133810832Y-62072547D01*
X133979199Y-61986760D01*
X134132073Y-61875690D01*
X134265690Y-61742073D01*
X134376760Y-61589199D01*
X134462547Y-61420832D01*
X134520940Y-61241118D01*
X134550500Y-61054486D01*
X134550500Y-60865513D01*
X134520940Y-60678881D01*
X134477567Y-60545394D01*
X134462547Y-60499168D01*
X134462545Y-60499165D01*
X134462545Y-60499163D01*
X134391383Y-60359500D01*
X134376760Y-60330801D01*
X134265690Y-60177927D01*
X134132073Y-60044310D01*
X133979199Y-59933240D01*
X133943091Y-59914842D01*
X133810836Y-59847454D01*
X133631118Y-59789059D01*
X133444486Y-59759500D01*
X133444481Y-59759500D01*
X133255519Y-59759500D01*
X133255514Y-59759500D01*
X133068881Y-59789059D01*
X132889163Y-59847454D01*
X132720800Y-59933240D01*
X132633579Y-59996610D01*
X132567927Y-60044310D01*
X132567925Y-60044312D01*
X132567924Y-60044312D01*
X132434312Y-60177924D01*
X132434312Y-60177925D01*
X132434310Y-60177927D01*
X132339526Y-60308386D01*
X132284196Y-60351051D01*
X132239208Y-60359500D01*
X121839097Y-60359500D01*
X121772058Y-60339815D01*
X121751416Y-60323181D01*
X119486590Y-58058355D01*
X119486588Y-58058352D01*
X119367717Y-57939481D01*
X119367716Y-57939480D01*
X119280904Y-57889360D01*
X119280904Y-57889359D01*
X119280900Y-57889358D01*
X119230785Y-57860423D01*
X119078057Y-57819499D01*
X118919943Y-57819499D01*
X118912347Y-57819499D01*
X118912331Y-57819500D01*
X94082612Y-57819500D01*
X94015573Y-57799815D01*
X93969818Y-57747011D01*
X93959874Y-57677853D01*
X93964681Y-57657182D01*
X94026757Y-57466129D01*
X94026757Y-57466126D01*
X94037231Y-57400000D01*
X93143012Y-57400000D01*
X93175925Y-57342993D01*
X93210000Y-57215826D01*
X93210000Y-57084174D01*
X93175925Y-56957007D01*
X93143012Y-56900000D01*
X94037231Y-56900000D01*
X94026757Y-56833873D01*
X94026757Y-56833870D01*
X93961095Y-56631782D01*
X93864620Y-56442442D01*
X93739727Y-56270540D01*
X93739723Y-56270535D01*
X93589464Y-56120276D01*
X93589459Y-56120272D01*
X93417557Y-55995379D01*
X93228215Y-55898903D01*
X93026124Y-55833241D01*
X92960000Y-55822768D01*
X92960000Y-56716988D01*
X92902993Y-56684075D01*
X92775826Y-56650000D01*
X92644174Y-56650000D01*
X92517007Y-56684075D01*
X92460000Y-56716988D01*
X92460000Y-55822768D01*
X92459999Y-55822768D01*
X92393875Y-55833241D01*
X92191784Y-55898903D01*
X92002442Y-55995379D01*
X91830540Y-56120272D01*
X91830535Y-56120276D01*
X91680276Y-56270535D01*
X91680272Y-56270540D01*
X91555378Y-56442443D01*
X91550762Y-56451502D01*
X91502784Y-56502295D01*
X91434963Y-56519087D01*
X91368829Y-56496546D01*
X91329794Y-56451493D01*
X91325051Y-56442184D01*
X91325049Y-56442181D01*
X91325048Y-56442179D01*
X91200109Y-56270213D01*
X91049786Y-56119890D01*
X90877820Y-55994951D01*
X90688414Y-55898444D01*
X90688413Y-55898443D01*
X90688412Y-55898443D01*
X90486243Y-55832754D01*
X90486241Y-55832753D01*
X90486240Y-55832753D01*
X90324957Y-55807208D01*
X90276287Y-55799500D01*
X90063713Y-55799500D01*
X90015042Y-55807208D01*
X89853760Y-55832753D01*
X89651585Y-55898444D01*
X89462179Y-55994951D01*
X89290213Y-56119890D01*
X89139890Y-56270213D01*
X89014949Y-56442182D01*
X89010484Y-56450946D01*
X88962509Y-56501742D01*
X88894688Y-56518536D01*
X88828553Y-56495998D01*
X88789516Y-56450946D01*
X88785050Y-56442182D01*
X88660109Y-56270213D01*
X88509786Y-56119890D01*
X88337820Y-55994951D01*
X88148414Y-55898444D01*
X88148413Y-55898443D01*
X88148412Y-55898443D01*
X87946243Y-55832754D01*
X87946241Y-55832753D01*
X87946240Y-55832753D01*
X87784957Y-55807208D01*
X87736287Y-55799500D01*
X87523713Y-55799500D01*
X87475042Y-55807208D01*
X87313760Y-55832753D01*
X87111585Y-55898444D01*
X86922179Y-55994951D01*
X86750213Y-56119890D01*
X86599890Y-56270213D01*
X86474949Y-56442182D01*
X86470484Y-56450946D01*
X86422509Y-56501742D01*
X86354688Y-56518536D01*
X86288553Y-56495998D01*
X86249516Y-56450946D01*
X86245050Y-56442182D01*
X86120109Y-56270213D01*
X85969786Y-56119890D01*
X85797820Y-55994951D01*
X85608414Y-55898444D01*
X85608413Y-55898443D01*
X85608412Y-55898443D01*
X85406243Y-55832754D01*
X85406241Y-55832753D01*
X85406240Y-55832753D01*
X85244957Y-55807208D01*
X85196287Y-55799500D01*
X84983713Y-55799500D01*
X84935042Y-55807208D01*
X84773760Y-55832753D01*
X84571585Y-55898444D01*
X84382179Y-55994951D01*
X84210213Y-56119890D01*
X84059890Y-56270213D01*
X83934949Y-56442182D01*
X83930484Y-56450946D01*
X83882509Y-56501742D01*
X83814688Y-56518536D01*
X83748553Y-56495998D01*
X83709516Y-56450946D01*
X83705050Y-56442182D01*
X83580109Y-56270213D01*
X83429786Y-56119890D01*
X83257820Y-55994951D01*
X83068414Y-55898444D01*
X83068413Y-55898443D01*
X83068412Y-55898443D01*
X82866243Y-55832754D01*
X82866241Y-55832753D01*
X82866240Y-55832753D01*
X82704957Y-55807208D01*
X82656287Y-55799500D01*
X82443713Y-55799500D01*
X82395042Y-55807208D01*
X82233760Y-55832753D01*
X82031585Y-55898444D01*
X81842179Y-55994951D01*
X81670213Y-56119890D01*
X81519890Y-56270213D01*
X81394949Y-56442182D01*
X81390484Y-56450946D01*
X81342509Y-56501742D01*
X81274688Y-56518536D01*
X81208553Y-56495998D01*
X81169516Y-56450946D01*
X81165050Y-56442182D01*
X81040109Y-56270213D01*
X80889786Y-56119890D01*
X80717820Y-55994951D01*
X80528414Y-55898444D01*
X80528413Y-55898443D01*
X80528412Y-55898443D01*
X80326243Y-55832754D01*
X80326241Y-55832753D01*
X80326240Y-55832753D01*
X80164957Y-55807208D01*
X80116287Y-55799500D01*
X79903713Y-55799500D01*
X79855042Y-55807208D01*
X79693760Y-55832753D01*
X79491585Y-55898444D01*
X79302179Y-55994951D01*
X79130213Y-56119890D01*
X78979890Y-56270213D01*
X78854949Y-56442182D01*
X78850484Y-56450946D01*
X78802509Y-56501742D01*
X78734688Y-56518536D01*
X78668553Y-56495998D01*
X78629516Y-56450946D01*
X78625050Y-56442182D01*
X78500109Y-56270213D01*
X78349786Y-56119890D01*
X78177820Y-55994951D01*
X77988414Y-55898444D01*
X77988413Y-55898443D01*
X77988412Y-55898443D01*
X77786243Y-55832754D01*
X77786241Y-55832753D01*
X77786240Y-55832753D01*
X77624957Y-55807208D01*
X77576287Y-55799500D01*
X77363713Y-55799500D01*
X77315042Y-55807208D01*
X77153760Y-55832753D01*
X76951585Y-55898444D01*
X76762179Y-55994951D01*
X76590213Y-56119890D01*
X76439890Y-56270213D01*
X76314949Y-56442182D01*
X76310484Y-56450946D01*
X76262509Y-56501742D01*
X76194688Y-56518536D01*
X76128553Y-56495998D01*
X76089516Y-56450946D01*
X76085050Y-56442182D01*
X75960109Y-56270213D01*
X75809786Y-56119890D01*
X75637820Y-55994951D01*
X75448414Y-55898444D01*
X75448413Y-55898443D01*
X75448412Y-55898443D01*
X75246243Y-55832754D01*
X75246241Y-55832753D01*
X75246240Y-55832753D01*
X75084957Y-55807208D01*
X75036287Y-55799500D01*
X74823713Y-55799500D01*
X74775042Y-55807208D01*
X74613760Y-55832753D01*
X74411585Y-55898444D01*
X74222179Y-55994951D01*
X74050213Y-56119890D01*
X73899890Y-56270213D01*
X73774949Y-56442182D01*
X73770484Y-56450946D01*
X73722509Y-56501742D01*
X73654688Y-56518536D01*
X73588553Y-56495998D01*
X73549516Y-56450946D01*
X73545050Y-56442182D01*
X73420109Y-56270213D01*
X73269786Y-56119890D01*
X73097820Y-55994951D01*
X72908414Y-55898444D01*
X72908413Y-55898443D01*
X72908412Y-55898443D01*
X72706243Y-55832754D01*
X72706241Y-55832753D01*
X72706240Y-55832753D01*
X72544957Y-55807208D01*
X72496287Y-55799500D01*
X72283713Y-55799500D01*
X72235042Y-55807208D01*
X72073760Y-55832753D01*
X71871585Y-55898444D01*
X71682179Y-55994951D01*
X71510213Y-56119890D01*
X71359890Y-56270213D01*
X71234949Y-56442182D01*
X71230484Y-56450946D01*
X71182509Y-56501742D01*
X71114688Y-56518536D01*
X71048553Y-56495998D01*
X71009516Y-56450946D01*
X71005050Y-56442182D01*
X70880109Y-56270213D01*
X70729786Y-56119890D01*
X70557820Y-55994951D01*
X70368414Y-55898444D01*
X70368413Y-55898443D01*
X70368412Y-55898443D01*
X70166243Y-55832754D01*
X70166241Y-55832753D01*
X70166240Y-55832753D01*
X70004957Y-55807208D01*
X69956287Y-55799500D01*
X69743713Y-55799500D01*
X69695042Y-55807208D01*
X69533760Y-55832753D01*
X69331585Y-55898444D01*
X69142179Y-55994951D01*
X68970213Y-56119890D01*
X68819890Y-56270213D01*
X68694949Y-56442182D01*
X68690484Y-56450946D01*
X68642509Y-56501742D01*
X68574688Y-56518536D01*
X68508553Y-56495998D01*
X68469516Y-56450946D01*
X68465050Y-56442182D01*
X68340109Y-56270213D01*
X68189786Y-56119890D01*
X68017820Y-55994951D01*
X67828414Y-55898444D01*
X67828413Y-55898443D01*
X67828412Y-55898443D01*
X67626243Y-55832754D01*
X67626241Y-55832753D01*
X67626240Y-55832753D01*
X67464957Y-55807208D01*
X67416287Y-55799500D01*
X67203713Y-55799500D01*
X67155042Y-55807208D01*
X66993760Y-55832753D01*
X66791585Y-55898444D01*
X66602179Y-55994951D01*
X66430213Y-56119890D01*
X66279890Y-56270213D01*
X66154949Y-56442182D01*
X66150202Y-56451499D01*
X66102227Y-56502293D01*
X66034405Y-56519087D01*
X65968271Y-56496548D01*
X65929234Y-56451495D01*
X65924622Y-56442444D01*
X65799727Y-56270540D01*
X65799723Y-56270535D01*
X65649464Y-56120276D01*
X65649459Y-56120272D01*
X65477557Y-55995379D01*
X65288215Y-55898903D01*
X65086124Y-55833241D01*
X65020000Y-55822768D01*
X65020000Y-56716988D01*
X64962993Y-56684075D01*
X64835826Y-56650000D01*
X64704174Y-56650000D01*
X64577007Y-56684075D01*
X64520000Y-56716988D01*
X64520000Y-55822768D01*
X64519999Y-55822768D01*
X64453875Y-55833241D01*
X64251784Y-55898903D01*
X64062442Y-55995379D01*
X63890540Y-56120272D01*
X63890535Y-56120276D01*
X63740276Y-56270535D01*
X63740272Y-56270540D01*
X63615378Y-56442443D01*
X63610762Y-56451502D01*
X63562784Y-56502295D01*
X63494963Y-56519087D01*
X63428829Y-56496546D01*
X63389794Y-56451493D01*
X63385051Y-56442184D01*
X63385049Y-56442181D01*
X63385048Y-56442179D01*
X63260109Y-56270213D01*
X63109786Y-56119890D01*
X62937820Y-55994951D01*
X62748414Y-55898444D01*
X62748413Y-55898443D01*
X62748412Y-55898443D01*
X62546243Y-55832754D01*
X62546241Y-55832753D01*
X62546240Y-55832753D01*
X62384957Y-55807208D01*
X62336287Y-55799500D01*
X62123713Y-55799500D01*
X62075042Y-55807208D01*
X61913760Y-55832753D01*
X61711585Y-55898444D01*
X61522179Y-55994951D01*
X61350213Y-56119890D01*
X61199890Y-56270213D01*
X61074949Y-56442182D01*
X61070484Y-56450946D01*
X61022509Y-56501742D01*
X60954688Y-56518536D01*
X60888553Y-56495998D01*
X60849516Y-56450946D01*
X60845050Y-56442182D01*
X60720109Y-56270213D01*
X60569786Y-56119890D01*
X60397820Y-55994951D01*
X60208414Y-55898444D01*
X60208413Y-55898443D01*
X60208412Y-55898443D01*
X60006243Y-55832754D01*
X60006241Y-55832753D01*
X60006240Y-55832753D01*
X59844957Y-55807208D01*
X59796287Y-55799500D01*
X59583713Y-55799500D01*
X59535042Y-55807208D01*
X59373760Y-55832753D01*
X59171585Y-55898444D01*
X58982179Y-55994951D01*
X58810213Y-56119890D01*
X58659890Y-56270213D01*
X58534949Y-56442182D01*
X58530484Y-56450946D01*
X58482509Y-56501742D01*
X58414688Y-56518536D01*
X58348553Y-56495998D01*
X58309516Y-56450946D01*
X58305050Y-56442182D01*
X58180109Y-56270213D01*
X58029786Y-56119890D01*
X57857820Y-55994951D01*
X57668414Y-55898444D01*
X57668413Y-55898443D01*
X57668412Y-55898443D01*
X57466243Y-55832754D01*
X57466241Y-55832753D01*
X57466240Y-55832753D01*
X57304957Y-55807208D01*
X57256287Y-55799500D01*
X57043713Y-55799500D01*
X56995042Y-55807208D01*
X56833760Y-55832753D01*
X56631585Y-55898444D01*
X56442179Y-55994951D01*
X56270215Y-56119889D01*
X56156285Y-56233819D01*
X56094962Y-56267303D01*
X56025270Y-56262319D01*
X55969337Y-56220447D01*
X55952422Y-56189470D01*
X55903354Y-56057913D01*
X55903350Y-56057906D01*
X55817190Y-55942812D01*
X55817187Y-55942809D01*
X55702093Y-55856649D01*
X55702086Y-55856645D01*
X55567379Y-55806403D01*
X55567372Y-55806401D01*
X55507844Y-55800000D01*
X54860000Y-55800000D01*
X54860000Y-56716988D01*
X54802993Y-56684075D01*
X54675826Y-56650000D01*
X54544174Y-56650000D01*
X54417007Y-56684075D01*
X54360000Y-56716988D01*
X54360000Y-55800000D01*
X53712155Y-55800000D01*
X53652627Y-55806401D01*
X53652620Y-55806403D01*
X53517913Y-55856645D01*
X53517906Y-55856649D01*
X53402812Y-55942809D01*
X53402809Y-55942812D01*
X53316649Y-56057906D01*
X53316645Y-56057913D01*
X53266403Y-56192620D01*
X53266401Y-56192627D01*
X53260000Y-56252155D01*
X51026220Y-56252155D01*
X51011705Y-56217114D01*
X51011704Y-56217111D01*
X50874016Y-55978630D01*
X50706379Y-55760161D01*
X50706374Y-55760155D01*
X50511665Y-55565446D01*
X50511658Y-55565440D01*
X50293199Y-55397811D01*
X50293197Y-55397809D01*
X50293191Y-55397805D01*
X50293186Y-55397802D01*
X50293183Y-55397800D01*
X50196339Y-55341887D01*
X50148123Y-55291320D01*
X50134901Y-55222713D01*
X50160869Y-55157848D01*
X50217783Y-55117320D01*
X50258339Y-55110500D01*
X55852341Y-55110500D01*
X55852343Y-55110500D01*
X56048012Y-55075998D01*
X56234716Y-55008043D01*
X56406784Y-54908700D01*
X56558986Y-54780986D01*
X56665294Y-54654293D01*
X56723465Y-54615592D01*
X56760283Y-54610000D01*
X59952717Y-54610000D01*
X60019756Y-54629685D01*
X60047704Y-54654292D01*
X60154014Y-54780986D01*
X60306216Y-54908700D01*
X60478284Y-55008043D01*
X60664988Y-55075998D01*
X60860657Y-55110500D01*
X60860659Y-55110500D01*
X83157341Y-55110500D01*
X83157343Y-55110500D01*
X83353012Y-55075998D01*
X83539716Y-55008043D01*
X83711784Y-54908700D01*
X83863986Y-54780986D01*
X83970294Y-54654293D01*
X84028465Y-54615592D01*
X84065283Y-54610000D01*
X86305217Y-54610000D01*
X86372256Y-54629685D01*
X86400204Y-54654292D01*
X86506514Y-54780986D01*
X86658716Y-54908700D01*
X86830784Y-55008043D01*
X87017488Y-55075998D01*
X87213157Y-55110500D01*
X87213159Y-55110500D01*
X108049341Y-55110500D01*
X108049343Y-55110500D01*
X108245012Y-55075998D01*
X108431716Y-55008043D01*
X108603784Y-54908700D01*
X108755986Y-54780986D01*
X108862294Y-54654293D01*
X108920465Y-54615592D01*
X108957283Y-54610000D01*
X112022717Y-54610000D01*
X112089756Y-54629685D01*
X112117704Y-54654292D01*
X112224014Y-54780986D01*
X112376216Y-54908700D01*
X112548284Y-55008043D01*
X112734988Y-55075998D01*
X112930657Y-55110500D01*
X112964108Y-55110500D01*
X122962581Y-55110500D01*
X123029620Y-55130185D01*
X123075375Y-55182989D01*
X123085319Y-55252147D01*
X123056294Y-55315703D01*
X123024581Y-55341887D01*
X122934811Y-55393715D01*
X122934795Y-55393726D01*
X122716334Y-55561356D01*
X122716327Y-55561362D01*
X122521617Y-55756072D01*
X122521611Y-55756079D01*
X122353981Y-55974540D01*
X122353970Y-55974556D01*
X122216290Y-56213023D01*
X122216282Y-56213040D01*
X122110908Y-56467437D01*
X122039632Y-56733440D01*
X122003690Y-57006447D01*
X122003689Y-57006463D01*
X122003689Y-57281826D01*
X122003690Y-57281842D01*
X122027951Y-57466126D01*
X122039633Y-57554853D01*
X122104404Y-57796581D01*
X122110908Y-57820852D01*
X122216282Y-58075249D01*
X122216290Y-58075266D01*
X122353970Y-58313733D01*
X122353981Y-58313749D01*
X122521611Y-58532210D01*
X122521617Y-58532217D01*
X122716327Y-58726927D01*
X122716334Y-58726933D01*
X122721636Y-58731001D01*
X122934804Y-58894570D01*
X122934811Y-58894574D01*
X123173278Y-59032254D01*
X123173283Y-59032256D01*
X123173286Y-59032258D01*
X123173290Y-59032259D01*
X123173295Y-59032262D01*
X123427692Y-59137636D01*
X123427694Y-59137636D01*
X123427700Y-59137639D01*
X123693692Y-59208912D01*
X123966712Y-59244856D01*
X123966719Y-59244856D01*
X124242081Y-59244856D01*
X124242088Y-59244856D01*
X124515108Y-59208912D01*
X124781100Y-59137639D01*
X125035514Y-59032258D01*
X125273996Y-58894570D01*
X125492467Y-58726932D01*
X125687187Y-58532212D01*
X125854825Y-58313741D01*
X125992513Y-58075259D01*
X126097894Y-57820845D01*
X126169167Y-57554853D01*
X126205111Y-57281833D01*
X126205111Y-57006457D01*
X126169167Y-56733437D01*
X126097894Y-56467445D01*
X126091290Y-56451502D01*
X125992517Y-56213040D01*
X125992509Y-56213023D01*
X125854829Y-55974556D01*
X125854825Y-55974549D01*
X125764358Y-55856649D01*
X125687188Y-55756079D01*
X125687182Y-55756072D01*
X125492472Y-55561362D01*
X125492465Y-55561356D01*
X125274004Y-55393726D01*
X125274002Y-55393724D01*
X125273996Y-55393720D01*
X125273991Y-55393717D01*
X125273988Y-55393715D01*
X125184219Y-55341887D01*
X125136003Y-55291320D01*
X125122781Y-55222713D01*
X125148749Y-55157848D01*
X125205663Y-55117320D01*
X125246219Y-55110500D01*
X133131841Y-55110500D01*
X133131843Y-55110500D01*
X133327512Y-55075998D01*
X133514216Y-55008043D01*
X133686284Y-54908700D01*
X133838486Y-54780986D01*
X133944794Y-54654293D01*
X134002965Y-54615592D01*
X134039783Y-54610000D01*
X135265500Y-54610000D01*
X135332539Y-54629685D01*
X135378294Y-54682489D01*
X135389500Y-54734000D01*
X135389500Y-89038343D01*
X135369815Y-89105382D01*
X135317011Y-89151137D01*
X135247853Y-89161081D01*
X135184297Y-89132056D01*
X135158113Y-89100343D01*
X135137699Y-89064985D01*
X135100416Y-89000409D01*
X134932778Y-88781940D01*
X134932771Y-88781933D01*
X134932769Y-88781930D01*
X134738068Y-88587229D01*
X134738063Y-88587225D01*
X134738059Y-88587221D01*
X134519590Y-88419583D01*
X134314370Y-88301099D01*
X134281111Y-88281897D01*
X134281097Y-88281890D01*
X134026695Y-88176514D01*
X133800956Y-88116028D01*
X133760706Y-88105243D01*
X133726578Y-88100750D01*
X133487694Y-88069299D01*
X133487687Y-88069299D01*
X133212313Y-88069299D01*
X133212305Y-88069299D01*
X132939294Y-88105243D01*
X132673304Y-88176514D01*
X132418902Y-88281890D01*
X132418888Y-88281897D01*
X132180416Y-88419579D01*
X132180412Y-88419581D01*
X132180410Y-88419583D01*
X131961943Y-88587220D01*
X131961931Y-88587229D01*
X131767230Y-88781930D01*
X131767223Y-88781938D01*
X131767222Y-88781940D01*
X131600074Y-88999771D01*
X131599585Y-89000408D01*
X131599580Y-89000415D01*
X131461898Y-89238887D01*
X131461891Y-89238901D01*
X131356515Y-89493303D01*
X131285244Y-89759293D01*
X131249300Y-90032304D01*
X131249300Y-90307693D01*
X131285244Y-90580704D01*
X131356515Y-90846694D01*
X131461891Y-91101096D01*
X131461898Y-91101110D01*
X131541888Y-91239656D01*
X131599584Y-91339589D01*
X131767222Y-91558058D01*
X131767226Y-91558062D01*
X131767230Y-91558067D01*
X131961931Y-91752768D01*
X131961935Y-91752771D01*
X131961941Y-91752777D01*
X132180410Y-91920415D01*
X132418891Y-92058102D01*
X132418896Y-92058104D01*
X132418902Y-92058107D01*
X132539850Y-92108205D01*
X132673303Y-92163483D01*
X132939294Y-92234755D01*
X133212313Y-92270699D01*
X133212320Y-92270699D01*
X133487680Y-92270699D01*
X133487687Y-92270699D01*
X133760706Y-92234755D01*
X134026697Y-92163483D01*
X134281109Y-92058102D01*
X134519590Y-91920415D01*
X134738059Y-91752777D01*
X134932778Y-91558058D01*
X135100416Y-91339589D01*
X135158114Y-91239653D01*
X135208680Y-91191439D01*
X135277287Y-91178215D01*
X135342151Y-91204183D01*
X135382680Y-91261097D01*
X135389500Y-91301654D01*
X135389500Y-109865500D01*
X135369815Y-109932539D01*
X135317011Y-109978294D01*
X135265500Y-109989500D01*
X37454500Y-109989500D01*
X37387461Y-109969815D01*
X37341706Y-109917011D01*
X37330500Y-109865500D01*
X37330500Y-102775513D01*
X38169500Y-102775513D01*
X38169500Y-102964486D01*
X38199059Y-103151118D01*
X38257454Y-103330836D01*
X38328372Y-103470019D01*
X38343240Y-103499199D01*
X38454310Y-103652073D01*
X38587927Y-103785690D01*
X38718386Y-103880474D01*
X38761051Y-103935803D01*
X38769500Y-103980791D01*
X38769500Y-107863330D01*
X38769499Y-107863348D01*
X38769499Y-108029054D01*
X38769498Y-108029054D01*
X38810423Y-108181785D01*
X38839358Y-108231900D01*
X38839359Y-108231904D01*
X38839360Y-108231904D01*
X38859119Y-108266129D01*
X38889479Y-108318714D01*
X38889481Y-108318717D01*
X39008349Y-108437585D01*
X39008355Y-108437590D01*
X40047139Y-109476374D01*
X40047149Y-109476385D01*
X40051479Y-109480715D01*
X40051480Y-109480716D01*
X40163284Y-109592520D01*
X40250095Y-109642639D01*
X40250097Y-109642641D01*
X40288151Y-109664611D01*
X40300215Y-109671577D01*
X40452943Y-109712500D01*
X64791331Y-109712500D01*
X64791347Y-109712501D01*
X64798943Y-109712501D01*
X64957054Y-109712501D01*
X64957057Y-109712501D01*
X65109785Y-109671577D01*
X65159904Y-109642639D01*
X65246716Y-109592520D01*
X65358520Y-109480716D01*
X65358520Y-109480714D01*
X65368728Y-109470507D01*
X65368730Y-109470504D01*
X65555478Y-109283755D01*
X65616799Y-109250272D01*
X65681473Y-109253506D01*
X65723757Y-109267246D01*
X65933713Y-109300500D01*
X65933714Y-109300500D01*
X66146286Y-109300500D01*
X66146287Y-109300500D01*
X66356243Y-109267246D01*
X66558412Y-109201557D01*
X66747816Y-109105051D01*
X66834138Y-109042335D01*
X66919786Y-108980109D01*
X66919788Y-108980106D01*
X66919792Y-108980104D01*
X67070104Y-108829792D01*
X67070106Y-108829788D01*
X67070109Y-108829786D01*
X67195048Y-108657820D01*
X67195051Y-108657816D01*
X67199793Y-108648508D01*
X67247763Y-108597711D01*
X67315583Y-108580911D01*
X67381719Y-108603445D01*
X67420763Y-108648500D01*
X67425377Y-108657555D01*
X67550272Y-108829459D01*
X67550276Y-108829464D01*
X67700535Y-108979723D01*
X67700540Y-108979727D01*
X67872442Y-109104620D01*
X68061782Y-109201095D01*
X68263871Y-109266757D01*
X68330000Y-109277231D01*
X68330000Y-108383012D01*
X68387007Y-108415925D01*
X68514174Y-108450000D01*
X68645826Y-108450000D01*
X68772993Y-108415925D01*
X68830000Y-108383012D01*
X68830000Y-109277230D01*
X68896126Y-109266757D01*
X68896129Y-109266757D01*
X69098217Y-109201095D01*
X69287557Y-109104620D01*
X69459459Y-108979727D01*
X69459464Y-108979723D01*
X69609723Y-108829464D01*
X69609727Y-108829459D01*
X69734620Y-108657557D01*
X69831095Y-108468217D01*
X69896757Y-108266129D01*
X69896757Y-108266126D01*
X69907231Y-108200000D01*
X69013012Y-108200000D01*
X69045925Y-108142993D01*
X69080000Y-108015826D01*
X69080000Y-107884174D01*
X69045925Y-107757007D01*
X69013012Y-107700000D01*
X69907231Y-107700000D01*
X69896757Y-107633873D01*
X69896757Y-107633870D01*
X69873346Y-107561818D01*
X69871351Y-107491977D01*
X69907431Y-107432144D01*
X69970132Y-107401316D01*
X69991277Y-107399500D01*
X78346770Y-107399500D01*
X78413809Y-107419185D01*
X78434451Y-107435819D01*
X78623181Y-107624549D01*
X78656666Y-107685872D01*
X78659500Y-107712230D01*
X78659500Y-108847870D01*
X78659501Y-108847876D01*
X78665908Y-108907483D01*
X78716202Y-109042328D01*
X78716206Y-109042335D01*
X78802452Y-109157544D01*
X78802455Y-109157547D01*
X78917664Y-109243793D01*
X78917671Y-109243797D01*
X79052517Y-109294091D01*
X79052516Y-109294091D01*
X79059444Y-109294835D01*
X79112127Y-109300500D01*
X80907872Y-109300499D01*
X80967483Y-109294091D01*
X81102331Y-109243796D01*
X81217546Y-109157546D01*
X81303796Y-109042331D01*
X81352810Y-108910916D01*
X81394681Y-108854984D01*
X81460145Y-108830566D01*
X81528418Y-108845417D01*
X81556673Y-108866569D01*
X81670213Y-108980109D01*
X81842179Y-109105048D01*
X81842181Y-109105049D01*
X81842184Y-109105051D01*
X82031588Y-109201557D01*
X82233757Y-109267246D01*
X82443713Y-109300500D01*
X82443714Y-109300500D01*
X82656286Y-109300500D01*
X82656287Y-109300500D01*
X82866243Y-109267246D01*
X83068412Y-109201557D01*
X83257816Y-109105051D01*
X83344138Y-109042335D01*
X83429786Y-108980109D01*
X83429788Y-108980106D01*
X83429792Y-108980104D01*
X83580104Y-108829792D01*
X83580106Y-108829788D01*
X83580109Y-108829786D01*
X83705048Y-108657820D01*
X83705047Y-108657820D01*
X83705051Y-108657816D01*
X83709514Y-108649054D01*
X83757488Y-108598259D01*
X83825308Y-108581463D01*
X83891444Y-108603999D01*
X83930486Y-108649056D01*
X83934951Y-108657820D01*
X84059890Y-108829786D01*
X84210213Y-108980109D01*
X84382179Y-109105048D01*
X84382181Y-109105049D01*
X84382184Y-109105051D01*
X84571588Y-109201557D01*
X84773757Y-109267246D01*
X84983713Y-109300500D01*
X84983714Y-109300500D01*
X85196286Y-109300500D01*
X85196287Y-109300500D01*
X85406243Y-109267246D01*
X85608412Y-109201557D01*
X85797816Y-109105051D01*
X85884138Y-109042335D01*
X85969786Y-108980109D01*
X85969788Y-108980106D01*
X85969792Y-108980104D01*
X86120104Y-108829792D01*
X86120106Y-108829788D01*
X86120109Y-108829786D01*
X86245048Y-108657820D01*
X86245047Y-108657820D01*
X86245051Y-108657816D01*
X86249514Y-108649054D01*
X86297488Y-108598259D01*
X86365308Y-108581463D01*
X86431444Y-108603999D01*
X86470486Y-108649056D01*
X86474951Y-108657820D01*
X86599890Y-108829786D01*
X86750213Y-108980109D01*
X86922179Y-109105048D01*
X86922181Y-109105049D01*
X86922184Y-109105051D01*
X87111588Y-109201557D01*
X87313757Y-109267246D01*
X87523713Y-109300500D01*
X87523714Y-109300500D01*
X87736286Y-109300500D01*
X87736287Y-109300500D01*
X87946243Y-109267246D01*
X88148412Y-109201557D01*
X88337816Y-109105051D01*
X88424138Y-109042335D01*
X88509786Y-108980109D01*
X88509788Y-108980106D01*
X88509792Y-108980104D01*
X88660104Y-108829792D01*
X88660106Y-108829788D01*
X88660109Y-108829786D01*
X88785048Y-108657820D01*
X88785047Y-108657820D01*
X88785051Y-108657816D01*
X88789514Y-108649054D01*
X88837488Y-108598259D01*
X88905308Y-108581463D01*
X88971444Y-108603999D01*
X89010486Y-108649056D01*
X89014951Y-108657820D01*
X89139890Y-108829786D01*
X89290213Y-108980109D01*
X89462179Y-109105048D01*
X89462181Y-109105049D01*
X89462184Y-109105051D01*
X89651588Y-109201557D01*
X89853757Y-109267246D01*
X90063713Y-109300500D01*
X90063714Y-109300500D01*
X90276286Y-109300500D01*
X90276287Y-109300500D01*
X90486243Y-109267246D01*
X90688412Y-109201557D01*
X90877816Y-109105051D01*
X90964138Y-109042335D01*
X91049786Y-108980109D01*
X91049788Y-108980106D01*
X91049792Y-108980104D01*
X91200104Y-108829792D01*
X91200106Y-108829788D01*
X91200109Y-108829786D01*
X91325048Y-108657820D01*
X91325051Y-108657816D01*
X91329793Y-108648508D01*
X91377763Y-108597711D01*
X91445583Y-108580911D01*
X91511719Y-108603445D01*
X91550763Y-108648500D01*
X91555377Y-108657555D01*
X91680272Y-108829459D01*
X91680276Y-108829464D01*
X91830535Y-108979723D01*
X91830540Y-108979727D01*
X92002442Y-109104620D01*
X92191782Y-109201095D01*
X92393871Y-109266757D01*
X92460000Y-109277231D01*
X92460000Y-108383012D01*
X92517007Y-108415925D01*
X92644174Y-108450000D01*
X92775826Y-108450000D01*
X92902993Y-108415925D01*
X92960000Y-108383012D01*
X92960000Y-109277230D01*
X93026126Y-109266757D01*
X93026129Y-109266757D01*
X93228217Y-109201095D01*
X93417557Y-109104620D01*
X93589459Y-108979727D01*
X93589464Y-108979723D01*
X93739723Y-108829464D01*
X93739727Y-108829459D01*
X93864620Y-108657557D01*
X93961095Y-108468217D01*
X94026757Y-108266129D01*
X94026757Y-108266126D01*
X94037231Y-108200000D01*
X93143012Y-108200000D01*
X93175925Y-108142993D01*
X93210000Y-108015826D01*
X93210000Y-107884174D01*
X93175925Y-107757007D01*
X93143012Y-107700000D01*
X94037231Y-107700000D01*
X94026757Y-107633873D01*
X94026757Y-107633870D01*
X94003346Y-107561818D01*
X94001351Y-107491977D01*
X94037431Y-107432144D01*
X94100132Y-107401316D01*
X94121277Y-107399500D01*
X102476770Y-107399500D01*
X102543809Y-107419185D01*
X102564451Y-107435819D01*
X102753181Y-107624549D01*
X102786666Y-107685872D01*
X102789500Y-107712230D01*
X102789500Y-108847870D01*
X102789501Y-108847876D01*
X102795908Y-108907483D01*
X102846202Y-109042328D01*
X102846206Y-109042335D01*
X102932452Y-109157544D01*
X102932455Y-109157547D01*
X103047664Y-109243793D01*
X103047671Y-109243797D01*
X103182517Y-109294091D01*
X103182516Y-109294091D01*
X103189444Y-109294835D01*
X103242127Y-109300500D01*
X105037872Y-109300499D01*
X105097483Y-109294091D01*
X105232331Y-109243796D01*
X105347546Y-109157546D01*
X105433796Y-109042331D01*
X105482810Y-108910916D01*
X105524681Y-108854984D01*
X105590145Y-108830566D01*
X105658418Y-108845417D01*
X105686673Y-108866569D01*
X105800213Y-108980109D01*
X105972179Y-109105048D01*
X105972181Y-109105049D01*
X105972184Y-109105051D01*
X106161588Y-109201557D01*
X106363757Y-109267246D01*
X106573713Y-109300500D01*
X106573714Y-109300500D01*
X106786286Y-109300500D01*
X106786287Y-109300500D01*
X106996243Y-109267246D01*
X107198412Y-109201557D01*
X107387816Y-109105051D01*
X107474138Y-109042335D01*
X107559786Y-108980109D01*
X107559788Y-108980106D01*
X107559792Y-108980104D01*
X107710104Y-108829792D01*
X107710106Y-108829788D01*
X107710109Y-108829786D01*
X107835048Y-108657820D01*
X107835047Y-108657820D01*
X107835051Y-108657816D01*
X107839514Y-108649054D01*
X107887488Y-108598259D01*
X107955308Y-108581463D01*
X108021444Y-108603999D01*
X108060486Y-108649056D01*
X108064951Y-108657820D01*
X108189890Y-108829786D01*
X108340213Y-108980109D01*
X108512179Y-109105048D01*
X108512181Y-109105049D01*
X108512184Y-109105051D01*
X108701588Y-109201557D01*
X108903757Y-109267246D01*
X109113713Y-109300500D01*
X109113714Y-109300500D01*
X109326286Y-109300500D01*
X109326287Y-109300500D01*
X109536243Y-109267246D01*
X109738412Y-109201557D01*
X109927816Y-109105051D01*
X110014138Y-109042335D01*
X110099786Y-108980109D01*
X110099788Y-108980106D01*
X110099792Y-108980104D01*
X110250104Y-108829792D01*
X110250106Y-108829788D01*
X110250109Y-108829786D01*
X110375048Y-108657820D01*
X110375047Y-108657820D01*
X110375051Y-108657816D01*
X110379514Y-108649054D01*
X110427488Y-108598259D01*
X110495308Y-108581463D01*
X110561444Y-108603999D01*
X110600486Y-108649056D01*
X110604951Y-108657820D01*
X110729890Y-108829786D01*
X110880213Y-108980109D01*
X111052179Y-109105048D01*
X111052181Y-109105049D01*
X111052184Y-109105051D01*
X111241588Y-109201557D01*
X111443757Y-109267246D01*
X111653713Y-109300500D01*
X111653714Y-109300500D01*
X111866286Y-109300500D01*
X111866287Y-109300500D01*
X112076243Y-109267246D01*
X112278412Y-109201557D01*
X112467816Y-109105051D01*
X112554138Y-109042335D01*
X112639786Y-108980109D01*
X112639788Y-108980106D01*
X112639792Y-108980104D01*
X112790104Y-108829792D01*
X112790106Y-108829788D01*
X112790109Y-108829786D01*
X112915048Y-108657820D01*
X112915047Y-108657820D01*
X112915051Y-108657816D01*
X112919514Y-108649054D01*
X112967488Y-108598259D01*
X113035308Y-108581463D01*
X113101444Y-108603999D01*
X113140486Y-108649056D01*
X113144951Y-108657820D01*
X113269890Y-108829786D01*
X113420213Y-108980109D01*
X113592179Y-109105048D01*
X113592181Y-109105049D01*
X113592184Y-109105051D01*
X113781588Y-109201557D01*
X113983757Y-109267246D01*
X114193713Y-109300500D01*
X114193714Y-109300500D01*
X114406286Y-109300500D01*
X114406287Y-109300500D01*
X114616243Y-109267246D01*
X114818412Y-109201557D01*
X115007816Y-109105051D01*
X115094138Y-109042335D01*
X115179786Y-108980109D01*
X115179788Y-108980106D01*
X115179792Y-108980104D01*
X115330104Y-108829792D01*
X115330106Y-108829788D01*
X115330109Y-108829786D01*
X115455048Y-108657820D01*
X115455047Y-108657820D01*
X115455051Y-108657816D01*
X115459514Y-108649054D01*
X115507488Y-108598259D01*
X115575308Y-108581463D01*
X115641444Y-108603999D01*
X115680486Y-108649056D01*
X115684951Y-108657820D01*
X115809890Y-108829786D01*
X115960213Y-108980109D01*
X116132179Y-109105048D01*
X116132181Y-109105049D01*
X116132184Y-109105051D01*
X116321588Y-109201557D01*
X116523757Y-109267246D01*
X116733713Y-109300500D01*
X116733714Y-109300500D01*
X116946286Y-109300500D01*
X116946287Y-109300500D01*
X117156243Y-109267246D01*
X117358412Y-109201557D01*
X117547816Y-109105051D01*
X117634138Y-109042335D01*
X117719786Y-108980109D01*
X117719788Y-108980106D01*
X117719792Y-108980104D01*
X117870104Y-108829792D01*
X117870106Y-108829788D01*
X117870109Y-108829786D01*
X117995048Y-108657820D01*
X117995047Y-108657820D01*
X117995051Y-108657816D01*
X117999514Y-108649054D01*
X118047488Y-108598259D01*
X118115308Y-108581463D01*
X118181444Y-108603999D01*
X118220486Y-108649056D01*
X118224951Y-108657820D01*
X118349890Y-108829786D01*
X118500213Y-108980109D01*
X118672179Y-109105048D01*
X118672181Y-109105049D01*
X118672184Y-109105051D01*
X118861588Y-109201557D01*
X119063757Y-109267246D01*
X119273713Y-109300500D01*
X119273714Y-109300500D01*
X119486286Y-109300500D01*
X119486287Y-109300500D01*
X119696243Y-109267246D01*
X119898412Y-109201557D01*
X120087816Y-109105051D01*
X120174138Y-109042335D01*
X120259786Y-108980109D01*
X120259788Y-108980106D01*
X120259792Y-108980104D01*
X120410104Y-108829792D01*
X120410106Y-108829788D01*
X120410109Y-108829786D01*
X120535048Y-108657820D01*
X120535047Y-108657820D01*
X120535051Y-108657816D01*
X120539514Y-108649054D01*
X120587488Y-108598259D01*
X120655308Y-108581463D01*
X120721444Y-108603999D01*
X120760486Y-108649056D01*
X120764951Y-108657820D01*
X120889890Y-108829786D01*
X121040213Y-108980109D01*
X121212179Y-109105048D01*
X121212181Y-109105049D01*
X121212184Y-109105051D01*
X121401588Y-109201557D01*
X121603757Y-109267246D01*
X121813713Y-109300500D01*
X121813714Y-109300500D01*
X122026286Y-109300500D01*
X122026287Y-109300500D01*
X122236243Y-109267246D01*
X122438412Y-109201557D01*
X122627816Y-109105051D01*
X122714138Y-109042335D01*
X122799786Y-108980109D01*
X122799788Y-108980106D01*
X122799792Y-108980104D01*
X122950104Y-108829792D01*
X122950106Y-108829788D01*
X122950109Y-108829786D01*
X123075048Y-108657820D01*
X123075047Y-108657820D01*
X123075051Y-108657816D01*
X123079514Y-108649054D01*
X123127488Y-108598259D01*
X123195308Y-108581463D01*
X123261444Y-108603999D01*
X123300486Y-108649056D01*
X123304951Y-108657820D01*
X123429890Y-108829786D01*
X123580213Y-108980109D01*
X123752179Y-109105048D01*
X123752181Y-109105049D01*
X123752184Y-109105051D01*
X123941588Y-109201557D01*
X124143757Y-109267246D01*
X124353713Y-109300500D01*
X124353714Y-109300500D01*
X124566286Y-109300500D01*
X124566287Y-109300500D01*
X124776243Y-109267246D01*
X124978412Y-109201557D01*
X125167816Y-109105051D01*
X125254138Y-109042335D01*
X125339786Y-108980109D01*
X125339788Y-108980106D01*
X125339792Y-108980104D01*
X125490104Y-108829792D01*
X125490106Y-108829788D01*
X125490109Y-108829786D01*
X125615048Y-108657820D01*
X125615047Y-108657820D01*
X125615051Y-108657816D01*
X125619514Y-108649054D01*
X125667488Y-108598259D01*
X125735308Y-108581463D01*
X125801444Y-108603999D01*
X125840486Y-108649056D01*
X125844951Y-108657820D01*
X125969890Y-108829786D01*
X126120213Y-108980109D01*
X126292179Y-109105048D01*
X126292181Y-109105049D01*
X126292184Y-109105051D01*
X126481588Y-109201557D01*
X126683757Y-109267246D01*
X126893713Y-109300500D01*
X126893714Y-109300500D01*
X127106286Y-109300500D01*
X127106287Y-109300500D01*
X127316243Y-109267246D01*
X127518412Y-109201557D01*
X127707816Y-109105051D01*
X127794138Y-109042335D01*
X127879786Y-108980109D01*
X127879788Y-108980106D01*
X127879792Y-108980104D01*
X128030104Y-108829792D01*
X128030106Y-108829788D01*
X128030109Y-108829786D01*
X128155048Y-108657820D01*
X128155051Y-108657816D01*
X128159793Y-108648508D01*
X128207763Y-108597711D01*
X128275583Y-108580911D01*
X128341719Y-108603445D01*
X128380763Y-108648500D01*
X128385377Y-108657555D01*
X128510272Y-108829459D01*
X128510276Y-108829464D01*
X128660535Y-108979723D01*
X128660540Y-108979727D01*
X128832442Y-109104620D01*
X129021782Y-109201095D01*
X129223871Y-109266757D01*
X129290000Y-109277231D01*
X129290000Y-108383012D01*
X129347007Y-108415925D01*
X129474174Y-108450000D01*
X129605826Y-108450000D01*
X129732993Y-108415925D01*
X129790000Y-108383012D01*
X129790000Y-109277230D01*
X129856126Y-109266757D01*
X129856129Y-109266757D01*
X130058217Y-109201095D01*
X130247557Y-109104620D01*
X130419459Y-108979727D01*
X130419464Y-108979723D01*
X130569723Y-108829464D01*
X130569727Y-108829459D01*
X130694620Y-108657557D01*
X130791095Y-108468217D01*
X130856757Y-108266129D01*
X130856757Y-108266126D01*
X130867231Y-108200000D01*
X129973012Y-108200000D01*
X130005925Y-108142993D01*
X130040000Y-108015826D01*
X130040000Y-107884174D01*
X130005925Y-107757007D01*
X129973012Y-107700000D01*
X130867231Y-107700000D01*
X130856757Y-107633873D01*
X130856757Y-107633870D01*
X130791095Y-107431782D01*
X130694620Y-107242442D01*
X130569727Y-107070540D01*
X130569723Y-107070535D01*
X130419464Y-106920276D01*
X130419459Y-106920272D01*
X130247557Y-106795379D01*
X130058215Y-106698903D01*
X129856124Y-106633241D01*
X129790000Y-106622768D01*
X129790000Y-107516988D01*
X129732993Y-107484075D01*
X129605826Y-107450000D01*
X129474174Y-107450000D01*
X129347007Y-107484075D01*
X129290000Y-107516988D01*
X129290000Y-106622768D01*
X129289999Y-106622768D01*
X129223875Y-106633241D01*
X129021784Y-106698903D01*
X128832442Y-106795379D01*
X128660540Y-106920272D01*
X128660535Y-106920276D01*
X128510276Y-107070535D01*
X128510272Y-107070540D01*
X128385378Y-107242443D01*
X128380762Y-107251502D01*
X128332784Y-107302295D01*
X128264963Y-107319087D01*
X128198829Y-107296546D01*
X128159794Y-107251493D01*
X128155051Y-107242184D01*
X128155049Y-107242181D01*
X128155048Y-107242179D01*
X128030109Y-107070213D01*
X127879786Y-106919890D01*
X127707820Y-106794951D01*
X127518414Y-106698444D01*
X127518413Y-106698443D01*
X127518412Y-106698443D01*
X127316243Y-106632754D01*
X127316241Y-106632753D01*
X127316240Y-106632753D01*
X127154957Y-106607208D01*
X127106287Y-106599500D01*
X126893713Y-106599500D01*
X126845042Y-106607208D01*
X126683760Y-106632753D01*
X126481585Y-106698444D01*
X126292179Y-106794951D01*
X126120213Y-106919890D01*
X125969890Y-107070213D01*
X125844949Y-107242182D01*
X125840484Y-107250946D01*
X125792509Y-107301742D01*
X125724688Y-107318536D01*
X125658553Y-107295998D01*
X125619516Y-107250946D01*
X125615050Y-107242182D01*
X125490109Y-107070213D01*
X125339786Y-106919890D01*
X125167820Y-106794951D01*
X124978414Y-106698444D01*
X124978413Y-106698443D01*
X124978412Y-106698443D01*
X124776243Y-106632754D01*
X124776241Y-106632753D01*
X124776240Y-106632753D01*
X124614957Y-106607208D01*
X124566287Y-106599500D01*
X124353713Y-106599500D01*
X124305042Y-106607208D01*
X124143760Y-106632753D01*
X123941585Y-106698444D01*
X123752179Y-106794951D01*
X123580213Y-106919890D01*
X123429890Y-107070213D01*
X123304949Y-107242182D01*
X123300484Y-107250946D01*
X123252509Y-107301742D01*
X123184688Y-107318536D01*
X123118553Y-107295998D01*
X123079516Y-107250946D01*
X123075050Y-107242182D01*
X122950109Y-107070213D01*
X122799786Y-106919890D01*
X122627820Y-106794951D01*
X122438414Y-106698444D01*
X122438413Y-106698443D01*
X122438412Y-106698443D01*
X122236243Y-106632754D01*
X122236241Y-106632753D01*
X122236240Y-106632753D01*
X122074957Y-106607208D01*
X122026287Y-106599500D01*
X121813713Y-106599500D01*
X121765042Y-106607208D01*
X121603760Y-106632753D01*
X121401585Y-106698444D01*
X121212179Y-106794951D01*
X121040213Y-106919890D01*
X120889890Y-107070213D01*
X120764949Y-107242182D01*
X120760484Y-107250946D01*
X120712509Y-107301742D01*
X120644688Y-107318536D01*
X120578553Y-107295998D01*
X120539516Y-107250946D01*
X120535050Y-107242182D01*
X120410109Y-107070213D01*
X120259786Y-106919890D01*
X120087820Y-106794951D01*
X119898414Y-106698444D01*
X119898413Y-106698443D01*
X119898412Y-106698443D01*
X119696243Y-106632754D01*
X119696241Y-106632753D01*
X119696240Y-106632753D01*
X119534957Y-106607208D01*
X119486287Y-106599500D01*
X119273713Y-106599500D01*
X119225042Y-106607208D01*
X119063760Y-106632753D01*
X118861585Y-106698444D01*
X118672179Y-106794951D01*
X118500213Y-106919890D01*
X118349890Y-107070213D01*
X118224949Y-107242182D01*
X118220484Y-107250946D01*
X118172509Y-107301742D01*
X118104688Y-107318536D01*
X118038553Y-107295998D01*
X117999516Y-107250946D01*
X117995050Y-107242182D01*
X117870109Y-107070213D01*
X117719786Y-106919890D01*
X117547820Y-106794951D01*
X117358414Y-106698444D01*
X117358413Y-106698443D01*
X117358412Y-106698443D01*
X117156243Y-106632754D01*
X117156241Y-106632753D01*
X117156240Y-106632753D01*
X116994957Y-106607208D01*
X116946287Y-106599500D01*
X116733713Y-106599500D01*
X116685042Y-106607208D01*
X116523760Y-106632753D01*
X116321585Y-106698444D01*
X116132179Y-106794951D01*
X115960213Y-106919890D01*
X115809890Y-107070213D01*
X115684949Y-107242182D01*
X115680484Y-107250946D01*
X115632509Y-107301742D01*
X115564688Y-107318536D01*
X115498553Y-107295998D01*
X115459516Y-107250946D01*
X115455050Y-107242182D01*
X115330109Y-107070213D01*
X115179786Y-106919890D01*
X115007820Y-106794951D01*
X114818414Y-106698444D01*
X114818413Y-106698443D01*
X114818412Y-106698443D01*
X114616243Y-106632754D01*
X114616241Y-106632753D01*
X114616240Y-106632753D01*
X114454957Y-106607208D01*
X114406287Y-106599500D01*
X114193713Y-106599500D01*
X114145042Y-106607208D01*
X113983760Y-106632753D01*
X113781585Y-106698444D01*
X113592179Y-106794951D01*
X113420213Y-106919890D01*
X113269890Y-107070213D01*
X113144949Y-107242182D01*
X113140484Y-107250946D01*
X113092509Y-107301742D01*
X113024688Y-107318536D01*
X112958553Y-107295998D01*
X112919516Y-107250946D01*
X112915050Y-107242182D01*
X112790109Y-107070213D01*
X112639786Y-106919890D01*
X112467820Y-106794951D01*
X112278414Y-106698444D01*
X112278413Y-106698443D01*
X112278412Y-106698443D01*
X112076243Y-106632754D01*
X112076241Y-106632753D01*
X112076240Y-106632753D01*
X111914957Y-106607208D01*
X111866287Y-106599500D01*
X111653713Y-106599500D01*
X111605042Y-106607208D01*
X111443760Y-106632753D01*
X111241585Y-106698444D01*
X111052179Y-106794951D01*
X110880213Y-106919890D01*
X110729890Y-107070213D01*
X110604949Y-107242182D01*
X110600484Y-107250946D01*
X110552509Y-107301742D01*
X110484688Y-107318536D01*
X110418553Y-107295998D01*
X110379516Y-107250946D01*
X110375050Y-107242182D01*
X110250109Y-107070213D01*
X110099786Y-106919890D01*
X109927820Y-106794951D01*
X109738414Y-106698444D01*
X109738413Y-106698443D01*
X109738412Y-106698443D01*
X109536243Y-106632754D01*
X109536241Y-106632753D01*
X109536240Y-106632753D01*
X109374957Y-106607208D01*
X109326287Y-106599500D01*
X109113713Y-106599500D01*
X109065042Y-106607208D01*
X108903760Y-106632753D01*
X108701585Y-106698444D01*
X108512179Y-106794951D01*
X108340213Y-106919890D01*
X108189890Y-107070213D01*
X108064949Y-107242182D01*
X108060484Y-107250946D01*
X108012509Y-107301742D01*
X107944688Y-107318536D01*
X107878553Y-107295998D01*
X107839516Y-107250946D01*
X107835050Y-107242182D01*
X107710109Y-107070213D01*
X107559786Y-106919890D01*
X107387820Y-106794951D01*
X107198414Y-106698444D01*
X107198413Y-106698443D01*
X107198412Y-106698443D01*
X106996243Y-106632754D01*
X106996241Y-106632753D01*
X106996240Y-106632753D01*
X106834957Y-106607208D01*
X106786287Y-106599500D01*
X106573713Y-106599500D01*
X106525042Y-106607208D01*
X106363760Y-106632753D01*
X106161585Y-106698444D01*
X105972179Y-106794951D01*
X105800215Y-106919889D01*
X105686673Y-107033431D01*
X105625350Y-107066915D01*
X105555658Y-107061931D01*
X105499725Y-107020059D01*
X105482810Y-106989082D01*
X105433797Y-106857671D01*
X105433793Y-106857664D01*
X105347547Y-106742455D01*
X105347544Y-106742452D01*
X105232335Y-106656206D01*
X105232328Y-106656202D01*
X105097482Y-106605908D01*
X105097483Y-106605908D01*
X105037883Y-106599501D01*
X105037881Y-106599500D01*
X105037873Y-106599500D01*
X105037865Y-106599500D01*
X103902230Y-106599500D01*
X103835191Y-106579815D01*
X103814549Y-106563181D01*
X103317421Y-106066052D01*
X103317420Y-106066051D01*
X103200038Y-105987620D01*
X103200038Y-105987619D01*
X103194503Y-105983921D01*
X103194499Y-105983919D01*
X103194495Y-105983916D01*
X103057913Y-105927342D01*
X103057907Y-105927340D01*
X102912920Y-105898500D01*
X102912918Y-105898500D01*
X87234500Y-105898500D01*
X87167461Y-105878815D01*
X87121706Y-105826011D01*
X87110500Y-105774500D01*
X87110500Y-103995416D01*
X87110522Y-103995338D01*
X87110500Y-103995261D01*
X87120382Y-103961760D01*
X87130185Y-103928377D01*
X87130253Y-103928297D01*
X87130269Y-103928246D01*
X87130628Y-103927865D01*
X87153415Y-103901602D01*
X87157376Y-103898177D01*
X87207219Y-103861966D01*
X87351966Y-103717219D01*
X87351968Y-103717215D01*
X87351971Y-103717213D01*
X87456894Y-103572797D01*
X87472287Y-103551610D01*
X87519795Y-103458369D01*
X87567769Y-103407573D01*
X87635590Y-103390778D01*
X87701725Y-103413315D01*
X87740765Y-103458369D01*
X87788141Y-103551350D01*
X87788147Y-103551359D01*
X87820523Y-103595921D01*
X87820524Y-103595922D01*
X88500000Y-102916446D01*
X88500000Y-102922661D01*
X88527259Y-103024394D01*
X88579920Y-103115606D01*
X88654394Y-103190080D01*
X88745606Y-103242741D01*
X88847339Y-103270000D01*
X88853553Y-103270000D01*
X88174076Y-103949474D01*
X88218650Y-103981859D01*
X88400968Y-104074755D01*
X88595582Y-104137990D01*
X88797683Y-104170000D01*
X89002317Y-104170000D01*
X89204417Y-104137990D01*
X89399031Y-104074755D01*
X89581349Y-103981859D01*
X89625921Y-103949474D01*
X88946447Y-103270000D01*
X88952661Y-103270000D01*
X89054394Y-103242741D01*
X89145606Y-103190080D01*
X89220080Y-103115606D01*
X89272741Y-103024394D01*
X89300000Y-102922661D01*
X89300000Y-102916447D01*
X89979474Y-103595921D01*
X90011861Y-103551347D01*
X90011861Y-103551346D01*
X90059234Y-103458371D01*
X90107208Y-103407575D01*
X90175028Y-103390779D01*
X90241164Y-103413316D01*
X90280203Y-103458369D01*
X90327713Y-103551611D01*
X90448028Y-103717213D01*
X90592786Y-103861971D01*
X90713226Y-103949474D01*
X90758390Y-103982287D01*
X90874607Y-104041503D01*
X90940776Y-104075218D01*
X90940778Y-104075218D01*
X90940781Y-104075220D01*
X91031856Y-104104812D01*
X91135465Y-104138477D01*
X91236557Y-104154488D01*
X91337648Y-104170500D01*
X91337649Y-104170500D01*
X91542351Y-104170500D01*
X91542352Y-104170500D01*
X91744534Y-104138477D01*
X91939219Y-104075220D01*
X92121610Y-103982287D01*
X92219203Y-103911382D01*
X92287213Y-103861971D01*
X92287215Y-103861968D01*
X92287219Y-103861966D01*
X92431966Y-103717219D01*
X92431968Y-103717215D01*
X92431971Y-103717213D01*
X92552284Y-103551614D01*
X92552286Y-103551611D01*
X92552287Y-103551610D01*
X92599516Y-103458917D01*
X92647489Y-103408123D01*
X92715310Y-103391328D01*
X92781445Y-103413865D01*
X92820483Y-103458917D01*
X92841008Y-103499199D01*
X92867715Y-103551614D01*
X92988028Y-103717213D01*
X93132786Y-103861971D01*
X93253226Y-103949474D01*
X93298390Y-103982287D01*
X93414607Y-104041503D01*
X93480776Y-104075218D01*
X93480778Y-104075218D01*
X93480781Y-104075220D01*
X93571856Y-104104812D01*
X93675465Y-104138477D01*
X93776557Y-104154488D01*
X93877648Y-104170500D01*
X93877649Y-104170500D01*
X94082351Y-104170500D01*
X94082352Y-104170500D01*
X94284534Y-104138477D01*
X94479219Y-104075220D01*
X94661610Y-103982287D01*
X94759203Y-103911382D01*
X94827213Y-103861971D01*
X94827215Y-103861968D01*
X94827219Y-103861966D01*
X94848094Y-103841091D01*
X94909417Y-103807606D01*
X94979109Y-103812590D01*
X95023456Y-103841091D01*
X95534139Y-104351774D01*
X95534149Y-104351785D01*
X95538479Y-104356115D01*
X95538480Y-104356116D01*
X95650284Y-104467920D01*
X95650286Y-104467921D01*
X95650290Y-104467924D01*
X95709582Y-104502156D01*
X95709587Y-104502158D01*
X95787209Y-104546974D01*
X95787210Y-104546974D01*
X95787215Y-104546977D01*
X95939942Y-104587900D01*
X95939943Y-104587900D01*
X106745931Y-104587900D01*
X106745947Y-104587901D01*
X106753543Y-104587901D01*
X106911654Y-104587901D01*
X106911657Y-104587901D01*
X107064385Y-104546977D01*
X107142015Y-104502157D01*
X107150224Y-104497418D01*
X107201309Y-104467924D01*
X107201308Y-104467924D01*
X107201316Y-104467920D01*
X107313120Y-104356116D01*
X107313120Y-104356114D01*
X107323320Y-104345915D01*
X107323324Y-104345910D01*
X107462418Y-104206815D01*
X107523739Y-104173333D01*
X107550097Y-104170499D01*
X108550002Y-104170499D01*
X108550008Y-104170499D01*
X108652797Y-104159999D01*
X108819334Y-104104814D01*
X108968656Y-104012712D01*
X109092712Y-103888656D01*
X109184814Y-103739334D01*
X109211955Y-103657427D01*
X109251726Y-103599984D01*
X109316242Y-103573161D01*
X109385018Y-103585476D01*
X109429977Y-103623547D01*
X109498030Y-103717213D01*
X109498034Y-103717219D01*
X109642786Y-103861971D01*
X109763226Y-103949474D01*
X109808390Y-103982287D01*
X109924607Y-104041503D01*
X109990776Y-104075218D01*
X109990778Y-104075218D01*
X109990781Y-104075220D01*
X110081856Y-104104812D01*
X110185465Y-104138477D01*
X110286557Y-104154488D01*
X110387648Y-104170500D01*
X110387649Y-104170500D01*
X110592351Y-104170500D01*
X110592352Y-104170500D01*
X110794534Y-104138477D01*
X110989219Y-104075220D01*
X111171610Y-103982287D01*
X111269203Y-103911382D01*
X111337213Y-103861971D01*
X111337215Y-103861968D01*
X111337219Y-103861966D01*
X111481966Y-103717219D01*
X111481968Y-103717215D01*
X111481971Y-103717213D01*
X111602284Y-103551614D01*
X111602286Y-103551611D01*
X111602287Y-103551610D01*
X111649516Y-103458917D01*
X111697489Y-103408123D01*
X111765310Y-103391328D01*
X111831445Y-103413865D01*
X111870483Y-103458917D01*
X111891008Y-103499199D01*
X111917715Y-103551614D01*
X112038028Y-103717213D01*
X112182786Y-103861971D01*
X112303226Y-103949474D01*
X112348390Y-103982287D01*
X112464607Y-104041503D01*
X112530776Y-104075218D01*
X112530778Y-104075218D01*
X112530781Y-104075220D01*
X112621856Y-104104812D01*
X112725465Y-104138477D01*
X112826557Y-104154488D01*
X112927648Y-104170500D01*
X112927649Y-104170500D01*
X113132351Y-104170500D01*
X113132352Y-104170500D01*
X113334534Y-104138477D01*
X113529219Y-104075220D01*
X113711610Y-103982287D01*
X113809203Y-103911382D01*
X113877213Y-103861971D01*
X113877215Y-103861968D01*
X113877219Y-103861966D01*
X114021966Y-103717219D01*
X114021968Y-103717215D01*
X114021971Y-103717213D01*
X114142284Y-103551614D01*
X114142286Y-103551611D01*
X114142287Y-103551610D01*
X114189516Y-103458917D01*
X114237489Y-103408123D01*
X114305310Y-103391328D01*
X114371445Y-103413865D01*
X114410483Y-103458917D01*
X114431008Y-103499199D01*
X114457715Y-103551614D01*
X114578028Y-103717213D01*
X114722786Y-103861971D01*
X114843226Y-103949474D01*
X114888390Y-103982287D01*
X115004607Y-104041503D01*
X115070776Y-104075218D01*
X115070778Y-104075218D01*
X115070781Y-104075220D01*
X115161856Y-104104812D01*
X115265465Y-104138477D01*
X115366557Y-104154488D01*
X115467648Y-104170500D01*
X115467649Y-104170500D01*
X115672351Y-104170500D01*
X115672352Y-104170500D01*
X115874534Y-104138477D01*
X116069219Y-104075220D01*
X116251610Y-103982287D01*
X116349203Y-103911382D01*
X116417213Y-103861971D01*
X116417215Y-103861968D01*
X116417219Y-103861966D01*
X116561966Y-103717219D01*
X116561968Y-103717215D01*
X116561971Y-103717213D01*
X116682284Y-103551614D01*
X116682286Y-103551611D01*
X116682287Y-103551610D01*
X116729516Y-103458917D01*
X116777489Y-103408123D01*
X116845310Y-103391328D01*
X116911445Y-103413865D01*
X116950483Y-103458917D01*
X116971008Y-103499199D01*
X116997715Y-103551614D01*
X117118028Y-103717213D01*
X117262786Y-103861971D01*
X117383226Y-103949474D01*
X117428390Y-103982287D01*
X117544607Y-104041503D01*
X117610776Y-104075218D01*
X117610778Y-104075218D01*
X117610781Y-104075220D01*
X117701856Y-104104812D01*
X117805465Y-104138477D01*
X117906557Y-104154488D01*
X118007648Y-104170500D01*
X118007649Y-104170500D01*
X118212351Y-104170500D01*
X118212352Y-104170500D01*
X118414534Y-104138477D01*
X118609219Y-104075220D01*
X118791610Y-103982287D01*
X118889203Y-103911382D01*
X118957213Y-103861971D01*
X118957215Y-103861968D01*
X118957219Y-103861966D01*
X119101966Y-103717219D01*
X119101968Y-103717215D01*
X119101971Y-103717213D01*
X119222284Y-103551614D01*
X119222286Y-103551611D01*
X119222287Y-103551610D01*
X119269516Y-103458917D01*
X119317489Y-103408123D01*
X119385310Y-103391328D01*
X119451445Y-103413865D01*
X119490483Y-103458917D01*
X119511008Y-103499199D01*
X119537715Y-103551614D01*
X119658028Y-103717213D01*
X119802786Y-103861971D01*
X119923226Y-103949474D01*
X119968390Y-103982287D01*
X120084607Y-104041503D01*
X120150776Y-104075218D01*
X120150778Y-104075218D01*
X120150781Y-104075220D01*
X120241856Y-104104812D01*
X120345465Y-104138477D01*
X120446557Y-104154488D01*
X120547648Y-104170500D01*
X120547649Y-104170500D01*
X120752351Y-104170500D01*
X120752352Y-104170500D01*
X120954534Y-104138477D01*
X121149219Y-104075220D01*
X121331610Y-103982287D01*
X121429203Y-103911382D01*
X121497213Y-103861971D01*
X121497215Y-103861968D01*
X121497219Y-103861966D01*
X121641966Y-103717219D01*
X121641968Y-103717215D01*
X121641971Y-103717213D01*
X121762284Y-103551614D01*
X121762286Y-103551611D01*
X121762287Y-103551610D01*
X121809516Y-103458917D01*
X121857489Y-103408123D01*
X121925310Y-103391328D01*
X121991445Y-103413865D01*
X122030483Y-103458917D01*
X122051008Y-103499199D01*
X122077715Y-103551614D01*
X122198028Y-103717213D01*
X122342786Y-103861971D01*
X122463226Y-103949474D01*
X122508390Y-103982287D01*
X122624607Y-104041503D01*
X122690776Y-104075218D01*
X122690778Y-104075218D01*
X122690781Y-104075220D01*
X122781856Y-104104812D01*
X122885465Y-104138477D01*
X122986557Y-104154488D01*
X123087648Y-104170500D01*
X123087649Y-104170500D01*
X123292351Y-104170500D01*
X123292352Y-104170500D01*
X123494534Y-104138477D01*
X123689219Y-104075220D01*
X123871610Y-103982287D01*
X123969203Y-103911382D01*
X124037213Y-103861971D01*
X124037215Y-103861968D01*
X124037219Y-103861966D01*
X124181966Y-103717219D01*
X124181968Y-103717215D01*
X124181971Y-103717213D01*
X124302284Y-103551614D01*
X124302286Y-103551611D01*
X124302287Y-103551610D01*
X124349516Y-103458917D01*
X124397489Y-103408123D01*
X124465310Y-103391328D01*
X124531445Y-103413865D01*
X124570483Y-103458917D01*
X124591008Y-103499199D01*
X124617715Y-103551614D01*
X124738028Y-103717213D01*
X124882786Y-103861971D01*
X125003226Y-103949474D01*
X125048390Y-103982287D01*
X125164607Y-104041503D01*
X125230776Y-104075218D01*
X125230778Y-104075218D01*
X125230781Y-104075220D01*
X125321856Y-104104812D01*
X125425465Y-104138477D01*
X125526557Y-104154488D01*
X125627648Y-104170500D01*
X125627649Y-104170500D01*
X125832351Y-104170500D01*
X125832352Y-104170500D01*
X126034534Y-104138477D01*
X126229219Y-104075220D01*
X126411610Y-103982287D01*
X126509203Y-103911382D01*
X126577213Y-103861971D01*
X126577215Y-103861968D01*
X126577219Y-103861966D01*
X126721966Y-103717219D01*
X126721968Y-103717215D01*
X126721971Y-103717213D01*
X126842284Y-103551614D01*
X126842286Y-103551611D01*
X126842287Y-103551610D01*
X126889516Y-103458917D01*
X126937489Y-103408123D01*
X127005310Y-103391328D01*
X127071445Y-103413865D01*
X127110483Y-103458917D01*
X127131008Y-103499199D01*
X127157715Y-103551614D01*
X127278028Y-103717213D01*
X127422786Y-103861971D01*
X127543226Y-103949474D01*
X127588390Y-103982287D01*
X127704607Y-104041503D01*
X127770776Y-104075218D01*
X127770778Y-104075218D01*
X127770781Y-104075220D01*
X127861856Y-104104812D01*
X127965465Y-104138477D01*
X128066557Y-104154488D01*
X128167648Y-104170500D01*
X128167649Y-104170500D01*
X128372351Y-104170500D01*
X128372352Y-104170500D01*
X128574534Y-104138477D01*
X128769219Y-104075220D01*
X128951610Y-103982287D01*
X129049203Y-103911382D01*
X129117213Y-103861971D01*
X129117215Y-103861968D01*
X129117219Y-103861966D01*
X129261966Y-103717219D01*
X129261968Y-103717215D01*
X129261971Y-103717213D01*
X129366894Y-103572797D01*
X129382287Y-103551610D01*
X129429795Y-103458369D01*
X129477769Y-103407573D01*
X129545590Y-103390778D01*
X129611725Y-103413315D01*
X129650765Y-103458369D01*
X129698141Y-103551350D01*
X129698147Y-103551359D01*
X129730523Y-103595921D01*
X129730524Y-103595922D01*
X130410000Y-102916446D01*
X130410000Y-102922661D01*
X130437259Y-103024394D01*
X130489920Y-103115606D01*
X130564394Y-103190080D01*
X130655606Y-103242741D01*
X130757339Y-103270000D01*
X130763553Y-103270000D01*
X130084076Y-103949474D01*
X130128650Y-103981859D01*
X130310968Y-104074755D01*
X130505582Y-104137990D01*
X130707683Y-104170000D01*
X130912317Y-104170000D01*
X131114417Y-104137990D01*
X131309031Y-104074755D01*
X131491349Y-103981859D01*
X131535921Y-103949474D01*
X130856447Y-103270000D01*
X130862661Y-103270000D01*
X130964394Y-103242741D01*
X131055606Y-103190080D01*
X131130080Y-103115606D01*
X131182741Y-103024394D01*
X131210000Y-102922661D01*
X131210000Y-102916448D01*
X131889474Y-103595922D01*
X131889474Y-103595921D01*
X131921859Y-103551349D01*
X132014755Y-103369031D01*
X132077990Y-103174417D01*
X132110000Y-102972317D01*
X132110000Y-102767682D01*
X132091616Y-102651613D01*
X132077990Y-102565582D01*
X132023287Y-102397229D01*
X132021291Y-102327388D01*
X132057371Y-102267555D01*
X132120072Y-102236726D01*
X132189486Y-102244690D01*
X132241536Y-102286025D01*
X132270522Y-102325921D01*
X132270524Y-102325922D01*
X132950000Y-101646446D01*
X132950000Y-101652661D01*
X132977259Y-101754394D01*
X133029920Y-101845606D01*
X133104394Y-101920080D01*
X133195606Y-101972741D01*
X133297339Y-102000000D01*
X133303553Y-102000000D01*
X132624076Y-102679474D01*
X132668650Y-102711859D01*
X132850968Y-102804755D01*
X133045582Y-102867990D01*
X133247683Y-102900000D01*
X133452317Y-102900000D01*
X133654417Y-102867990D01*
X133849031Y-102804755D01*
X134031349Y-102711859D01*
X134075921Y-102679474D01*
X133396447Y-102000000D01*
X133402661Y-102000000D01*
X133504394Y-101972741D01*
X133595606Y-101920080D01*
X133670080Y-101845606D01*
X133722741Y-101754394D01*
X133750000Y-101652661D01*
X133750000Y-101646448D01*
X134429474Y-102325922D01*
X134429474Y-102325921D01*
X134461859Y-102281349D01*
X134554755Y-102099031D01*
X134617990Y-101904417D01*
X134650000Y-101702317D01*
X134650000Y-101497682D01*
X134617990Y-101295582D01*
X134554755Y-101100968D01*
X134461859Y-100918650D01*
X134429474Y-100874077D01*
X134429474Y-100874076D01*
X133750000Y-101553551D01*
X133750000Y-101547339D01*
X133722741Y-101445606D01*
X133670080Y-101354394D01*
X133595606Y-101279920D01*
X133504394Y-101227259D01*
X133402661Y-101200000D01*
X133396446Y-101200000D01*
X134075922Y-100520524D01*
X134075921Y-100520523D01*
X134031359Y-100488147D01*
X134031350Y-100488141D01*
X133849031Y-100395244D01*
X133654417Y-100332009D01*
X133452317Y-100300000D01*
X133247683Y-100300000D01*
X133045582Y-100332009D01*
X132850968Y-100395244D01*
X132668644Y-100488143D01*
X132624077Y-100520523D01*
X132624077Y-100520524D01*
X133303554Y-101200000D01*
X133297339Y-101200000D01*
X133195606Y-101227259D01*
X133104394Y-101279920D01*
X133029920Y-101354394D01*
X132977259Y-101445606D01*
X132950000Y-101547339D01*
X132950000Y-101553553D01*
X132270524Y-100874077D01*
X132270523Y-100874077D01*
X132238143Y-100918644D01*
X132145244Y-101100968D01*
X132082009Y-101295582D01*
X132050000Y-101497682D01*
X132050000Y-101702317D01*
X132082009Y-101904417D01*
X132136712Y-102072771D01*
X132138707Y-102142613D01*
X132102627Y-102202446D01*
X132039926Y-102233274D01*
X131970512Y-102225310D01*
X131918463Y-102183976D01*
X131889474Y-102144077D01*
X131889474Y-102144076D01*
X131210000Y-102823551D01*
X131210000Y-102817339D01*
X131182741Y-102715606D01*
X131130080Y-102624394D01*
X131055606Y-102549920D01*
X130964394Y-102497259D01*
X130862661Y-102470000D01*
X130856446Y-102470000D01*
X131535922Y-101790524D01*
X131535921Y-101790523D01*
X131491359Y-101758147D01*
X131491350Y-101758141D01*
X131309031Y-101665244D01*
X131114417Y-101602009D01*
X130912317Y-101570000D01*
X130707683Y-101570000D01*
X130505582Y-101602009D01*
X130310968Y-101665244D01*
X130128644Y-101758143D01*
X130084077Y-101790523D01*
X130084077Y-101790524D01*
X130763554Y-102470000D01*
X130757339Y-102470000D01*
X130655606Y-102497259D01*
X130564394Y-102549920D01*
X130489920Y-102624394D01*
X130437259Y-102715606D01*
X130410000Y-102817339D01*
X130410000Y-102823553D01*
X129730524Y-102144077D01*
X129730523Y-102144077D01*
X129698143Y-102188644D01*
X129650765Y-102281630D01*
X129602790Y-102332426D01*
X129534969Y-102349221D01*
X129468834Y-102326683D01*
X129429795Y-102281630D01*
X129423865Y-102269991D01*
X129382287Y-102188390D01*
X129382285Y-102188387D01*
X129382284Y-102188385D01*
X129261971Y-102022786D01*
X129117213Y-101878028D01*
X128951613Y-101757715D01*
X128951612Y-101757714D01*
X128951610Y-101757713D01*
X128890967Y-101726814D01*
X128769223Y-101664781D01*
X128574534Y-101601522D01*
X128391754Y-101572573D01*
X128372352Y-101569500D01*
X128167648Y-101569500D01*
X128148246Y-101572573D01*
X127965465Y-101601522D01*
X127770776Y-101664781D01*
X127588386Y-101757715D01*
X127422786Y-101878028D01*
X127278028Y-102022786D01*
X127157715Y-102188386D01*
X127110485Y-102281080D01*
X127062510Y-102331876D01*
X126994689Y-102348671D01*
X126928554Y-102326134D01*
X126889515Y-102281080D01*
X126871601Y-102245922D01*
X126842287Y-102188390D01*
X126810092Y-102144077D01*
X126721971Y-102022786D01*
X126577213Y-101878028D01*
X126411613Y-101757715D01*
X126411612Y-101757714D01*
X126411610Y-101757713D01*
X126350967Y-101726814D01*
X126229223Y-101664781D01*
X126034534Y-101601522D01*
X125851754Y-101572573D01*
X125832352Y-101569500D01*
X125627648Y-101569500D01*
X125608246Y-101572573D01*
X125425465Y-101601522D01*
X125230776Y-101664781D01*
X125048386Y-101757715D01*
X124882786Y-101878028D01*
X124738028Y-102022786D01*
X124617715Y-102188386D01*
X124570485Y-102281080D01*
X124522510Y-102331876D01*
X124454689Y-102348671D01*
X124388554Y-102326134D01*
X124349515Y-102281080D01*
X124331601Y-102245922D01*
X124302287Y-102188390D01*
X124270092Y-102144077D01*
X124181971Y-102022786D01*
X124037213Y-101878028D01*
X123871613Y-101757715D01*
X123871612Y-101757714D01*
X123871610Y-101757713D01*
X123810967Y-101726814D01*
X123689223Y-101664781D01*
X123494534Y-101601522D01*
X123311754Y-101572573D01*
X123292352Y-101569500D01*
X123099096Y-101569500D01*
X123032057Y-101549815D01*
X122986302Y-101497011D01*
X122976358Y-101427853D01*
X123005383Y-101364297D01*
X123011415Y-101357819D01*
X123889132Y-100480102D01*
X125828453Y-98540781D01*
X127825158Y-96544075D01*
X127886479Y-96510592D01*
X127951151Y-96513825D01*
X127965466Y-96518477D01*
X127965471Y-96518477D01*
X127965472Y-96518478D01*
X128010255Y-96525571D01*
X128167648Y-96550500D01*
X128167649Y-96550500D01*
X128372351Y-96550500D01*
X128372352Y-96550500D01*
X128574534Y-96518477D01*
X128769219Y-96455220D01*
X128951610Y-96362287D01*
X129117219Y-96241966D01*
X129145594Y-96213589D01*
X129206914Y-96180106D01*
X129276606Y-96185090D01*
X129320955Y-96213591D01*
X130187884Y-97080520D01*
X130187886Y-97080521D01*
X130187890Y-97080524D01*
X130324809Y-97159573D01*
X130324816Y-97159577D01*
X130477543Y-97200501D01*
X130477545Y-97200501D01*
X130643254Y-97200501D01*
X130643270Y-97200500D01*
X132120398Y-97200500D01*
X132187437Y-97220185D01*
X132230883Y-97268205D01*
X132237715Y-97281614D01*
X132358028Y-97447213D01*
X132502786Y-97591971D01*
X132657749Y-97704556D01*
X132668390Y-97712287D01*
X132784607Y-97771503D01*
X132850776Y-97805218D01*
X132850778Y-97805218D01*
X132850781Y-97805220D01*
X132955137Y-97839127D01*
X133045465Y-97868477D01*
X133146557Y-97884488D01*
X133247648Y-97900500D01*
X133247649Y-97900500D01*
X133452351Y-97900500D01*
X133452352Y-97900500D01*
X133654534Y-97868477D01*
X133849219Y-97805220D01*
X134031610Y-97712287D01*
X134124590Y-97644732D01*
X134197213Y-97591971D01*
X134197215Y-97591968D01*
X134197219Y-97591966D01*
X134341966Y-97447219D01*
X134341968Y-97447215D01*
X134341971Y-97447213D01*
X134405576Y-97359667D01*
X134462287Y-97281610D01*
X134555220Y-97099219D01*
X134618477Y-96904534D01*
X134650500Y-96702352D01*
X134650500Y-96497648D01*
X134640644Y-96435418D01*
X134618477Y-96295465D01*
X134555218Y-96100776D01*
X134514455Y-96020776D01*
X134462287Y-95918390D01*
X134447134Y-95897533D01*
X134341971Y-95752786D01*
X134197213Y-95608028D01*
X134031613Y-95487715D01*
X134031612Y-95487714D01*
X134031610Y-95487713D01*
X133974653Y-95458691D01*
X133849223Y-95394781D01*
X133654534Y-95331522D01*
X133472309Y-95302661D01*
X133452352Y-95299500D01*
X133247648Y-95299500D01*
X133227691Y-95302661D01*
X133045465Y-95331522D01*
X132850776Y-95394781D01*
X132668386Y-95487715D01*
X132502786Y-95608028D01*
X132358028Y-95752786D01*
X132237715Y-95918385D01*
X132233320Y-95927011D01*
X132230976Y-95931613D01*
X132230883Y-95931795D01*
X132220433Y-95942859D01*
X132214111Y-95956703D01*
X132196931Y-95967743D01*
X132182909Y-95982591D01*
X132167227Y-95986832D01*
X132155333Y-95994477D01*
X132120398Y-95999500D01*
X132090045Y-95999500D01*
X132023006Y-95979815D01*
X131977251Y-95927011D01*
X131967307Y-95857853D01*
X131979560Y-95819205D01*
X131995677Y-95787575D01*
X132015220Y-95749219D01*
X132078477Y-95554534D01*
X132110500Y-95352352D01*
X132110500Y-95147648D01*
X132102257Y-95095606D01*
X132078477Y-94945465D01*
X132031223Y-94800034D01*
X132015220Y-94750781D01*
X132015218Y-94750778D01*
X132015218Y-94750776D01*
X131969515Y-94661080D01*
X131922287Y-94568390D01*
X131914556Y-94557749D01*
X131801971Y-94402786D01*
X131657213Y-94258028D01*
X131491613Y-94137715D01*
X131491612Y-94137714D01*
X131491610Y-94137713D01*
X131434653Y-94108691D01*
X131309223Y-94044781D01*
X131114534Y-93981522D01*
X130938112Y-93953580D01*
X130912352Y-93949500D01*
X130707648Y-93949500D01*
X130683329Y-93953351D01*
X130505465Y-93981522D01*
X130310776Y-94044781D01*
X130128386Y-94137715D01*
X129962786Y-94258028D01*
X129962782Y-94258032D01*
X129914606Y-94306209D01*
X129853283Y-94339694D01*
X129783591Y-94334710D01*
X129739244Y-94306209D01*
X129193290Y-93760255D01*
X129193288Y-93760252D01*
X129074417Y-93641381D01*
X129074416Y-93641380D01*
X128964332Y-93577823D01*
X128964332Y-93577822D01*
X128964327Y-93577821D01*
X128954960Y-93572412D01*
X128937486Y-93562323D01*
X128899303Y-93552092D01*
X128784757Y-93521399D01*
X128626643Y-93521399D01*
X128619047Y-93521399D01*
X128619031Y-93521400D01*
X108999042Y-93521400D01*
X108846314Y-93562323D01*
X108825144Y-93574546D01*
X108819469Y-93577823D01*
X108764426Y-93609601D01*
X108709385Y-93641379D01*
X108709382Y-93641381D01*
X108597578Y-93753186D01*
X108394842Y-93955921D01*
X108333519Y-93989406D01*
X108268848Y-93986173D01*
X108254534Y-93981522D01*
X108078112Y-93953580D01*
X108052352Y-93949500D01*
X107847648Y-93949500D01*
X107823329Y-93953351D01*
X107645465Y-93981522D01*
X107450776Y-94044781D01*
X107268386Y-94137715D01*
X107102786Y-94258028D01*
X106958028Y-94402786D01*
X106837715Y-94568386D01*
X106744781Y-94750776D01*
X106681522Y-94945465D01*
X106649500Y-95147648D01*
X106649500Y-95352351D01*
X106658318Y-95408026D01*
X106649363Y-95477320D01*
X106623526Y-95515105D01*
X106424451Y-95714181D01*
X106363128Y-95747666D01*
X106336770Y-95750500D01*
X105515476Y-95750500D01*
X105448437Y-95730815D01*
X105402682Y-95678011D01*
X105392738Y-95608853D01*
X105397545Y-95588183D01*
X105408475Y-95554542D01*
X105408475Y-95554538D01*
X105408477Y-95554534D01*
X105440500Y-95352352D01*
X105440500Y-95147648D01*
X105432257Y-95095606D01*
X105408477Y-94945465D01*
X105361223Y-94800034D01*
X105345220Y-94750781D01*
X105345218Y-94750778D01*
X105345218Y-94750776D01*
X105299515Y-94661080D01*
X105252287Y-94568390D01*
X105244556Y-94557749D01*
X105131971Y-94402786D01*
X104987213Y-94258028D01*
X104821613Y-94137715D01*
X104821612Y-94137714D01*
X104821610Y-94137713D01*
X104764653Y-94108691D01*
X104639223Y-94044781D01*
X104444534Y-93981522D01*
X104268112Y-93953580D01*
X104242352Y-93949500D01*
X104037648Y-93949500D01*
X103999599Y-93955526D01*
X103835468Y-93981522D01*
X103826717Y-93984365D01*
X103821154Y-93986173D01*
X103751313Y-93988167D01*
X103695157Y-93955922D01*
X103477190Y-93737955D01*
X103477188Y-93737952D01*
X103358317Y-93619081D01*
X103358316Y-93619080D01*
X103260009Y-93562323D01*
X103260008Y-93562322D01*
X103221383Y-93540022D01*
X103151880Y-93521399D01*
X103068657Y-93499099D01*
X102910543Y-93499099D01*
X102902947Y-93499099D01*
X102902931Y-93499100D01*
X93912397Y-93499100D01*
X93845358Y-93479415D01*
X93824716Y-93462781D01*
X91821360Y-91459425D01*
X91809111Y-91436993D01*
X91793498Y-91416753D01*
X91792644Y-91406836D01*
X91787875Y-91398102D01*
X91789698Y-91372608D01*
X91787506Y-91347140D01*
X91792149Y-91338336D01*
X91792198Y-91337648D01*
X95219500Y-91337648D01*
X95219500Y-91542352D01*
X95221988Y-91558058D01*
X95251522Y-91744534D01*
X95314781Y-91939223D01*
X95407715Y-92121613D01*
X95528028Y-92287213D01*
X95672786Y-92431971D01*
X95820511Y-92539297D01*
X95838390Y-92552287D01*
X95937631Y-92602853D01*
X96020776Y-92645218D01*
X96020778Y-92645218D01*
X96020781Y-92645220D01*
X96086342Y-92666522D01*
X96215465Y-92708477D01*
X96316557Y-92724488D01*
X96417648Y-92740500D01*
X96417649Y-92740500D01*
X96622351Y-92740500D01*
X96622352Y-92740500D01*
X96824534Y-92708477D01*
X97019219Y-92645220D01*
X97201610Y-92552287D01*
X97319330Y-92466759D01*
X97367213Y-92431971D01*
X97367215Y-92431968D01*
X97367219Y-92431966D01*
X97511966Y-92287219D01*
X97511968Y-92287215D01*
X97511971Y-92287213D01*
X97601864Y-92163484D01*
X97632287Y-92121610D01*
X97725220Y-91939219D01*
X97788477Y-91744534D01*
X97820500Y-91542352D01*
X97820500Y-91337648D01*
X97808375Y-91261097D01*
X97788477Y-91135465D01*
X97739473Y-90984647D01*
X97725220Y-90940781D01*
X97725218Y-90940778D01*
X97725218Y-90940776D01*
X97677104Y-90846348D01*
X97632287Y-90758390D01*
X97571673Y-90674961D01*
X97511971Y-90592786D01*
X97367213Y-90448028D01*
X97201611Y-90327713D01*
X97147621Y-90300203D01*
X97096825Y-90252228D01*
X97080031Y-90184407D01*
X97102569Y-90118272D01*
X97147624Y-90079233D01*
X97201349Y-90051859D01*
X97245921Y-90019474D01*
X96566447Y-89340000D01*
X96572661Y-89340000D01*
X96674394Y-89312741D01*
X96765606Y-89260080D01*
X96840080Y-89185606D01*
X96892741Y-89094394D01*
X96920000Y-88992661D01*
X96920000Y-88986447D01*
X97599474Y-89665921D01*
X97631859Y-89621349D01*
X97724755Y-89439031D01*
X97787990Y-89244417D01*
X97820000Y-89042317D01*
X97820000Y-88837682D01*
X97787990Y-88635582D01*
X97724755Y-88440968D01*
X97631859Y-88258650D01*
X97599474Y-88214077D01*
X97599474Y-88214076D01*
X96920000Y-88893551D01*
X96920000Y-88887339D01*
X96892741Y-88785606D01*
X96840080Y-88694394D01*
X96765606Y-88619920D01*
X96674394Y-88567259D01*
X96572661Y-88540000D01*
X96566446Y-88540000D01*
X97080742Y-88025705D01*
X122003498Y-88025705D01*
X122003498Y-88301092D01*
X122003499Y-88301108D01*
X122039444Y-88574142D01*
X122110724Y-88840163D01*
X122216113Y-89094594D01*
X122216118Y-89094605D01*
X122353811Y-89333094D01*
X122353822Y-89333110D01*
X122521467Y-89551590D01*
X122521473Y-89551597D01*
X122716201Y-89746325D01*
X122716208Y-89746331D01*
X122871788Y-89865711D01*
X122934697Y-89913983D01*
X122934704Y-89913987D01*
X123173193Y-90051680D01*
X123173198Y-90051682D01*
X123173201Y-90051684D01*
X123239713Y-90079234D01*
X123427635Y-90157074D01*
X123427636Y-90157074D01*
X123427638Y-90157075D01*
X123693655Y-90228354D01*
X123966700Y-90264301D01*
X123966707Y-90264301D01*
X124242093Y-90264301D01*
X124242100Y-90264301D01*
X124515145Y-90228354D01*
X124781162Y-90157075D01*
X125035599Y-90051684D01*
X125274103Y-89913983D01*
X125492593Y-89746330D01*
X125687331Y-89551592D01*
X125854984Y-89333102D01*
X125992685Y-89094598D01*
X126098076Y-88840161D01*
X126169355Y-88574144D01*
X126205302Y-88301099D01*
X126205302Y-88025699D01*
X126169355Y-87752654D01*
X126098076Y-87486637D01*
X125992685Y-87232200D01*
X125992683Y-87232197D01*
X125992681Y-87232192D01*
X125854988Y-86993703D01*
X125854984Y-86993696D01*
X125687331Y-86775206D01*
X125687326Y-86775200D01*
X125492598Y-86580472D01*
X125492591Y-86580466D01*
X125274111Y-86412821D01*
X125274109Y-86412820D01*
X125274103Y-86412815D01*
X125196539Y-86368033D01*
X125196538Y-86368032D01*
X125035606Y-86275117D01*
X125035595Y-86275112D01*
X125012421Y-86265513D01*
X132149500Y-86265513D01*
X132149500Y-86454486D01*
X132179059Y-86641118D01*
X132237454Y-86820836D01*
X132312642Y-86968399D01*
X132323240Y-86989199D01*
X132434310Y-87142073D01*
X132567927Y-87275690D01*
X132720801Y-87386760D01*
X132793496Y-87423800D01*
X132889163Y-87472545D01*
X132889165Y-87472545D01*
X132889168Y-87472547D01*
X132985497Y-87503846D01*
X133068881Y-87530940D01*
X133255514Y-87560500D01*
X133255519Y-87560500D01*
X133444486Y-87560500D01*
X133631118Y-87530940D01*
X133810832Y-87472547D01*
X133979199Y-87386760D01*
X134132073Y-87275690D01*
X134265690Y-87142073D01*
X134376760Y-86989199D01*
X134462547Y-86820832D01*
X134520940Y-86641118D01*
X134550500Y-86454486D01*
X134550500Y-86265513D01*
X134520940Y-86078881D01*
X134462545Y-85899163D01*
X134376759Y-85730800D01*
X134265690Y-85577927D01*
X134132073Y-85444310D01*
X133979199Y-85333240D01*
X133810836Y-85247454D01*
X133631118Y-85189059D01*
X133444486Y-85159500D01*
X133444481Y-85159500D01*
X133255519Y-85159500D01*
X133255514Y-85159500D01*
X133068881Y-85189059D01*
X132889163Y-85247454D01*
X132720800Y-85333240D01*
X132633579Y-85396610D01*
X132567927Y-85444310D01*
X132567925Y-85444312D01*
X132567924Y-85444312D01*
X132434312Y-85577924D01*
X132434312Y-85577925D01*
X132434310Y-85577927D01*
X132416171Y-85602893D01*
X132323240Y-85730800D01*
X132237454Y-85899163D01*
X132179059Y-86078881D01*
X132149500Y-86265513D01*
X125012421Y-86265513D01*
X124781164Y-86169723D01*
X124515143Y-86098443D01*
X124242109Y-86062498D01*
X124242106Y-86062497D01*
X124242100Y-86062497D01*
X123966700Y-86062497D01*
X123966694Y-86062497D01*
X123966690Y-86062498D01*
X123693656Y-86098443D01*
X123427635Y-86169723D01*
X123173204Y-86275112D01*
X123173193Y-86275117D01*
X122934704Y-86412810D01*
X122934688Y-86412821D01*
X122716208Y-86580466D01*
X122716201Y-86580472D01*
X122521473Y-86775200D01*
X122521467Y-86775207D01*
X122353822Y-86993687D01*
X122353811Y-86993703D01*
X122216118Y-87232192D01*
X122216113Y-87232203D01*
X122110724Y-87486634D01*
X122039444Y-87752655D01*
X122003499Y-88025689D01*
X122003498Y-88025705D01*
X97080742Y-88025705D01*
X97172488Y-87933959D01*
X97245922Y-87860524D01*
X97245921Y-87860523D01*
X97201359Y-87828147D01*
X97201350Y-87828141D01*
X97019031Y-87735244D01*
X96824417Y-87672009D01*
X96622317Y-87640000D01*
X96417683Y-87640000D01*
X96215582Y-87672009D01*
X96020968Y-87735244D01*
X95838644Y-87828143D01*
X95794077Y-87860523D01*
X95794077Y-87860524D01*
X96473554Y-88540000D01*
X96467339Y-88540000D01*
X96365606Y-88567259D01*
X96274394Y-88619920D01*
X96199920Y-88694394D01*
X96147259Y-88785606D01*
X96120000Y-88887339D01*
X96120000Y-88893553D01*
X95440524Y-88214077D01*
X95440523Y-88214077D01*
X95408143Y-88258644D01*
X95315244Y-88440968D01*
X95252009Y-88635582D01*
X95220000Y-88837682D01*
X95220000Y-89042317D01*
X95252009Y-89244417D01*
X95315244Y-89439031D01*
X95408141Y-89621350D01*
X95408147Y-89621359D01*
X95440523Y-89665921D01*
X95440524Y-89665922D01*
X96120000Y-88986446D01*
X96120000Y-88992661D01*
X96147259Y-89094394D01*
X96199920Y-89185606D01*
X96274394Y-89260080D01*
X96365606Y-89312741D01*
X96467339Y-89340000D01*
X96473553Y-89340000D01*
X95794076Y-90019474D01*
X95838652Y-90051861D01*
X95892376Y-90079234D01*
X95943172Y-90127208D01*
X95959968Y-90195028D01*
X95937431Y-90261164D01*
X95892379Y-90300203D01*
X95838386Y-90327714D01*
X95672786Y-90448028D01*
X95528028Y-90592786D01*
X95407715Y-90758386D01*
X95314781Y-90940776D01*
X95251522Y-91135465D01*
X95224204Y-91307950D01*
X95219500Y-91337648D01*
X91792198Y-91337648D01*
X91792859Y-91328410D01*
X91808175Y-91307950D01*
X91820101Y-91285339D01*
X91831269Y-91277101D01*
X91834731Y-91272477D01*
X91848047Y-91263782D01*
X91850356Y-91262477D01*
X91895405Y-91239524D01*
X92054646Y-91123828D01*
X92193828Y-90984646D01*
X92309524Y-90825405D01*
X92398884Y-90650025D01*
X92459709Y-90462826D01*
X92467563Y-90413240D01*
X92490500Y-90268422D01*
X92490500Y-90071577D01*
X92459709Y-89877173D01*
X92408893Y-89720779D01*
X92398884Y-89689975D01*
X92398882Y-89689972D01*
X92398882Y-89689970D01*
X92351743Y-89597455D01*
X92309524Y-89514595D01*
X92193828Y-89355354D01*
X92054646Y-89216172D01*
X91895405Y-89100476D01*
X91895142Y-89100342D01*
X91720029Y-89011117D01*
X91534230Y-88950747D01*
X91534228Y-88950745D01*
X91532833Y-88950292D01*
X91532827Y-88950291D01*
X91338422Y-88919500D01*
X91338417Y-88919500D01*
X91141583Y-88919500D01*
X91141578Y-88919500D01*
X90947173Y-88950290D01*
X90759970Y-89011117D01*
X90584594Y-89100476D01*
X90501180Y-89161081D01*
X90425354Y-89216172D01*
X90425352Y-89216174D01*
X90425351Y-89216174D01*
X90286174Y-89355351D01*
X90286174Y-89355352D01*
X90286172Y-89355354D01*
X90228324Y-89434974D01*
X90170474Y-89514597D01*
X90148739Y-89557254D01*
X90100764Y-89608050D01*
X90032943Y-89624844D01*
X89966808Y-89602306D01*
X89950574Y-89588639D01*
X86097084Y-85735149D01*
X86063599Y-85673826D01*
X86060765Y-85647468D01*
X86060765Y-85602890D01*
X86060764Y-85602888D01*
X86055799Y-85577927D01*
X86030002Y-85448238D01*
X86022692Y-85430589D01*
X85987469Y-85345552D01*
X85980000Y-85276083D01*
X86011276Y-85213604D01*
X86071365Y-85177952D01*
X86102030Y-85174100D01*
X108886103Y-85174100D01*
X108915543Y-85182744D01*
X108945530Y-85189268D01*
X108950545Y-85193022D01*
X108953142Y-85193785D01*
X108973784Y-85210419D01*
X108995025Y-85231660D01*
X109028510Y-85292983D01*
X109028961Y-85295149D01*
X109059861Y-85450491D01*
X109059864Y-85450501D01*
X109120202Y-85596172D01*
X109120209Y-85596185D01*
X109207810Y-85727288D01*
X109207813Y-85727292D01*
X109319307Y-85838786D01*
X109319311Y-85838789D01*
X109450414Y-85926390D01*
X109450427Y-85926397D01*
X109548062Y-85966838D01*
X109596103Y-85986737D01*
X109750753Y-86017499D01*
X109750756Y-86017500D01*
X109750758Y-86017500D01*
X109908444Y-86017500D01*
X109908445Y-86017499D01*
X110063097Y-85986737D01*
X110208779Y-85926394D01*
X110339889Y-85838789D01*
X110451389Y-85727289D01*
X110538994Y-85596179D01*
X110599337Y-85450497D01*
X110630100Y-85295842D01*
X110630100Y-85138158D01*
X110630100Y-85138155D01*
X110630099Y-85138153D01*
X110599338Y-84983510D01*
X110599337Y-84983503D01*
X110599335Y-84983498D01*
X110538997Y-84837827D01*
X110538990Y-84837814D01*
X110451389Y-84706711D01*
X110451386Y-84706707D01*
X110339892Y-84595213D01*
X110339888Y-84595210D01*
X110208785Y-84507609D01*
X110208772Y-84507602D01*
X110063101Y-84447264D01*
X110063091Y-84447261D01*
X109907749Y-84416361D01*
X109890992Y-84407595D01*
X109872514Y-84403576D01*
X109847477Y-84384833D01*
X109845838Y-84383976D01*
X109844260Y-84382425D01*
X109673790Y-84211955D01*
X109673788Y-84211952D01*
X109554917Y-84093081D01*
X109554916Y-84093080D01*
X109468104Y-84042960D01*
X109468104Y-84042959D01*
X109468100Y-84042958D01*
X109417985Y-84014023D01*
X109265257Y-83973099D01*
X109107143Y-83973099D01*
X109099547Y-83973099D01*
X109099531Y-83973100D01*
X57753070Y-83973100D01*
X57753054Y-83973099D01*
X57745458Y-83973099D01*
X57587343Y-83973099D01*
X57510979Y-83993561D01*
X57434614Y-84014023D01*
X57434609Y-84014026D01*
X57297690Y-84093075D01*
X57297682Y-84093081D01*
X47434842Y-93955921D01*
X47373519Y-93989406D01*
X47308848Y-93986173D01*
X47294534Y-93981522D01*
X47118112Y-93953580D01*
X47092352Y-93949500D01*
X46887648Y-93949500D01*
X46863329Y-93953351D01*
X46685465Y-93981522D01*
X46490776Y-94044781D01*
X46308386Y-94137715D01*
X46142786Y-94258028D01*
X45998028Y-94402786D01*
X45877715Y-94568386D01*
X45830485Y-94661080D01*
X45782510Y-94711876D01*
X45714689Y-94728671D01*
X45648554Y-94706134D01*
X45609515Y-94661080D01*
X45608883Y-94659840D01*
X45562287Y-94568390D01*
X45554556Y-94557749D01*
X45441971Y-94402786D01*
X45297213Y-94258028D01*
X45131613Y-94137715D01*
X45131612Y-94137714D01*
X45131610Y-94137713D01*
X45074653Y-94108691D01*
X44949223Y-94044781D01*
X44754534Y-93981522D01*
X44578112Y-93953580D01*
X44552352Y-93949500D01*
X44347648Y-93949500D01*
X44323329Y-93953351D01*
X44145465Y-93981522D01*
X43950776Y-94044781D01*
X43768386Y-94137715D01*
X43602786Y-94258028D01*
X43458028Y-94402786D01*
X43337715Y-94568386D01*
X43244781Y-94750776D01*
X43181522Y-94945465D01*
X43149500Y-95147648D01*
X43149500Y-95352351D01*
X43181522Y-95554534D01*
X43212542Y-95650000D01*
X43235263Y-95719928D01*
X43237258Y-95789769D01*
X43201178Y-95849602D01*
X43138477Y-95880430D01*
X43069063Y-95872466D01*
X43017014Y-95831131D01*
X42901971Y-95672787D01*
X42901967Y-95672782D01*
X42757213Y-95528028D01*
X42591613Y-95407715D01*
X42591612Y-95407714D01*
X42591610Y-95407713D01*
X42534653Y-95378691D01*
X42409223Y-95314781D01*
X42214534Y-95251522D01*
X42039995Y-95223878D01*
X42012352Y-95219500D01*
X41807648Y-95219500D01*
X41783329Y-95223351D01*
X41605465Y-95251522D01*
X41410776Y-95314781D01*
X41228386Y-95407715D01*
X41062786Y-95528028D01*
X40918028Y-95672786D01*
X40797715Y-95838386D01*
X40704781Y-96020776D01*
X40641522Y-96215465D01*
X40609500Y-96417648D01*
X40609500Y-96622351D01*
X40641522Y-96824534D01*
X40704781Y-97019223D01*
X40745542Y-97099219D01*
X40797147Y-97200500D01*
X40797715Y-97201613D01*
X40918028Y-97367213D01*
X41062786Y-97511971D01*
X41172892Y-97591966D01*
X41228390Y-97632287D01*
X41344607Y-97691503D01*
X41410776Y-97725218D01*
X41410778Y-97725218D01*
X41410781Y-97725220D01*
X41515137Y-97759127D01*
X41605465Y-97788477D01*
X41672624Y-97799114D01*
X41807648Y-97820500D01*
X41807649Y-97820500D01*
X42012351Y-97820500D01*
X42012352Y-97820500D01*
X42214534Y-97788477D01*
X42409219Y-97725220D01*
X42591610Y-97632287D01*
X42695909Y-97556510D01*
X42757213Y-97511971D01*
X42757215Y-97511968D01*
X42757219Y-97511966D01*
X42901966Y-97367219D01*
X42901968Y-97367215D01*
X42901971Y-97367213D01*
X42973903Y-97268205D01*
X43022287Y-97201610D01*
X43115220Y-97019219D01*
X43178477Y-96824534D01*
X43210500Y-96622352D01*
X43210500Y-96417648D01*
X43182675Y-96241971D01*
X43178477Y-96215465D01*
X43162303Y-96165687D01*
X43124735Y-96050067D01*
X43122741Y-95980231D01*
X43158821Y-95920398D01*
X43221521Y-95889569D01*
X43290936Y-95897533D01*
X43342985Y-95938868D01*
X43458028Y-96097212D01*
X43458032Y-96097217D01*
X43602786Y-96241971D01*
X43757749Y-96354556D01*
X43768390Y-96362287D01*
X43834752Y-96396100D01*
X43950776Y-96455218D01*
X43950778Y-96455218D01*
X43950781Y-96455220D01*
X44055137Y-96489127D01*
X44145465Y-96518477D01*
X44246557Y-96534488D01*
X44347648Y-96550500D01*
X44347649Y-96550500D01*
X44552351Y-96550500D01*
X44552352Y-96550500D01*
X44754534Y-96518477D01*
X44949219Y-96455220D01*
X45131610Y-96362287D01*
X45249330Y-96276759D01*
X45297213Y-96241971D01*
X45297215Y-96241968D01*
X45297219Y-96241966D01*
X45441966Y-96097219D01*
X45441968Y-96097215D01*
X45441971Y-96097213D01*
X45557014Y-95938868D01*
X45562287Y-95931610D01*
X45609516Y-95838917D01*
X45657489Y-95788123D01*
X45725310Y-95771328D01*
X45791445Y-95793865D01*
X45830483Y-95838917D01*
X45856292Y-95889569D01*
X45877715Y-95931614D01*
X45998028Y-96097213D01*
X46142786Y-96241971D01*
X46297749Y-96354556D01*
X46308390Y-96362287D01*
X46374752Y-96396100D01*
X46490776Y-96455218D01*
X46490778Y-96455218D01*
X46490781Y-96455220D01*
X46595137Y-96489127D01*
X46685465Y-96518477D01*
X46786557Y-96534488D01*
X46887648Y-96550500D01*
X46887649Y-96550500D01*
X47092351Y-96550500D01*
X47092352Y-96550500D01*
X47294534Y-96518477D01*
X47308842Y-96513827D01*
X47378682Y-96511831D01*
X47434841Y-96544076D01*
X52096884Y-101206120D01*
X52096886Y-101206121D01*
X52096890Y-101206124D01*
X52233809Y-101285173D01*
X52233816Y-101285177D01*
X52386543Y-101326101D01*
X52386545Y-101326101D01*
X52552254Y-101326101D01*
X52552270Y-101326100D01*
X54468849Y-101326100D01*
X54535888Y-101345785D01*
X54581643Y-101398589D01*
X54591587Y-101467747D01*
X54562562Y-101531303D01*
X54503784Y-101569077D01*
X54488249Y-101572572D01*
X54487691Y-101572661D01*
X54305465Y-101601522D01*
X54110776Y-101664781D01*
X53928386Y-101757715D01*
X53762786Y-101878028D01*
X53618028Y-102022786D01*
X53497715Y-102188386D01*
X53450485Y-102281080D01*
X53402510Y-102331876D01*
X53334689Y-102348671D01*
X53268554Y-102326134D01*
X53229515Y-102281080D01*
X53211601Y-102245922D01*
X53182287Y-102188390D01*
X53150092Y-102144077D01*
X53061971Y-102022786D01*
X52917213Y-101878028D01*
X52751613Y-101757715D01*
X52751612Y-101757714D01*
X52751610Y-101757713D01*
X52690967Y-101726814D01*
X52569223Y-101664781D01*
X52374534Y-101601522D01*
X52191754Y-101572573D01*
X52172352Y-101569500D01*
X51967648Y-101569500D01*
X51948246Y-101572573D01*
X51765465Y-101601522D01*
X51570776Y-101664781D01*
X51388386Y-101757715D01*
X51222786Y-101878028D01*
X51078028Y-102022786D01*
X50957715Y-102188386D01*
X50910485Y-102281080D01*
X50862510Y-102331876D01*
X50794689Y-102348671D01*
X50728554Y-102326134D01*
X50689515Y-102281080D01*
X50671601Y-102245922D01*
X50642287Y-102188390D01*
X50610092Y-102144077D01*
X50521971Y-102022786D01*
X50377213Y-101878028D01*
X50211613Y-101757715D01*
X50211612Y-101757714D01*
X50211610Y-101757713D01*
X50150967Y-101726814D01*
X50029223Y-101664781D01*
X49834534Y-101601522D01*
X49651754Y-101572573D01*
X49632352Y-101569500D01*
X49427648Y-101569500D01*
X49408246Y-101572573D01*
X49225465Y-101601522D01*
X49030776Y-101664781D01*
X48848386Y-101757715D01*
X48682786Y-101878028D01*
X48538028Y-102022786D01*
X48417715Y-102188386D01*
X48370485Y-102281080D01*
X48322510Y-102331876D01*
X48254689Y-102348671D01*
X48188554Y-102326134D01*
X48149515Y-102281080D01*
X48131601Y-102245922D01*
X48102287Y-102188390D01*
X48070092Y-102144077D01*
X47981971Y-102022786D01*
X47837213Y-101878028D01*
X47671613Y-101757715D01*
X47671612Y-101757714D01*
X47671610Y-101757713D01*
X47610967Y-101726814D01*
X47489223Y-101664781D01*
X47294534Y-101601522D01*
X47111754Y-101572573D01*
X47092352Y-101569500D01*
X46887648Y-101569500D01*
X46868246Y-101572573D01*
X46685465Y-101601522D01*
X46490776Y-101664781D01*
X46308386Y-101757715D01*
X46142786Y-101878028D01*
X45998032Y-102022782D01*
X45998028Y-102022787D01*
X45929978Y-102116451D01*
X45874648Y-102159117D01*
X45805035Y-102165096D01*
X45743240Y-102132490D01*
X45711954Y-102082570D01*
X45692144Y-102022787D01*
X45684814Y-102000666D01*
X45592712Y-101851344D01*
X45468656Y-101727288D01*
X45347666Y-101652661D01*
X45319336Y-101635187D01*
X45319331Y-101635185D01*
X45313042Y-101633101D01*
X45152797Y-101580001D01*
X45152795Y-101580000D01*
X45050010Y-101569500D01*
X43849998Y-101569500D01*
X43849981Y-101569501D01*
X43747203Y-101580000D01*
X43747200Y-101580001D01*
X43580668Y-101635185D01*
X43580663Y-101635187D01*
X43431344Y-101727288D01*
X43418442Y-101740190D01*
X43357118Y-101773673D01*
X43287426Y-101768687D01*
X43231494Y-101726814D01*
X43207079Y-101661349D01*
X43208291Y-101633101D01*
X43210000Y-101622314D01*
X43210000Y-101417682D01*
X43177990Y-101215582D01*
X43114755Y-101020968D01*
X43021859Y-100838650D01*
X42989474Y-100794077D01*
X42989474Y-100794076D01*
X42310000Y-101473551D01*
X42310000Y-101467339D01*
X42282741Y-101365606D01*
X42230080Y-101274394D01*
X42155606Y-101199920D01*
X42064394Y-101147259D01*
X41962661Y-101120000D01*
X41956446Y-101120000D01*
X42635922Y-100440524D01*
X42635921Y-100440523D01*
X42591359Y-100408147D01*
X42591350Y-100408141D01*
X42409031Y-100315244D01*
X42214417Y-100252009D01*
X42012317Y-100220000D01*
X41807683Y-100220000D01*
X41605582Y-100252009D01*
X41410968Y-100315244D01*
X41228644Y-100408143D01*
X41184077Y-100440523D01*
X41184077Y-100440524D01*
X41863554Y-101120000D01*
X41857339Y-101120000D01*
X41755606Y-101147259D01*
X41664394Y-101199920D01*
X41589920Y-101274394D01*
X41537259Y-101365606D01*
X41510000Y-101467339D01*
X41510000Y-101473553D01*
X40830524Y-100794077D01*
X40830523Y-100794077D01*
X40798143Y-100838644D01*
X40705244Y-101020968D01*
X40642009Y-101215582D01*
X40610000Y-101417682D01*
X40610000Y-101622317D01*
X40642009Y-101824417D01*
X40705244Y-102019031D01*
X40798141Y-102201350D01*
X40798147Y-102201359D01*
X40830523Y-102245921D01*
X40830524Y-102245922D01*
X41510000Y-101566446D01*
X41510000Y-101572661D01*
X41537259Y-101674394D01*
X41589920Y-101765606D01*
X41664394Y-101840080D01*
X41755606Y-101892741D01*
X41857339Y-101920000D01*
X41863553Y-101920000D01*
X41184076Y-102599474D01*
X41228650Y-102631859D01*
X41410968Y-102724755D01*
X41605582Y-102787990D01*
X41807683Y-102820000D01*
X42012317Y-102820000D01*
X42214417Y-102787990D01*
X42409031Y-102724755D01*
X42591349Y-102631859D01*
X42635921Y-102599474D01*
X41956447Y-101920000D01*
X41962661Y-101920000D01*
X42064394Y-101892741D01*
X42155606Y-101840080D01*
X42230080Y-101765606D01*
X42282741Y-101674394D01*
X42310000Y-101572661D01*
X42310000Y-101566447D01*
X42989473Y-102245921D01*
X43015771Y-102243852D01*
X43084148Y-102258216D01*
X43133905Y-102307267D01*
X43149500Y-102367470D01*
X43149500Y-103470001D01*
X43149501Y-103470018D01*
X43160000Y-103572796D01*
X43160001Y-103572799D01*
X43186271Y-103652075D01*
X43215186Y-103739334D01*
X43307288Y-103888656D01*
X43431344Y-104012712D01*
X43580666Y-104104814D01*
X43747203Y-104159999D01*
X43849991Y-104170500D01*
X44849901Y-104170499D01*
X44916940Y-104190183D01*
X44937581Y-104206817D01*
X45228184Y-104497420D01*
X45228186Y-104497421D01*
X45228190Y-104497424D01*
X45314020Y-104546977D01*
X45365116Y-104576477D01*
X45517843Y-104617401D01*
X45517845Y-104617401D01*
X45683554Y-104617401D01*
X45683570Y-104617400D01*
X57574825Y-104617400D01*
X57641864Y-104637085D01*
X57687619Y-104689889D01*
X57689369Y-104693909D01*
X57710606Y-104745179D01*
X57710608Y-104745183D01*
X57798210Y-104876288D01*
X57798213Y-104876292D01*
X57909707Y-104987786D01*
X57909711Y-104987789D01*
X58040814Y-105075390D01*
X58040827Y-105075397D01*
X58167633Y-105127921D01*
X58186503Y-105135737D01*
X58334859Y-105165247D01*
X58341153Y-105166499D01*
X58341156Y-105166500D01*
X58341158Y-105166500D01*
X58498844Y-105166500D01*
X58498845Y-105166499D01*
X58653497Y-105135737D01*
X58799179Y-105075394D01*
X58845418Y-105044497D01*
X58912094Y-105023620D01*
X58914309Y-105023600D01*
X75291538Y-105023600D01*
X75358577Y-105043285D01*
X75404332Y-105096089D01*
X75414276Y-105165247D01*
X75406099Y-105195052D01*
X75373564Y-105273598D01*
X75373561Y-105273610D01*
X75342800Y-105428253D01*
X75342800Y-105585946D01*
X75374751Y-105746572D01*
X75373000Y-105746920D01*
X75373555Y-105808360D01*
X75336313Y-105867477D01*
X75273022Y-105897074D01*
X75254268Y-105898500D01*
X44407080Y-105898500D01*
X44262092Y-105927340D01*
X44262086Y-105927342D01*
X44125505Y-105983916D01*
X44125496Y-105983921D01*
X44119962Y-105987619D01*
X44119962Y-105987620D01*
X44002582Y-106066049D01*
X43505450Y-106563181D01*
X43444127Y-106596666D01*
X43417769Y-106599500D01*
X42282129Y-106599500D01*
X42282123Y-106599501D01*
X42222516Y-106605908D01*
X42087671Y-106656202D01*
X42087664Y-106656206D01*
X41972455Y-106742452D01*
X41972452Y-106742455D01*
X41886206Y-106857664D01*
X41886202Y-106857671D01*
X41835908Y-106992517D01*
X41831510Y-107033431D01*
X41829500Y-107052127D01*
X41829500Y-107757007D01*
X41829501Y-108387500D01*
X41809816Y-108454539D01*
X41757013Y-108500294D01*
X41705501Y-108511500D01*
X40832097Y-108511500D01*
X40765058Y-108491815D01*
X40744416Y-108475181D01*
X40006819Y-107737584D01*
X39973334Y-107676261D01*
X39970500Y-107649903D01*
X39970500Y-103980791D01*
X39990185Y-103913752D01*
X40021612Y-103880475D01*
X40152073Y-103785690D01*
X40285690Y-103652073D01*
X40396760Y-103499199D01*
X40482547Y-103330832D01*
X40540940Y-103151118D01*
X40544610Y-103127949D01*
X40570500Y-102964486D01*
X40570500Y-102775513D01*
X40540940Y-102588881D01*
X40505201Y-102478889D01*
X40482547Y-102409168D01*
X40482545Y-102409165D01*
X40482545Y-102409163D01*
X40426145Y-102298473D01*
X40396760Y-102240801D01*
X40285690Y-102087927D01*
X40152073Y-101954310D01*
X39999199Y-101843240D01*
X39962257Y-101824417D01*
X39830836Y-101757454D01*
X39651118Y-101699059D01*
X39464486Y-101669500D01*
X39464481Y-101669500D01*
X39275519Y-101669500D01*
X39275514Y-101669500D01*
X39088881Y-101699059D01*
X38909163Y-101757454D01*
X38740800Y-101843240D01*
X38672669Y-101892741D01*
X38587927Y-101954310D01*
X38587925Y-101954312D01*
X38587924Y-101954312D01*
X38454312Y-102087924D01*
X38454312Y-102087925D01*
X38454310Y-102087927D01*
X38406610Y-102153579D01*
X38343240Y-102240800D01*
X38257454Y-102409163D01*
X38199059Y-102588881D01*
X38169500Y-102775513D01*
X37330500Y-102775513D01*
X37330500Y-95155513D01*
X38169500Y-95155513D01*
X38169500Y-95344486D01*
X38199059Y-95531118D01*
X38257454Y-95710836D01*
X38332364Y-95857853D01*
X38343240Y-95879199D01*
X38454310Y-96032073D01*
X38587927Y-96165690D01*
X38740801Y-96276760D01*
X38816703Y-96315434D01*
X38909163Y-96362545D01*
X38909165Y-96362545D01*
X38909168Y-96362547D01*
X39005497Y-96393846D01*
X39088881Y-96420940D01*
X39275514Y-96450500D01*
X39275519Y-96450500D01*
X39464486Y-96450500D01*
X39651118Y-96420940D01*
X39692026Y-96407648D01*
X39830832Y-96362547D01*
X39999199Y-96276760D01*
X40152073Y-96165690D01*
X40285690Y-96032073D01*
X40396760Y-95879199D01*
X40482547Y-95710832D01*
X40540940Y-95531118D01*
X40543476Y-95515105D01*
X40570500Y-95344486D01*
X40570500Y-95155513D01*
X40540940Y-94968881D01*
X40505201Y-94858889D01*
X40482547Y-94789168D01*
X40482545Y-94789165D01*
X40482545Y-94789163D01*
X40396759Y-94620800D01*
X40285690Y-94467927D01*
X40152073Y-94334310D01*
X39999199Y-94223240D01*
X39830836Y-94137454D01*
X39651118Y-94079059D01*
X39464486Y-94049500D01*
X39464481Y-94049500D01*
X39275519Y-94049500D01*
X39275514Y-94049500D01*
X39088881Y-94079059D01*
X38909163Y-94137454D01*
X38740800Y-94223240D01*
X38692914Y-94258032D01*
X38587927Y-94334310D01*
X38587925Y-94334312D01*
X38587924Y-94334312D01*
X38454312Y-94467924D01*
X38454312Y-94467925D01*
X38454310Y-94467927D01*
X38406610Y-94533579D01*
X38343240Y-94620800D01*
X38257454Y-94789163D01*
X38199059Y-94968881D01*
X38169500Y-95155513D01*
X37330500Y-95155513D01*
X37330500Y-91301656D01*
X37350185Y-91234617D01*
X37402989Y-91188862D01*
X37472147Y-91178918D01*
X37535703Y-91207943D01*
X37561885Y-91239654D01*
X37619584Y-91339590D01*
X37619589Y-91339596D01*
X37619590Y-91339598D01*
X37787219Y-91558057D01*
X37787225Y-91558064D01*
X37981934Y-91752773D01*
X37981939Y-91752777D01*
X37981940Y-91752778D01*
X38200409Y-91920415D01*
X38438890Y-92058103D01*
X38559847Y-92108205D01*
X38693300Y-92163483D01*
X38693301Y-92163483D01*
X38693303Y-92163484D01*
X38959294Y-92234756D01*
X39218506Y-92268882D01*
X39232297Y-92270698D01*
X39232313Y-92270700D01*
X39232320Y-92270700D01*
X39507680Y-92270700D01*
X39507687Y-92270700D01*
X39780706Y-92234756D01*
X40046697Y-92163484D01*
X40301110Y-92058103D01*
X40539591Y-91920415D01*
X40758060Y-91752778D01*
X40952779Y-91558059D01*
X41120416Y-91339590D01*
X41258104Y-91101109D01*
X41363485Y-90846696D01*
X41434757Y-90580705D01*
X41470701Y-90307686D01*
X41470701Y-90032312D01*
X41434757Y-89759293D01*
X41363485Y-89493302D01*
X41258104Y-89238889D01*
X41120416Y-89000408D01*
X41033655Y-88887339D01*
X40952780Y-88781940D01*
X40952774Y-88781933D01*
X40758065Y-88587224D01*
X40758058Y-88587218D01*
X40539599Y-88419589D01*
X40539597Y-88419588D01*
X40539591Y-88419583D01*
X40301110Y-88281895D01*
X40301106Y-88281893D01*
X40046699Y-88176514D01*
X39893218Y-88135389D01*
X39780706Y-88105242D01*
X39746578Y-88100749D01*
X39507694Y-88069298D01*
X39507687Y-88069298D01*
X39232313Y-88069298D01*
X39232305Y-88069298D01*
X38959294Y-88105242D01*
X38693300Y-88176514D01*
X38438893Y-88281893D01*
X38438889Y-88281895D01*
X38200409Y-88419583D01*
X38200400Y-88419589D01*
X37981941Y-88587218D01*
X37981934Y-88587224D01*
X37787225Y-88781933D01*
X37787219Y-88781940D01*
X37619590Y-89000399D01*
X37619584Y-89000408D01*
X37565206Y-89094594D01*
X37561887Y-89100342D01*
X37511320Y-89148557D01*
X37442712Y-89161779D01*
X37377848Y-89135811D01*
X37337320Y-89078897D01*
X37330500Y-89038341D01*
X37330500Y-88000304D01*
X47022899Y-88000304D01*
X47022899Y-88275693D01*
X47041844Y-88419589D01*
X47058843Y-88548705D01*
X47077925Y-88619920D01*
X47130115Y-88814698D01*
X47235494Y-89069105D01*
X47235496Y-89069109D01*
X47373184Y-89307590D01*
X47373189Y-89307596D01*
X47373190Y-89307598D01*
X47540819Y-89526057D01*
X47540825Y-89526064D01*
X47735534Y-89720773D01*
X47735541Y-89720779D01*
X47768840Y-89746330D01*
X47954009Y-89888415D01*
X48192490Y-90026103D01*
X48302274Y-90071577D01*
X48446900Y-90131483D01*
X48446901Y-90131483D01*
X48446903Y-90131484D01*
X48712894Y-90202756D01*
X48985913Y-90238700D01*
X48985920Y-90238700D01*
X49261280Y-90238700D01*
X49261287Y-90238700D01*
X49534306Y-90202756D01*
X49800297Y-90131484D01*
X50054710Y-90026103D01*
X50293191Y-89888415D01*
X50511660Y-89720778D01*
X50706379Y-89526059D01*
X50874016Y-89307590D01*
X51011704Y-89069109D01*
X51117085Y-88814696D01*
X51188357Y-88548705D01*
X51224301Y-88275686D01*
X51224301Y-88000312D01*
X51188357Y-87727293D01*
X51117085Y-87461302D01*
X51112018Y-87449070D01*
X51011705Y-87206892D01*
X51011704Y-87206889D01*
X50874016Y-86968408D01*
X50725767Y-86775206D01*
X50706380Y-86749940D01*
X50706374Y-86749933D01*
X50511665Y-86555224D01*
X50511658Y-86555218D01*
X50293199Y-86387589D01*
X50293197Y-86387588D01*
X50293191Y-86387583D01*
X50054710Y-86249895D01*
X50054706Y-86249893D01*
X49800299Y-86144514D01*
X49622969Y-86096999D01*
X49534306Y-86073242D01*
X49500178Y-86068749D01*
X49261294Y-86037298D01*
X49261287Y-86037298D01*
X48985913Y-86037298D01*
X48985905Y-86037298D01*
X48712894Y-86073242D01*
X48446900Y-86144514D01*
X48192493Y-86249893D01*
X48192489Y-86249895D01*
X47954009Y-86387583D01*
X47954000Y-86387589D01*
X47735541Y-86555218D01*
X47735534Y-86555224D01*
X47540825Y-86749933D01*
X47540819Y-86749940D01*
X47373190Y-86968399D01*
X47373184Y-86968408D01*
X47235496Y-87206888D01*
X47235494Y-87206892D01*
X47130115Y-87461299D01*
X47058843Y-87727293D01*
X47022899Y-88000304D01*
X37330500Y-88000304D01*
X37330500Y-76099649D01*
X132075000Y-76099649D01*
X132075000Y-76300350D01*
X132106393Y-76498559D01*
X132168412Y-76689432D01*
X132259522Y-76868246D01*
X132288422Y-76908022D01*
X132288423Y-76908023D01*
X132867037Y-76329408D01*
X132884075Y-76392993D01*
X132949901Y-76507007D01*
X133042993Y-76600099D01*
X133157007Y-76665925D01*
X133220590Y-76682962D01*
X132641975Y-77261576D01*
X132681754Y-77290478D01*
X132860565Y-77381586D01*
X132890262Y-77391236D01*
X132947937Y-77430674D01*
X132975135Y-77495032D01*
X132963220Y-77563879D01*
X132915976Y-77615355D01*
X132893645Y-77625553D01*
X132893661Y-77625592D01*
X132892581Y-77626038D01*
X132890268Y-77627095D01*
X132889610Y-77627309D01*
X132889164Y-77627454D01*
X132720800Y-77713240D01*
X132633579Y-77776610D01*
X132567927Y-77824310D01*
X132567925Y-77824312D01*
X132567924Y-77824312D01*
X132434312Y-77957924D01*
X132434312Y-77957925D01*
X132434310Y-77957927D01*
X132386610Y-78023579D01*
X132323240Y-78110800D01*
X132237454Y-78279163D01*
X132179059Y-78458881D01*
X132149500Y-78645513D01*
X132149500Y-78834486D01*
X132179059Y-79021118D01*
X132237454Y-79200836D01*
X132323240Y-79369199D01*
X132434310Y-79522073D01*
X132567927Y-79655690D01*
X132720801Y-79766760D01*
X132800347Y-79807290D01*
X132889163Y-79852545D01*
X132889165Y-79852545D01*
X132889168Y-79852547D01*
X132985497Y-79883846D01*
X133068881Y-79910940D01*
X133255514Y-79940500D01*
X133255519Y-79940500D01*
X133444486Y-79940500D01*
X133631118Y-79910940D01*
X133810832Y-79852547D01*
X133979199Y-79766760D01*
X134132073Y-79655690D01*
X134265690Y-79522073D01*
X134376760Y-79369199D01*
X134462547Y-79200832D01*
X134520940Y-79021118D01*
X134550500Y-78834486D01*
X134550500Y-78645513D01*
X134520940Y-78458881D01*
X134462545Y-78279163D01*
X134376759Y-78110800D01*
X134265690Y-77957927D01*
X134132073Y-77824310D01*
X133979199Y-77713240D01*
X133810835Y-77627454D01*
X133810832Y-77627453D01*
X133809739Y-77627098D01*
X133809377Y-77626850D01*
X133806339Y-77625592D01*
X133806603Y-77624953D01*
X133752064Y-77587663D01*
X133724865Y-77523305D01*
X133736777Y-77454458D01*
X133784020Y-77402981D01*
X133809738Y-77391236D01*
X133839432Y-77381587D01*
X134018246Y-77290477D01*
X134058022Y-77261576D01*
X133479408Y-76682962D01*
X133542993Y-76665925D01*
X133657007Y-76600099D01*
X133750099Y-76507007D01*
X133815925Y-76392993D01*
X133832962Y-76329408D01*
X134411576Y-76908022D01*
X134440477Y-76868246D01*
X134531587Y-76689432D01*
X134593606Y-76498559D01*
X134625000Y-76300350D01*
X134625000Y-76099649D01*
X134593606Y-75901440D01*
X134531587Y-75710567D01*
X134440478Y-75531754D01*
X134411576Y-75491976D01*
X134411576Y-75491975D01*
X133832962Y-76070590D01*
X133815925Y-76007007D01*
X133750099Y-75892993D01*
X133657007Y-75799901D01*
X133542993Y-75734075D01*
X133479409Y-75717037D01*
X134058023Y-75138423D01*
X134058022Y-75138422D01*
X134018246Y-75109522D01*
X133839432Y-75018412D01*
X133648559Y-74956393D01*
X133450350Y-74925000D01*
X133249650Y-74925000D01*
X133051440Y-74956393D01*
X132860567Y-75018412D01*
X132681755Y-75109521D01*
X132641976Y-75138422D01*
X133220591Y-75717037D01*
X133157007Y-75734075D01*
X133042993Y-75799901D01*
X132949901Y-75892993D01*
X132884075Y-76007007D01*
X132867037Y-76070591D01*
X132288422Y-75491976D01*
X132259521Y-75531755D01*
X132168412Y-75710567D01*
X132106393Y-75901440D01*
X132075000Y-76099649D01*
X37330500Y-76099649D01*
X37330500Y-54734000D01*
X37350185Y-54666961D01*
X37402989Y-54621206D01*
X37454500Y-54610000D01*
X40267717Y-54610000D01*
X40334756Y-54629685D01*
G37*
%TD.AperFunction*%
%TD*%
M02*
