%TF.GenerationSoftware,KiCad,Pcbnew,9.0.6*%
%TF.CreationDate,2025-12-13T09:12:39-08:00*%
%TF.ProjectId,LCDdisplayController,4c434464-6973-4706-9c61-79436f6e7472,rev?*%
%TF.SameCoordinates,Original*%
%TF.FileFunction,Profile,NP*%
%FSLAX46Y46*%
G04 Gerber Fmt 4.6, Leading zero omitted, Abs format (unit mm)*
G04 Created by KiCad (PCBNEW 9.0.6) date 2025-12-13 09:12:39*
%MOMM*%
%LPD*%
G01*
G04 APERTURE LIST*
%TA.AperFunction,Profile*%
%ADD10C,0.050000*%
%TD*%
G04 APERTURE END LIST*
D10*
X41275000Y-54610000D02*
X55753000Y-54610000D01*
X50723801Y-57148221D02*
G75*
G02*
X47523399Y-57148221I-1600201J0D01*
G01*
X47523399Y-57148221D02*
G75*
G02*
X50723801Y-57148221I1600201J0D01*
G01*
X60960000Y-54610000D02*
X83058000Y-54610000D01*
X133032500Y-53340000D02*
G75*
G02*
X133032500Y-54610000I0J-635000D01*
G01*
X41275000Y-54610000D02*
G75*
G02*
X41275000Y-53340000I0J635000D01*
G01*
X87312500Y-54610000D02*
G75*
G02*
X87312500Y-53340000I0J635000D01*
G01*
X60960000Y-54610000D02*
G75*
G02*
X60960000Y-53340000I0J635000D01*
G01*
X113030000Y-53340000D02*
X133032500Y-53340000D01*
X134950200Y-35559999D02*
G75*
G02*
X131749800Y-35559999I-1600200J0D01*
G01*
X131749800Y-35559999D02*
G75*
G02*
X134950200Y-35559999I1600200J0D01*
G01*
X87312500Y-53340000D02*
X107950000Y-53340000D01*
X60960000Y-53340000D02*
X83058000Y-53340000D01*
X36830000Y-33020000D02*
X135890000Y-33020000D01*
X135890000Y-110490000D01*
X36830000Y-110490000D01*
X36830000Y-33020000D01*
X113030000Y-54610000D02*
G75*
G02*
X113030000Y-53340000I0J635000D01*
G01*
X83058000Y-53340000D02*
G75*
G02*
X83058000Y-54610000I0J-635000D01*
G01*
X41275000Y-53340000D02*
X55753000Y-53340000D01*
X125704802Y-88163399D02*
G75*
G02*
X122503998Y-88163399I-1600402J0D01*
G01*
X122503998Y-88163399D02*
G75*
G02*
X125704802Y-88163399I1600402J0D01*
G01*
X134950200Y-90169999D02*
G75*
G02*
X131749800Y-90169999I-1600200J0D01*
G01*
X131749800Y-90169999D02*
G75*
G02*
X134950200Y-90169999I1600200J0D01*
G01*
X125704611Y-57144145D02*
G75*
G02*
X122504189Y-57144145I-1600211J0D01*
G01*
X122504189Y-57144145D02*
G75*
G02*
X125704611Y-57144145I1600211J0D01*
G01*
X50723801Y-88137999D02*
G75*
G02*
X47523399Y-88137999I-1600201J0D01*
G01*
X47523399Y-88137999D02*
G75*
G02*
X50723801Y-88137999I1600201J0D01*
G01*
X107950000Y-53340000D02*
G75*
G02*
X107950000Y-54610000I0J-635000D01*
G01*
X40970201Y-90169999D02*
G75*
G02*
X37769799Y-90169999I-1600201J0D01*
G01*
X37769799Y-90169999D02*
G75*
G02*
X40970201Y-90169999I1600201J0D01*
G01*
X87312500Y-54610000D02*
X107950000Y-54610000D01*
X40970200Y-35560000D02*
G75*
G02*
X37769798Y-35560000I-1600201J0D01*
G01*
X37769798Y-35560000D02*
G75*
G02*
X40970200Y-35560000I1600201J0D01*
G01*
X55753000Y-53340000D02*
G75*
G02*
X55753000Y-54610000I0J-635000D01*
G01*
X113030000Y-54610000D02*
X133032500Y-54610000D01*
M02*
