%TF.GenerationSoftware,KiCad,Pcbnew,9.0.4*%
%TF.CreationDate,2025-11-12T17:03:00-08:00*%
%TF.ProjectId,LCDdisplayController,4c434464-6973-4706-9c61-79436f6e7472,rev?*%
%TF.SameCoordinates,Original*%
%TF.FileFunction,Legend,Top*%
%TF.FilePolarity,Positive*%
%FSLAX46Y46*%
G04 Gerber Fmt 4.6, Leading zero omitted, Abs format (unit mm)*
G04 Created by KiCad (PCBNEW 9.0.4) date 2025-11-12 17:03:00*
%MOMM*%
%LPD*%
G01*
G04 APERTURE LIST*
%ADD10C,0.100000*%
%ADD11C,0.150000*%
%ADD12C,0.120000*%
G04 APERTURE END LIST*
D10*
X36830000Y-32717500D02*
X135636000Y-32717500D01*
X135636000Y-93042500D01*
X36830000Y-93042500D01*
X36830000Y-32717500D01*
X104791902Y-61422531D02*
X104315712Y-61422531D01*
X104315712Y-61422531D02*
X104315712Y-60422531D01*
X105696664Y-61327292D02*
X105649045Y-61374912D01*
X105649045Y-61374912D02*
X105506188Y-61422531D01*
X105506188Y-61422531D02*
X105410950Y-61422531D01*
X105410950Y-61422531D02*
X105268093Y-61374912D01*
X105268093Y-61374912D02*
X105172855Y-61279673D01*
X105172855Y-61279673D02*
X105125236Y-61184435D01*
X105125236Y-61184435D02*
X105077617Y-60993959D01*
X105077617Y-60993959D02*
X105077617Y-60851102D01*
X105077617Y-60851102D02*
X105125236Y-60660626D01*
X105125236Y-60660626D02*
X105172855Y-60565388D01*
X105172855Y-60565388D02*
X105268093Y-60470150D01*
X105268093Y-60470150D02*
X105410950Y-60422531D01*
X105410950Y-60422531D02*
X105506188Y-60422531D01*
X105506188Y-60422531D02*
X105649045Y-60470150D01*
X105649045Y-60470150D02*
X105696664Y-60517769D01*
X106125236Y-61422531D02*
X106125236Y-60422531D01*
X106125236Y-60422531D02*
X106363331Y-60422531D01*
X106363331Y-60422531D02*
X106506188Y-60470150D01*
X106506188Y-60470150D02*
X106601426Y-60565388D01*
X106601426Y-60565388D02*
X106649045Y-60660626D01*
X106649045Y-60660626D02*
X106696664Y-60851102D01*
X106696664Y-60851102D02*
X106696664Y-60993959D01*
X106696664Y-60993959D02*
X106649045Y-61184435D01*
X106649045Y-61184435D02*
X106601426Y-61279673D01*
X106601426Y-61279673D02*
X106506188Y-61374912D01*
X106506188Y-61374912D02*
X106363331Y-61422531D01*
X106363331Y-61422531D02*
X106125236Y-61422531D01*
X107887141Y-61422531D02*
X107887141Y-60422531D01*
X107887141Y-60422531D02*
X108125236Y-60422531D01*
X108125236Y-60422531D02*
X108268093Y-60470150D01*
X108268093Y-60470150D02*
X108363331Y-60565388D01*
X108363331Y-60565388D02*
X108410950Y-60660626D01*
X108410950Y-60660626D02*
X108458569Y-60851102D01*
X108458569Y-60851102D02*
X108458569Y-60993959D01*
X108458569Y-60993959D02*
X108410950Y-61184435D01*
X108410950Y-61184435D02*
X108363331Y-61279673D01*
X108363331Y-61279673D02*
X108268093Y-61374912D01*
X108268093Y-61374912D02*
X108125236Y-61422531D01*
X108125236Y-61422531D02*
X107887141Y-61422531D01*
X108887141Y-61422531D02*
X108887141Y-60755864D01*
X108887141Y-60422531D02*
X108839522Y-60470150D01*
X108839522Y-60470150D02*
X108887141Y-60517769D01*
X108887141Y-60517769D02*
X108934760Y-60470150D01*
X108934760Y-60470150D02*
X108887141Y-60422531D01*
X108887141Y-60422531D02*
X108887141Y-60517769D01*
X109315712Y-61374912D02*
X109410950Y-61422531D01*
X109410950Y-61422531D02*
X109601426Y-61422531D01*
X109601426Y-61422531D02*
X109696664Y-61374912D01*
X109696664Y-61374912D02*
X109744283Y-61279673D01*
X109744283Y-61279673D02*
X109744283Y-61232054D01*
X109744283Y-61232054D02*
X109696664Y-61136816D01*
X109696664Y-61136816D02*
X109601426Y-61089197D01*
X109601426Y-61089197D02*
X109458569Y-61089197D01*
X109458569Y-61089197D02*
X109363331Y-61041578D01*
X109363331Y-61041578D02*
X109315712Y-60946340D01*
X109315712Y-60946340D02*
X109315712Y-60898721D01*
X109315712Y-60898721D02*
X109363331Y-60803483D01*
X109363331Y-60803483D02*
X109458569Y-60755864D01*
X109458569Y-60755864D02*
X109601426Y-60755864D01*
X109601426Y-60755864D02*
X109696664Y-60803483D01*
X110172855Y-60755864D02*
X110172855Y-61755864D01*
X110172855Y-60803483D02*
X110268093Y-60755864D01*
X110268093Y-60755864D02*
X110458569Y-60755864D01*
X110458569Y-60755864D02*
X110553807Y-60803483D01*
X110553807Y-60803483D02*
X110601426Y-60851102D01*
X110601426Y-60851102D02*
X110649045Y-60946340D01*
X110649045Y-60946340D02*
X110649045Y-61232054D01*
X110649045Y-61232054D02*
X110601426Y-61327292D01*
X110601426Y-61327292D02*
X110553807Y-61374912D01*
X110553807Y-61374912D02*
X110458569Y-61422531D01*
X110458569Y-61422531D02*
X110268093Y-61422531D01*
X110268093Y-61422531D02*
X110172855Y-61374912D01*
X111220474Y-61422531D02*
X111125236Y-61374912D01*
X111125236Y-61374912D02*
X111077617Y-61279673D01*
X111077617Y-61279673D02*
X111077617Y-60422531D01*
X112029998Y-61422531D02*
X112029998Y-60898721D01*
X112029998Y-60898721D02*
X111982379Y-60803483D01*
X111982379Y-60803483D02*
X111887141Y-60755864D01*
X111887141Y-60755864D02*
X111696665Y-60755864D01*
X111696665Y-60755864D02*
X111601427Y-60803483D01*
X112029998Y-61374912D02*
X111934760Y-61422531D01*
X111934760Y-61422531D02*
X111696665Y-61422531D01*
X111696665Y-61422531D02*
X111601427Y-61374912D01*
X111601427Y-61374912D02*
X111553808Y-61279673D01*
X111553808Y-61279673D02*
X111553808Y-61184435D01*
X111553808Y-61184435D02*
X111601427Y-61089197D01*
X111601427Y-61089197D02*
X111696665Y-61041578D01*
X111696665Y-61041578D02*
X111934760Y-61041578D01*
X111934760Y-61041578D02*
X112029998Y-60993959D01*
X112410951Y-60755864D02*
X112649046Y-61422531D01*
X112887141Y-60755864D02*
X112649046Y-61422531D01*
X112649046Y-61422531D02*
X112553808Y-61660626D01*
X112553808Y-61660626D02*
X112506189Y-61708245D01*
X112506189Y-61708245D02*
X112410951Y-61755864D01*
X114601427Y-61327292D02*
X114553808Y-61374912D01*
X114553808Y-61374912D02*
X114410951Y-61422531D01*
X114410951Y-61422531D02*
X114315713Y-61422531D01*
X114315713Y-61422531D02*
X114172856Y-61374912D01*
X114172856Y-61374912D02*
X114077618Y-61279673D01*
X114077618Y-61279673D02*
X114029999Y-61184435D01*
X114029999Y-61184435D02*
X113982380Y-60993959D01*
X113982380Y-60993959D02*
X113982380Y-60851102D01*
X113982380Y-60851102D02*
X114029999Y-60660626D01*
X114029999Y-60660626D02*
X114077618Y-60565388D01*
X114077618Y-60565388D02*
X114172856Y-60470150D01*
X114172856Y-60470150D02*
X114315713Y-60422531D01*
X114315713Y-60422531D02*
X114410951Y-60422531D01*
X114410951Y-60422531D02*
X114553808Y-60470150D01*
X114553808Y-60470150D02*
X114601427Y-60517769D01*
X115172856Y-61422531D02*
X115077618Y-61374912D01*
X115077618Y-61374912D02*
X115029999Y-61327292D01*
X115029999Y-61327292D02*
X114982380Y-61232054D01*
X114982380Y-61232054D02*
X114982380Y-60946340D01*
X114982380Y-60946340D02*
X115029999Y-60851102D01*
X115029999Y-60851102D02*
X115077618Y-60803483D01*
X115077618Y-60803483D02*
X115172856Y-60755864D01*
X115172856Y-60755864D02*
X115315713Y-60755864D01*
X115315713Y-60755864D02*
X115410951Y-60803483D01*
X115410951Y-60803483D02*
X115458570Y-60851102D01*
X115458570Y-60851102D02*
X115506189Y-60946340D01*
X115506189Y-60946340D02*
X115506189Y-61232054D01*
X115506189Y-61232054D02*
X115458570Y-61327292D01*
X115458570Y-61327292D02*
X115410951Y-61374912D01*
X115410951Y-61374912D02*
X115315713Y-61422531D01*
X115315713Y-61422531D02*
X115172856Y-61422531D01*
X115934761Y-60755864D02*
X115934761Y-61422531D01*
X115934761Y-60851102D02*
X115982380Y-60803483D01*
X115982380Y-60803483D02*
X116077618Y-60755864D01*
X116077618Y-60755864D02*
X116220475Y-60755864D01*
X116220475Y-60755864D02*
X116315713Y-60803483D01*
X116315713Y-60803483D02*
X116363332Y-60898721D01*
X116363332Y-60898721D02*
X116363332Y-61422531D01*
X116696666Y-60755864D02*
X117077618Y-60755864D01*
X116839523Y-60422531D02*
X116839523Y-61279673D01*
X116839523Y-61279673D02*
X116887142Y-61374912D01*
X116887142Y-61374912D02*
X116982380Y-61422531D01*
X116982380Y-61422531D02*
X117077618Y-61422531D01*
X117410952Y-61422531D02*
X117410952Y-60755864D01*
X117410952Y-60946340D02*
X117458571Y-60851102D01*
X117458571Y-60851102D02*
X117506190Y-60803483D01*
X117506190Y-60803483D02*
X117601428Y-60755864D01*
X117601428Y-60755864D02*
X117696666Y-60755864D01*
X118172857Y-61422531D02*
X118077619Y-61374912D01*
X118077619Y-61374912D02*
X118030000Y-61327292D01*
X118030000Y-61327292D02*
X117982381Y-61232054D01*
X117982381Y-61232054D02*
X117982381Y-60946340D01*
X117982381Y-60946340D02*
X118030000Y-60851102D01*
X118030000Y-60851102D02*
X118077619Y-60803483D01*
X118077619Y-60803483D02*
X118172857Y-60755864D01*
X118172857Y-60755864D02*
X118315714Y-60755864D01*
X118315714Y-60755864D02*
X118410952Y-60803483D01*
X118410952Y-60803483D02*
X118458571Y-60851102D01*
X118458571Y-60851102D02*
X118506190Y-60946340D01*
X118506190Y-60946340D02*
X118506190Y-61232054D01*
X118506190Y-61232054D02*
X118458571Y-61327292D01*
X118458571Y-61327292D02*
X118410952Y-61374912D01*
X118410952Y-61374912D02*
X118315714Y-61422531D01*
X118315714Y-61422531D02*
X118172857Y-61422531D01*
X119077619Y-61422531D02*
X118982381Y-61374912D01*
X118982381Y-61374912D02*
X118934762Y-61279673D01*
X118934762Y-61279673D02*
X118934762Y-60422531D01*
X119601429Y-61422531D02*
X119506191Y-61374912D01*
X119506191Y-61374912D02*
X119458572Y-61279673D01*
X119458572Y-61279673D02*
X119458572Y-60422531D01*
X120363334Y-61374912D02*
X120268096Y-61422531D01*
X120268096Y-61422531D02*
X120077620Y-61422531D01*
X120077620Y-61422531D02*
X119982382Y-61374912D01*
X119982382Y-61374912D02*
X119934763Y-61279673D01*
X119934763Y-61279673D02*
X119934763Y-60898721D01*
X119934763Y-60898721D02*
X119982382Y-60803483D01*
X119982382Y-60803483D02*
X120077620Y-60755864D01*
X120077620Y-60755864D02*
X120268096Y-60755864D01*
X120268096Y-60755864D02*
X120363334Y-60803483D01*
X120363334Y-60803483D02*
X120410953Y-60898721D01*
X120410953Y-60898721D02*
X120410953Y-60993959D01*
X120410953Y-60993959D02*
X119934763Y-61089197D01*
X120839525Y-61422531D02*
X120839525Y-60755864D01*
X120839525Y-60946340D02*
X120887144Y-60851102D01*
X120887144Y-60851102D02*
X120934763Y-60803483D01*
X120934763Y-60803483D02*
X121030001Y-60755864D01*
X121030001Y-60755864D02*
X121125239Y-60755864D01*
X107458570Y-62984856D02*
X107601427Y-63032475D01*
X107601427Y-63032475D02*
X107839522Y-63032475D01*
X107839522Y-63032475D02*
X107934760Y-62984856D01*
X107934760Y-62984856D02*
X107982379Y-62937236D01*
X107982379Y-62937236D02*
X108029998Y-62841998D01*
X108029998Y-62841998D02*
X108029998Y-62746760D01*
X108029998Y-62746760D02*
X107982379Y-62651522D01*
X107982379Y-62651522D02*
X107934760Y-62603903D01*
X107934760Y-62603903D02*
X107839522Y-62556284D01*
X107839522Y-62556284D02*
X107649046Y-62508665D01*
X107649046Y-62508665D02*
X107553808Y-62461046D01*
X107553808Y-62461046D02*
X107506189Y-62413427D01*
X107506189Y-62413427D02*
X107458570Y-62318189D01*
X107458570Y-62318189D02*
X107458570Y-62222951D01*
X107458570Y-62222951D02*
X107506189Y-62127713D01*
X107506189Y-62127713D02*
X107553808Y-62080094D01*
X107553808Y-62080094D02*
X107649046Y-62032475D01*
X107649046Y-62032475D02*
X107887141Y-62032475D01*
X107887141Y-62032475D02*
X108029998Y-62080094D01*
X108315713Y-62365808D02*
X108696665Y-62365808D01*
X108458570Y-62032475D02*
X108458570Y-62889617D01*
X108458570Y-62889617D02*
X108506189Y-62984856D01*
X108506189Y-62984856D02*
X108601427Y-63032475D01*
X108601427Y-63032475D02*
X108696665Y-63032475D01*
X109410951Y-62984856D02*
X109315713Y-63032475D01*
X109315713Y-63032475D02*
X109125237Y-63032475D01*
X109125237Y-63032475D02*
X109029999Y-62984856D01*
X109029999Y-62984856D02*
X108982380Y-62889617D01*
X108982380Y-62889617D02*
X108982380Y-62508665D01*
X108982380Y-62508665D02*
X109029999Y-62413427D01*
X109029999Y-62413427D02*
X109125237Y-62365808D01*
X109125237Y-62365808D02*
X109315713Y-62365808D01*
X109315713Y-62365808D02*
X109410951Y-62413427D01*
X109410951Y-62413427D02*
X109458570Y-62508665D01*
X109458570Y-62508665D02*
X109458570Y-62603903D01*
X109458570Y-62603903D02*
X108982380Y-62699141D01*
X109744285Y-62365808D02*
X110125237Y-62365808D01*
X109887142Y-63032475D02*
X109887142Y-62175332D01*
X109887142Y-62175332D02*
X109934761Y-62080094D01*
X109934761Y-62080094D02*
X110029999Y-62032475D01*
X110029999Y-62032475D02*
X110125237Y-62032475D01*
X110887142Y-63032475D02*
X110887142Y-62508665D01*
X110887142Y-62508665D02*
X110839523Y-62413427D01*
X110839523Y-62413427D02*
X110744285Y-62365808D01*
X110744285Y-62365808D02*
X110553809Y-62365808D01*
X110553809Y-62365808D02*
X110458571Y-62413427D01*
X110887142Y-62984856D02*
X110791904Y-63032475D01*
X110791904Y-63032475D02*
X110553809Y-63032475D01*
X110553809Y-63032475D02*
X110458571Y-62984856D01*
X110458571Y-62984856D02*
X110410952Y-62889617D01*
X110410952Y-62889617D02*
X110410952Y-62794379D01*
X110410952Y-62794379D02*
X110458571Y-62699141D01*
X110458571Y-62699141D02*
X110553809Y-62651522D01*
X110553809Y-62651522D02*
X110791904Y-62651522D01*
X110791904Y-62651522D02*
X110887142Y-62603903D01*
X111363333Y-62365808D02*
X111363333Y-63032475D01*
X111363333Y-62461046D02*
X111410952Y-62413427D01*
X111410952Y-62413427D02*
X111506190Y-62365808D01*
X111506190Y-62365808D02*
X111649047Y-62365808D01*
X111649047Y-62365808D02*
X111744285Y-62413427D01*
X111744285Y-62413427D02*
X111791904Y-62508665D01*
X111791904Y-62508665D02*
X111791904Y-63032475D01*
X112934762Y-62032475D02*
X113172857Y-63032475D01*
X113172857Y-63032475D02*
X113363333Y-62318189D01*
X113363333Y-62318189D02*
X113553809Y-63032475D01*
X113553809Y-63032475D02*
X113791905Y-62032475D01*
X114601428Y-63032475D02*
X114601428Y-62508665D01*
X114601428Y-62508665D02*
X114553809Y-62413427D01*
X114553809Y-62413427D02*
X114458571Y-62365808D01*
X114458571Y-62365808D02*
X114268095Y-62365808D01*
X114268095Y-62365808D02*
X114172857Y-62413427D01*
X114601428Y-62984856D02*
X114506190Y-63032475D01*
X114506190Y-63032475D02*
X114268095Y-63032475D01*
X114268095Y-63032475D02*
X114172857Y-62984856D01*
X114172857Y-62984856D02*
X114125238Y-62889617D01*
X114125238Y-62889617D02*
X114125238Y-62794379D01*
X114125238Y-62794379D02*
X114172857Y-62699141D01*
X114172857Y-62699141D02*
X114268095Y-62651522D01*
X114268095Y-62651522D02*
X114506190Y-62651522D01*
X114506190Y-62651522D02*
X114601428Y-62603903D01*
X115077619Y-63032475D02*
X115077619Y-62365808D01*
X115077619Y-62556284D02*
X115125238Y-62461046D01*
X115125238Y-62461046D02*
X115172857Y-62413427D01*
X115172857Y-62413427D02*
X115268095Y-62365808D01*
X115268095Y-62365808D02*
X115363333Y-62365808D01*
X115696667Y-62365808D02*
X115696667Y-63032475D01*
X115696667Y-62461046D02*
X115744286Y-62413427D01*
X115744286Y-62413427D02*
X115839524Y-62365808D01*
X115839524Y-62365808D02*
X115982381Y-62365808D01*
X115982381Y-62365808D02*
X116077619Y-62413427D01*
X116077619Y-62413427D02*
X116125238Y-62508665D01*
X116125238Y-62508665D02*
X116125238Y-63032475D01*
X116601429Y-63032475D02*
X116601429Y-62032475D01*
X116696667Y-62651522D02*
X116982381Y-63032475D01*
X116982381Y-62365808D02*
X116601429Y-62746760D01*
X117791905Y-62984856D02*
X117696667Y-63032475D01*
X117696667Y-63032475D02*
X117506191Y-63032475D01*
X117506191Y-63032475D02*
X117410953Y-62984856D01*
X117410953Y-62984856D02*
X117363334Y-62889617D01*
X117363334Y-62889617D02*
X117363334Y-62508665D01*
X117363334Y-62508665D02*
X117410953Y-62413427D01*
X117410953Y-62413427D02*
X117506191Y-62365808D01*
X117506191Y-62365808D02*
X117696667Y-62365808D01*
X117696667Y-62365808D02*
X117791905Y-62413427D01*
X117791905Y-62413427D02*
X117839524Y-62508665D01*
X117839524Y-62508665D02*
X117839524Y-62603903D01*
X117839524Y-62603903D02*
X117363334Y-62699141D01*
X111720475Y-64642419D02*
X111387142Y-64166228D01*
X111149047Y-64642419D02*
X111149047Y-63642419D01*
X111149047Y-63642419D02*
X111529999Y-63642419D01*
X111529999Y-63642419D02*
X111625237Y-63690038D01*
X111625237Y-63690038D02*
X111672856Y-63737657D01*
X111672856Y-63737657D02*
X111720475Y-63832895D01*
X111720475Y-63832895D02*
X111720475Y-63975752D01*
X111720475Y-63975752D02*
X111672856Y-64070990D01*
X111672856Y-64070990D02*
X111625237Y-64118609D01*
X111625237Y-64118609D02*
X111529999Y-64166228D01*
X111529999Y-64166228D02*
X111149047Y-64166228D01*
X112529999Y-64594800D02*
X112434761Y-64642419D01*
X112434761Y-64642419D02*
X112244285Y-64642419D01*
X112244285Y-64642419D02*
X112149047Y-64594800D01*
X112149047Y-64594800D02*
X112101428Y-64499561D01*
X112101428Y-64499561D02*
X112101428Y-64118609D01*
X112101428Y-64118609D02*
X112149047Y-64023371D01*
X112149047Y-64023371D02*
X112244285Y-63975752D01*
X112244285Y-63975752D02*
X112434761Y-63975752D01*
X112434761Y-63975752D02*
X112529999Y-64023371D01*
X112529999Y-64023371D02*
X112577618Y-64118609D01*
X112577618Y-64118609D02*
X112577618Y-64213847D01*
X112577618Y-64213847D02*
X112101428Y-64309085D01*
X112910952Y-63975752D02*
X113149047Y-64642419D01*
X113149047Y-64642419D02*
X113387142Y-63975752D01*
X114482381Y-64356704D02*
X114958571Y-64356704D01*
X114387143Y-64642419D02*
X114720476Y-63642419D01*
X114720476Y-63642419D02*
X115053809Y-64642419D01*
D11*
X70358095Y-104864819D02*
X70358095Y-105674342D01*
X70358095Y-105674342D02*
X70405714Y-105769580D01*
X70405714Y-105769580D02*
X70453333Y-105817200D01*
X70453333Y-105817200D02*
X70548571Y-105864819D01*
X70548571Y-105864819D02*
X70739047Y-105864819D01*
X70739047Y-105864819D02*
X70834285Y-105817200D01*
X70834285Y-105817200D02*
X70881904Y-105769580D01*
X70881904Y-105769580D02*
X70929523Y-105674342D01*
X70929523Y-105674342D02*
X70929523Y-104864819D01*
X71310476Y-104864819D02*
X71929523Y-104864819D01*
X71929523Y-104864819D02*
X71596190Y-105245771D01*
X71596190Y-105245771D02*
X71739047Y-105245771D01*
X71739047Y-105245771D02*
X71834285Y-105293390D01*
X71834285Y-105293390D02*
X71881904Y-105341009D01*
X71881904Y-105341009D02*
X71929523Y-105436247D01*
X71929523Y-105436247D02*
X71929523Y-105674342D01*
X71929523Y-105674342D02*
X71881904Y-105769580D01*
X71881904Y-105769580D02*
X71834285Y-105817200D01*
X71834285Y-105817200D02*
X71739047Y-105864819D01*
X71739047Y-105864819D02*
X71453333Y-105864819D01*
X71453333Y-105864819D02*
X71358095Y-105817200D01*
X71358095Y-105817200D02*
X71310476Y-105769580D01*
X82463333Y-105579104D02*
X82939523Y-105579104D01*
X82368095Y-105864819D02*
X82701428Y-104864819D01*
X82701428Y-104864819D02*
X83034761Y-105864819D01*
X83225238Y-104864819D02*
X83796666Y-104864819D01*
X83510952Y-105864819D02*
X83510952Y-104864819D01*
X84130000Y-105864819D02*
X84130000Y-105198152D01*
X84130000Y-105293390D02*
X84177619Y-105245771D01*
X84177619Y-105245771D02*
X84272857Y-105198152D01*
X84272857Y-105198152D02*
X84415714Y-105198152D01*
X84415714Y-105198152D02*
X84510952Y-105245771D01*
X84510952Y-105245771D02*
X84558571Y-105341009D01*
X84558571Y-105341009D02*
X84558571Y-105864819D01*
X84558571Y-105341009D02*
X84606190Y-105245771D01*
X84606190Y-105245771D02*
X84701428Y-105198152D01*
X84701428Y-105198152D02*
X84844285Y-105198152D01*
X84844285Y-105198152D02*
X84939524Y-105245771D01*
X84939524Y-105245771D02*
X84987143Y-105341009D01*
X84987143Y-105341009D02*
X84987143Y-105864819D01*
X85844285Y-105817200D02*
X85749047Y-105864819D01*
X85749047Y-105864819D02*
X85558571Y-105864819D01*
X85558571Y-105864819D02*
X85463333Y-105817200D01*
X85463333Y-105817200D02*
X85415714Y-105721961D01*
X85415714Y-105721961D02*
X85415714Y-105341009D01*
X85415714Y-105341009D02*
X85463333Y-105245771D01*
X85463333Y-105245771D02*
X85558571Y-105198152D01*
X85558571Y-105198152D02*
X85749047Y-105198152D01*
X85749047Y-105198152D02*
X85844285Y-105245771D01*
X85844285Y-105245771D02*
X85891904Y-105341009D01*
X85891904Y-105341009D02*
X85891904Y-105436247D01*
X85891904Y-105436247D02*
X85415714Y-105531485D01*
X86749047Y-105198152D02*
X86749047Y-106007676D01*
X86749047Y-106007676D02*
X86701428Y-106102914D01*
X86701428Y-106102914D02*
X86653809Y-106150533D01*
X86653809Y-106150533D02*
X86558571Y-106198152D01*
X86558571Y-106198152D02*
X86415714Y-106198152D01*
X86415714Y-106198152D02*
X86320476Y-106150533D01*
X86749047Y-105817200D02*
X86653809Y-105864819D01*
X86653809Y-105864819D02*
X86463333Y-105864819D01*
X86463333Y-105864819D02*
X86368095Y-105817200D01*
X86368095Y-105817200D02*
X86320476Y-105769580D01*
X86320476Y-105769580D02*
X86272857Y-105674342D01*
X86272857Y-105674342D02*
X86272857Y-105388628D01*
X86272857Y-105388628D02*
X86320476Y-105293390D01*
X86320476Y-105293390D02*
X86368095Y-105245771D01*
X86368095Y-105245771D02*
X86463333Y-105198152D01*
X86463333Y-105198152D02*
X86653809Y-105198152D01*
X86653809Y-105198152D02*
X86749047Y-105245771D01*
X87653809Y-105864819D02*
X87653809Y-105341009D01*
X87653809Y-105341009D02*
X87606190Y-105245771D01*
X87606190Y-105245771D02*
X87510952Y-105198152D01*
X87510952Y-105198152D02*
X87320476Y-105198152D01*
X87320476Y-105198152D02*
X87225238Y-105245771D01*
X87653809Y-105817200D02*
X87558571Y-105864819D01*
X87558571Y-105864819D02*
X87320476Y-105864819D01*
X87320476Y-105864819D02*
X87225238Y-105817200D01*
X87225238Y-105817200D02*
X87177619Y-105721961D01*
X87177619Y-105721961D02*
X87177619Y-105626723D01*
X87177619Y-105626723D02*
X87225238Y-105531485D01*
X87225238Y-105531485D02*
X87320476Y-105483866D01*
X87320476Y-105483866D02*
X87558571Y-105483866D01*
X87558571Y-105483866D02*
X87653809Y-105436247D01*
X88034762Y-104864819D02*
X88653809Y-104864819D01*
X88653809Y-104864819D02*
X88320476Y-105245771D01*
X88320476Y-105245771D02*
X88463333Y-105245771D01*
X88463333Y-105245771D02*
X88558571Y-105293390D01*
X88558571Y-105293390D02*
X88606190Y-105341009D01*
X88606190Y-105341009D02*
X88653809Y-105436247D01*
X88653809Y-105436247D02*
X88653809Y-105674342D01*
X88653809Y-105674342D02*
X88606190Y-105769580D01*
X88606190Y-105769580D02*
X88558571Y-105817200D01*
X88558571Y-105817200D02*
X88463333Y-105864819D01*
X88463333Y-105864819D02*
X88177619Y-105864819D01*
X88177619Y-105864819D02*
X88082381Y-105817200D01*
X88082381Y-105817200D02*
X88034762Y-105769580D01*
X89034762Y-104960057D02*
X89082381Y-104912438D01*
X89082381Y-104912438D02*
X89177619Y-104864819D01*
X89177619Y-104864819D02*
X89415714Y-104864819D01*
X89415714Y-104864819D02*
X89510952Y-104912438D01*
X89510952Y-104912438D02*
X89558571Y-104960057D01*
X89558571Y-104960057D02*
X89606190Y-105055295D01*
X89606190Y-105055295D02*
X89606190Y-105150533D01*
X89606190Y-105150533D02*
X89558571Y-105293390D01*
X89558571Y-105293390D02*
X88987143Y-105864819D01*
X88987143Y-105864819D02*
X89606190Y-105864819D01*
X90177619Y-105293390D02*
X90082381Y-105245771D01*
X90082381Y-105245771D02*
X90034762Y-105198152D01*
X90034762Y-105198152D02*
X89987143Y-105102914D01*
X89987143Y-105102914D02*
X89987143Y-105055295D01*
X89987143Y-105055295D02*
X90034762Y-104960057D01*
X90034762Y-104960057D02*
X90082381Y-104912438D01*
X90082381Y-104912438D02*
X90177619Y-104864819D01*
X90177619Y-104864819D02*
X90368095Y-104864819D01*
X90368095Y-104864819D02*
X90463333Y-104912438D01*
X90463333Y-104912438D02*
X90510952Y-104960057D01*
X90510952Y-104960057D02*
X90558571Y-105055295D01*
X90558571Y-105055295D02*
X90558571Y-105102914D01*
X90558571Y-105102914D02*
X90510952Y-105198152D01*
X90510952Y-105198152D02*
X90463333Y-105245771D01*
X90463333Y-105245771D02*
X90368095Y-105293390D01*
X90368095Y-105293390D02*
X90177619Y-105293390D01*
X90177619Y-105293390D02*
X90082381Y-105341009D01*
X90082381Y-105341009D02*
X90034762Y-105388628D01*
X90034762Y-105388628D02*
X89987143Y-105483866D01*
X89987143Y-105483866D02*
X89987143Y-105674342D01*
X89987143Y-105674342D02*
X90034762Y-105769580D01*
X90034762Y-105769580D02*
X90082381Y-105817200D01*
X90082381Y-105817200D02*
X90177619Y-105864819D01*
X90177619Y-105864819D02*
X90368095Y-105864819D01*
X90368095Y-105864819D02*
X90463333Y-105817200D01*
X90463333Y-105817200D02*
X90510952Y-105769580D01*
X90510952Y-105769580D02*
X90558571Y-105674342D01*
X90558571Y-105674342D02*
X90558571Y-105483866D01*
X90558571Y-105483866D02*
X90510952Y-105388628D01*
X90510952Y-105388628D02*
X90463333Y-105341009D01*
X90463333Y-105341009D02*
X90368095Y-105293390D01*
X90987143Y-105483866D02*
X91749048Y-105483866D01*
X92225238Y-105864819D02*
X92225238Y-104864819D01*
X92225238Y-104864819D02*
X92606190Y-104864819D01*
X92606190Y-104864819D02*
X92701428Y-104912438D01*
X92701428Y-104912438D02*
X92749047Y-104960057D01*
X92749047Y-104960057D02*
X92796666Y-105055295D01*
X92796666Y-105055295D02*
X92796666Y-105198152D01*
X92796666Y-105198152D02*
X92749047Y-105293390D01*
X92749047Y-105293390D02*
X92701428Y-105341009D01*
X92701428Y-105341009D02*
X92606190Y-105388628D01*
X92606190Y-105388628D02*
X92225238Y-105388628D01*
X42269580Y-99226666D02*
X42317200Y-99274285D01*
X42317200Y-99274285D02*
X42364819Y-99417142D01*
X42364819Y-99417142D02*
X42364819Y-99512380D01*
X42364819Y-99512380D02*
X42317200Y-99655237D01*
X42317200Y-99655237D02*
X42221961Y-99750475D01*
X42221961Y-99750475D02*
X42126723Y-99798094D01*
X42126723Y-99798094D02*
X41936247Y-99845713D01*
X41936247Y-99845713D02*
X41793390Y-99845713D01*
X41793390Y-99845713D02*
X41602914Y-99798094D01*
X41602914Y-99798094D02*
X41507676Y-99750475D01*
X41507676Y-99750475D02*
X41412438Y-99655237D01*
X41412438Y-99655237D02*
X41364819Y-99512380D01*
X41364819Y-99512380D02*
X41364819Y-99417142D01*
X41364819Y-99417142D02*
X41412438Y-99274285D01*
X41412438Y-99274285D02*
X41460057Y-99226666D01*
X42364819Y-98274285D02*
X42364819Y-98845713D01*
X42364819Y-98559999D02*
X41364819Y-98559999D01*
X41364819Y-98559999D02*
X41507676Y-98655237D01*
X41507676Y-98655237D02*
X41602914Y-98750475D01*
X41602914Y-98750475D02*
X41650533Y-98845713D01*
X86366409Y-86338628D02*
X86366409Y-86814819D01*
X86033076Y-85814819D02*
X86366409Y-86338628D01*
X86366409Y-86338628D02*
X86699742Y-85814819D01*
X87556885Y-86814819D02*
X86985457Y-86814819D01*
X87271171Y-86814819D02*
X87271171Y-85814819D01*
X87271171Y-85814819D02*
X87175933Y-85957676D01*
X87175933Y-85957676D02*
X87080695Y-86052914D01*
X87080695Y-86052914D02*
X86985457Y-86100533D01*
X89749523Y-86814819D02*
X89178095Y-86814819D01*
X89463809Y-86814819D02*
X89463809Y-85814819D01*
X89463809Y-85814819D02*
X89368571Y-85957676D01*
X89368571Y-85957676D02*
X89273333Y-86052914D01*
X89273333Y-86052914D02*
X89178095Y-86100533D01*
X90606666Y-85814819D02*
X90416190Y-85814819D01*
X90416190Y-85814819D02*
X90320952Y-85862438D01*
X90320952Y-85862438D02*
X90273333Y-85910057D01*
X90273333Y-85910057D02*
X90178095Y-86052914D01*
X90178095Y-86052914D02*
X90130476Y-86243390D01*
X90130476Y-86243390D02*
X90130476Y-86624342D01*
X90130476Y-86624342D02*
X90178095Y-86719580D01*
X90178095Y-86719580D02*
X90225714Y-86767200D01*
X90225714Y-86767200D02*
X90320952Y-86814819D01*
X90320952Y-86814819D02*
X90511428Y-86814819D01*
X90511428Y-86814819D02*
X90606666Y-86767200D01*
X90606666Y-86767200D02*
X90654285Y-86719580D01*
X90654285Y-86719580D02*
X90701904Y-86624342D01*
X90701904Y-86624342D02*
X90701904Y-86386247D01*
X90701904Y-86386247D02*
X90654285Y-86291009D01*
X90654285Y-86291009D02*
X90606666Y-86243390D01*
X90606666Y-86243390D02*
X90511428Y-86195771D01*
X90511428Y-86195771D02*
X90320952Y-86195771D01*
X90320952Y-86195771D02*
X90225714Y-86243390D01*
X90225714Y-86243390D02*
X90178095Y-86291009D01*
X90178095Y-86291009D02*
X90130476Y-86386247D01*
X91130476Y-86814819D02*
X91130476Y-85814819D01*
X91130476Y-85814819D02*
X91463809Y-86529104D01*
X91463809Y-86529104D02*
X91797142Y-85814819D01*
X91797142Y-85814819D02*
X91797142Y-86814819D01*
X92273333Y-86814819D02*
X92273333Y-85814819D01*
X92273333Y-86291009D02*
X92844761Y-86291009D01*
X92844761Y-86814819D02*
X92844761Y-85814819D01*
X93225714Y-86148152D02*
X93749523Y-86148152D01*
X93749523Y-86148152D02*
X93225714Y-86814819D01*
X93225714Y-86814819D02*
X93749523Y-86814819D01*
X40516666Y-107404819D02*
X40516666Y-108119104D01*
X40516666Y-108119104D02*
X40469047Y-108261961D01*
X40469047Y-108261961D02*
X40373809Y-108357200D01*
X40373809Y-108357200D02*
X40230952Y-108404819D01*
X40230952Y-108404819D02*
X40135714Y-108404819D01*
X41516666Y-108404819D02*
X40945238Y-108404819D01*
X41230952Y-108404819D02*
X41230952Y-107404819D01*
X41230952Y-107404819D02*
X41135714Y-107547676D01*
X41135714Y-107547676D02*
X41040476Y-107642914D01*
X41040476Y-107642914D02*
X40945238Y-107690533D01*
X43688095Y-104864819D02*
X43688095Y-105674342D01*
X43688095Y-105674342D02*
X43735714Y-105769580D01*
X43735714Y-105769580D02*
X43783333Y-105817200D01*
X43783333Y-105817200D02*
X43878571Y-105864819D01*
X43878571Y-105864819D02*
X44069047Y-105864819D01*
X44069047Y-105864819D02*
X44164285Y-105817200D01*
X44164285Y-105817200D02*
X44211904Y-105769580D01*
X44211904Y-105769580D02*
X44259523Y-105674342D01*
X44259523Y-105674342D02*
X44259523Y-104864819D01*
X45259523Y-105864819D02*
X44688095Y-105864819D01*
X44973809Y-105864819D02*
X44973809Y-104864819D01*
X44973809Y-104864819D02*
X44878571Y-105007676D01*
X44878571Y-105007676D02*
X44783333Y-105102914D01*
X44783333Y-105102914D02*
X44688095Y-105150533D01*
X52237143Y-104915619D02*
X52903809Y-104915619D01*
X52903809Y-104915619D02*
X52475238Y-105915619D01*
X53713333Y-105248952D02*
X53713333Y-105915619D01*
X53475238Y-104868000D02*
X53237143Y-105582285D01*
X53237143Y-105582285D02*
X53856190Y-105582285D01*
X54237143Y-105915619D02*
X54237143Y-104915619D01*
X54237143Y-105391809D02*
X54808571Y-105391809D01*
X54808571Y-105915619D02*
X54808571Y-104915619D01*
X55856190Y-105820380D02*
X55808571Y-105868000D01*
X55808571Y-105868000D02*
X55665714Y-105915619D01*
X55665714Y-105915619D02*
X55570476Y-105915619D01*
X55570476Y-105915619D02*
X55427619Y-105868000D01*
X55427619Y-105868000D02*
X55332381Y-105772761D01*
X55332381Y-105772761D02*
X55284762Y-105677523D01*
X55284762Y-105677523D02*
X55237143Y-105487047D01*
X55237143Y-105487047D02*
X55237143Y-105344190D01*
X55237143Y-105344190D02*
X55284762Y-105153714D01*
X55284762Y-105153714D02*
X55332381Y-105058476D01*
X55332381Y-105058476D02*
X55427619Y-104963238D01*
X55427619Y-104963238D02*
X55570476Y-104915619D01*
X55570476Y-104915619D02*
X55665714Y-104915619D01*
X55665714Y-104915619D02*
X55808571Y-104963238D01*
X55808571Y-104963238D02*
X55856190Y-105010857D01*
X56141905Y-104915619D02*
X56713333Y-104915619D01*
X56427619Y-105915619D02*
X56427619Y-104915619D01*
X57522857Y-104915619D02*
X57046667Y-104915619D01*
X57046667Y-104915619D02*
X56999048Y-105391809D01*
X56999048Y-105391809D02*
X57046667Y-105344190D01*
X57046667Y-105344190D02*
X57141905Y-105296571D01*
X57141905Y-105296571D02*
X57380000Y-105296571D01*
X57380000Y-105296571D02*
X57475238Y-105344190D01*
X57475238Y-105344190D02*
X57522857Y-105391809D01*
X57522857Y-105391809D02*
X57570476Y-105487047D01*
X57570476Y-105487047D02*
X57570476Y-105725142D01*
X57570476Y-105725142D02*
X57522857Y-105820380D01*
X57522857Y-105820380D02*
X57475238Y-105868000D01*
X57475238Y-105868000D02*
X57380000Y-105915619D01*
X57380000Y-105915619D02*
X57141905Y-105915619D01*
X57141905Y-105915619D02*
X57046667Y-105868000D01*
X57046667Y-105868000D02*
X56999048Y-105820380D01*
X57903810Y-104915619D02*
X58570476Y-104915619D01*
X58570476Y-104915619D02*
X58141905Y-105915619D01*
X58856191Y-104915619D02*
X59475238Y-104915619D01*
X59475238Y-104915619D02*
X59141905Y-105296571D01*
X59141905Y-105296571D02*
X59284762Y-105296571D01*
X59284762Y-105296571D02*
X59380000Y-105344190D01*
X59380000Y-105344190D02*
X59427619Y-105391809D01*
X59427619Y-105391809D02*
X59475238Y-105487047D01*
X59475238Y-105487047D02*
X59475238Y-105725142D01*
X59475238Y-105725142D02*
X59427619Y-105820380D01*
X59427619Y-105820380D02*
X59380000Y-105868000D01*
X59380000Y-105868000D02*
X59284762Y-105915619D01*
X59284762Y-105915619D02*
X58999048Y-105915619D01*
X58999048Y-105915619D02*
X58903810Y-105868000D01*
X58903810Y-105868000D02*
X58856191Y-105820380D01*
X131944819Y-64976666D02*
X131468628Y-65309999D01*
X131944819Y-65548094D02*
X130944819Y-65548094D01*
X130944819Y-65548094D02*
X130944819Y-65167142D01*
X130944819Y-65167142D02*
X130992438Y-65071904D01*
X130992438Y-65071904D02*
X131040057Y-65024285D01*
X131040057Y-65024285D02*
X131135295Y-64976666D01*
X131135295Y-64976666D02*
X131278152Y-64976666D01*
X131278152Y-64976666D02*
X131373390Y-65024285D01*
X131373390Y-65024285D02*
X131421009Y-65071904D01*
X131421009Y-65071904D02*
X131468628Y-65167142D01*
X131468628Y-65167142D02*
X131468628Y-65548094D01*
X131278152Y-64119523D02*
X131944819Y-64119523D01*
X130897200Y-64357618D02*
X131611485Y-64595713D01*
X131611485Y-64595713D02*
X131611485Y-63976666D01*
X39824819Y-99226666D02*
X39348628Y-99559999D01*
X39824819Y-99798094D02*
X38824819Y-99798094D01*
X38824819Y-99798094D02*
X38824819Y-99417142D01*
X38824819Y-99417142D02*
X38872438Y-99321904D01*
X38872438Y-99321904D02*
X38920057Y-99274285D01*
X38920057Y-99274285D02*
X39015295Y-99226666D01*
X39015295Y-99226666D02*
X39158152Y-99226666D01*
X39158152Y-99226666D02*
X39253390Y-99274285D01*
X39253390Y-99274285D02*
X39301009Y-99321904D01*
X39301009Y-99321904D02*
X39348628Y-99417142D01*
X39348628Y-99417142D02*
X39348628Y-99798094D01*
X39824819Y-98274285D02*
X39824819Y-98845713D01*
X39824819Y-98559999D02*
X38824819Y-98559999D01*
X38824819Y-98559999D02*
X38967676Y-98655237D01*
X38967676Y-98655237D02*
X39062914Y-98750475D01*
X39062914Y-98750475D02*
X39110533Y-98845713D01*
X107188095Y-104864819D02*
X107188095Y-105674342D01*
X107188095Y-105674342D02*
X107235714Y-105769580D01*
X107235714Y-105769580D02*
X107283333Y-105817200D01*
X107283333Y-105817200D02*
X107378571Y-105864819D01*
X107378571Y-105864819D02*
X107569047Y-105864819D01*
X107569047Y-105864819D02*
X107664285Y-105817200D01*
X107664285Y-105817200D02*
X107711904Y-105769580D01*
X107711904Y-105769580D02*
X107759523Y-105674342D01*
X107759523Y-105674342D02*
X107759523Y-104864819D01*
X108188095Y-104960057D02*
X108235714Y-104912438D01*
X108235714Y-104912438D02*
X108330952Y-104864819D01*
X108330952Y-104864819D02*
X108569047Y-104864819D01*
X108569047Y-104864819D02*
X108664285Y-104912438D01*
X108664285Y-104912438D02*
X108711904Y-104960057D01*
X108711904Y-104960057D02*
X108759523Y-105055295D01*
X108759523Y-105055295D02*
X108759523Y-105150533D01*
X108759523Y-105150533D02*
X108711904Y-105293390D01*
X108711904Y-105293390D02*
X108140476Y-105864819D01*
X108140476Y-105864819D02*
X108759523Y-105864819D01*
X115737143Y-104864819D02*
X116403809Y-104864819D01*
X116403809Y-104864819D02*
X115975238Y-105864819D01*
X117213333Y-105198152D02*
X117213333Y-105864819D01*
X116975238Y-104817200D02*
X116737143Y-105531485D01*
X116737143Y-105531485D02*
X117356190Y-105531485D01*
X117737143Y-105864819D02*
X117737143Y-104864819D01*
X117737143Y-105341009D02*
X118308571Y-105341009D01*
X118308571Y-105864819D02*
X118308571Y-104864819D01*
X119356190Y-105769580D02*
X119308571Y-105817200D01*
X119308571Y-105817200D02*
X119165714Y-105864819D01*
X119165714Y-105864819D02*
X119070476Y-105864819D01*
X119070476Y-105864819D02*
X118927619Y-105817200D01*
X118927619Y-105817200D02*
X118832381Y-105721961D01*
X118832381Y-105721961D02*
X118784762Y-105626723D01*
X118784762Y-105626723D02*
X118737143Y-105436247D01*
X118737143Y-105436247D02*
X118737143Y-105293390D01*
X118737143Y-105293390D02*
X118784762Y-105102914D01*
X118784762Y-105102914D02*
X118832381Y-105007676D01*
X118832381Y-105007676D02*
X118927619Y-104912438D01*
X118927619Y-104912438D02*
X119070476Y-104864819D01*
X119070476Y-104864819D02*
X119165714Y-104864819D01*
X119165714Y-104864819D02*
X119308571Y-104912438D01*
X119308571Y-104912438D02*
X119356190Y-104960057D01*
X119641905Y-104864819D02*
X120213333Y-104864819D01*
X119927619Y-105864819D02*
X119927619Y-104864819D01*
X121022857Y-104864819D02*
X120546667Y-104864819D01*
X120546667Y-104864819D02*
X120499048Y-105341009D01*
X120499048Y-105341009D02*
X120546667Y-105293390D01*
X120546667Y-105293390D02*
X120641905Y-105245771D01*
X120641905Y-105245771D02*
X120880000Y-105245771D01*
X120880000Y-105245771D02*
X120975238Y-105293390D01*
X120975238Y-105293390D02*
X121022857Y-105341009D01*
X121022857Y-105341009D02*
X121070476Y-105436247D01*
X121070476Y-105436247D02*
X121070476Y-105674342D01*
X121070476Y-105674342D02*
X121022857Y-105769580D01*
X121022857Y-105769580D02*
X120975238Y-105817200D01*
X120975238Y-105817200D02*
X120880000Y-105864819D01*
X120880000Y-105864819D02*
X120641905Y-105864819D01*
X120641905Y-105864819D02*
X120546667Y-105817200D01*
X120546667Y-105817200D02*
X120499048Y-105769580D01*
X121403810Y-104864819D02*
X122070476Y-104864819D01*
X122070476Y-104864819D02*
X121641905Y-105864819D01*
X122356191Y-104864819D02*
X122975238Y-104864819D01*
X122975238Y-104864819D02*
X122641905Y-105245771D01*
X122641905Y-105245771D02*
X122784762Y-105245771D01*
X122784762Y-105245771D02*
X122880000Y-105293390D01*
X122880000Y-105293390D02*
X122927619Y-105341009D01*
X122927619Y-105341009D02*
X122975238Y-105436247D01*
X122975238Y-105436247D02*
X122975238Y-105674342D01*
X122975238Y-105674342D02*
X122927619Y-105769580D01*
X122927619Y-105769580D02*
X122880000Y-105817200D01*
X122880000Y-105817200D02*
X122784762Y-105864819D01*
X122784762Y-105864819D02*
X122499048Y-105864819D01*
X122499048Y-105864819D02*
X122403810Y-105817200D01*
X122403810Y-105817200D02*
X122356191Y-105769580D01*
X133709580Y-99226666D02*
X133757200Y-99274285D01*
X133757200Y-99274285D02*
X133804819Y-99417142D01*
X133804819Y-99417142D02*
X133804819Y-99512380D01*
X133804819Y-99512380D02*
X133757200Y-99655237D01*
X133757200Y-99655237D02*
X133661961Y-99750475D01*
X133661961Y-99750475D02*
X133566723Y-99798094D01*
X133566723Y-99798094D02*
X133376247Y-99845713D01*
X133376247Y-99845713D02*
X133233390Y-99845713D01*
X133233390Y-99845713D02*
X133042914Y-99798094D01*
X133042914Y-99798094D02*
X132947676Y-99750475D01*
X132947676Y-99750475D02*
X132852438Y-99655237D01*
X132852438Y-99655237D02*
X132804819Y-99512380D01*
X132804819Y-99512380D02*
X132804819Y-99417142D01*
X132804819Y-99417142D02*
X132852438Y-99274285D01*
X132852438Y-99274285D02*
X132900057Y-99226666D01*
X132900057Y-98845713D02*
X132852438Y-98798094D01*
X132852438Y-98798094D02*
X132804819Y-98702856D01*
X132804819Y-98702856D02*
X132804819Y-98464761D01*
X132804819Y-98464761D02*
X132852438Y-98369523D01*
X132852438Y-98369523D02*
X132900057Y-98321904D01*
X132900057Y-98321904D02*
X132995295Y-98274285D01*
X132995295Y-98274285D02*
X133090533Y-98274285D01*
X133090533Y-98274285D02*
X133233390Y-98321904D01*
X133233390Y-98321904D02*
X133804819Y-98893332D01*
X133804819Y-98893332D02*
X133804819Y-98274285D01*
X128724819Y-74255238D02*
X128248628Y-74588571D01*
X128724819Y-74826666D02*
X127724819Y-74826666D01*
X127724819Y-74826666D02*
X127724819Y-74445714D01*
X127724819Y-74445714D02*
X127772438Y-74350476D01*
X127772438Y-74350476D02*
X127820057Y-74302857D01*
X127820057Y-74302857D02*
X127915295Y-74255238D01*
X127915295Y-74255238D02*
X128058152Y-74255238D01*
X128058152Y-74255238D02*
X128153390Y-74302857D01*
X128153390Y-74302857D02*
X128201009Y-74350476D01*
X128201009Y-74350476D02*
X128248628Y-74445714D01*
X128248628Y-74445714D02*
X128248628Y-74826666D01*
X127724819Y-73969523D02*
X128724819Y-73636190D01*
X128724819Y-73636190D02*
X127724819Y-73302857D01*
X128724819Y-72445714D02*
X128724819Y-73017142D01*
X128724819Y-72731428D02*
X127724819Y-72731428D01*
X127724819Y-72731428D02*
X127867676Y-72826666D01*
X127867676Y-72826666D02*
X127962914Y-72921904D01*
X127962914Y-72921904D02*
X128010533Y-73017142D01*
X74763333Y-89354819D02*
X74430000Y-88878628D01*
X74191905Y-89354819D02*
X74191905Y-88354819D01*
X74191905Y-88354819D02*
X74572857Y-88354819D01*
X74572857Y-88354819D02*
X74668095Y-88402438D01*
X74668095Y-88402438D02*
X74715714Y-88450057D01*
X74715714Y-88450057D02*
X74763333Y-88545295D01*
X74763333Y-88545295D02*
X74763333Y-88688152D01*
X74763333Y-88688152D02*
X74715714Y-88783390D01*
X74715714Y-88783390D02*
X74668095Y-88831009D01*
X74668095Y-88831009D02*
X74572857Y-88878628D01*
X74572857Y-88878628D02*
X74191905Y-88878628D01*
X75096667Y-88354819D02*
X75715714Y-88354819D01*
X75715714Y-88354819D02*
X75382381Y-88735771D01*
X75382381Y-88735771D02*
X75525238Y-88735771D01*
X75525238Y-88735771D02*
X75620476Y-88783390D01*
X75620476Y-88783390D02*
X75668095Y-88831009D01*
X75668095Y-88831009D02*
X75715714Y-88926247D01*
X75715714Y-88926247D02*
X75715714Y-89164342D01*
X75715714Y-89164342D02*
X75668095Y-89259580D01*
X75668095Y-89259580D02*
X75620476Y-89307200D01*
X75620476Y-89307200D02*
X75525238Y-89354819D01*
X75525238Y-89354819D02*
X75239524Y-89354819D01*
X75239524Y-89354819D02*
X75144286Y-89307200D01*
X75144286Y-89307200D02*
X75096667Y-89259580D01*
X51734819Y-57483333D02*
X52449104Y-57483333D01*
X52449104Y-57483333D02*
X52591961Y-57530952D01*
X52591961Y-57530952D02*
X52687200Y-57626190D01*
X52687200Y-57626190D02*
X52734819Y-57769047D01*
X52734819Y-57769047D02*
X52734819Y-57864285D01*
X51734819Y-57102380D02*
X51734819Y-56483333D01*
X51734819Y-56483333D02*
X52115771Y-56816666D01*
X52115771Y-56816666D02*
X52115771Y-56673809D01*
X52115771Y-56673809D02*
X52163390Y-56578571D01*
X52163390Y-56578571D02*
X52211009Y-56530952D01*
X52211009Y-56530952D02*
X52306247Y-56483333D01*
X52306247Y-56483333D02*
X52544342Y-56483333D01*
X52544342Y-56483333D02*
X52639580Y-56530952D01*
X52639580Y-56530952D02*
X52687200Y-56578571D01*
X52687200Y-56578571D02*
X52734819Y-56673809D01*
X52734819Y-56673809D02*
X52734819Y-56959523D01*
X52734819Y-56959523D02*
X52687200Y-57054761D01*
X52687200Y-57054761D02*
X52639580Y-57102380D01*
X131264819Y-82716666D02*
X130788628Y-83049999D01*
X131264819Y-83288094D02*
X130264819Y-83288094D01*
X130264819Y-83288094D02*
X130264819Y-82907142D01*
X130264819Y-82907142D02*
X130312438Y-82811904D01*
X130312438Y-82811904D02*
X130360057Y-82764285D01*
X130360057Y-82764285D02*
X130455295Y-82716666D01*
X130455295Y-82716666D02*
X130598152Y-82716666D01*
X130598152Y-82716666D02*
X130693390Y-82764285D01*
X130693390Y-82764285D02*
X130741009Y-82811904D01*
X130741009Y-82811904D02*
X130788628Y-82907142D01*
X130788628Y-82907142D02*
X130788628Y-83288094D01*
X130360057Y-82335713D02*
X130312438Y-82288094D01*
X130312438Y-82288094D02*
X130264819Y-82192856D01*
X130264819Y-82192856D02*
X130264819Y-81954761D01*
X130264819Y-81954761D02*
X130312438Y-81859523D01*
X130312438Y-81859523D02*
X130360057Y-81811904D01*
X130360057Y-81811904D02*
X130455295Y-81764285D01*
X130455295Y-81764285D02*
X130550533Y-81764285D01*
X130550533Y-81764285D02*
X130693390Y-81811904D01*
X130693390Y-81811904D02*
X131264819Y-82383332D01*
X131264819Y-82383332D02*
X131264819Y-81764285D01*
X101476666Y-107404819D02*
X101476666Y-108119104D01*
X101476666Y-108119104D02*
X101429047Y-108261961D01*
X101429047Y-108261961D02*
X101333809Y-108357200D01*
X101333809Y-108357200D02*
X101190952Y-108404819D01*
X101190952Y-108404819D02*
X101095714Y-108404819D01*
X101905238Y-107500057D02*
X101952857Y-107452438D01*
X101952857Y-107452438D02*
X102048095Y-107404819D01*
X102048095Y-107404819D02*
X102286190Y-107404819D01*
X102286190Y-107404819D02*
X102381428Y-107452438D01*
X102381428Y-107452438D02*
X102429047Y-107500057D01*
X102429047Y-107500057D02*
X102476666Y-107595295D01*
X102476666Y-107595295D02*
X102476666Y-107690533D01*
X102476666Y-107690533D02*
X102429047Y-107833390D01*
X102429047Y-107833390D02*
X101857619Y-108404819D01*
X101857619Y-108404819D02*
X102476666Y-108404819D01*
X77346666Y-107404819D02*
X77346666Y-108119104D01*
X77346666Y-108119104D02*
X77299047Y-108261961D01*
X77299047Y-108261961D02*
X77203809Y-108357200D01*
X77203809Y-108357200D02*
X77060952Y-108404819D01*
X77060952Y-108404819D02*
X76965714Y-108404819D01*
X78299047Y-107404819D02*
X77822857Y-107404819D01*
X77822857Y-107404819D02*
X77775238Y-107881009D01*
X77775238Y-107881009D02*
X77822857Y-107833390D01*
X77822857Y-107833390D02*
X77918095Y-107785771D01*
X77918095Y-107785771D02*
X78156190Y-107785771D01*
X78156190Y-107785771D02*
X78251428Y-107833390D01*
X78251428Y-107833390D02*
X78299047Y-107881009D01*
X78299047Y-107881009D02*
X78346666Y-107976247D01*
X78346666Y-107976247D02*
X78346666Y-108214342D01*
X78346666Y-108214342D02*
X78299047Y-108309580D01*
X78299047Y-108309580D02*
X78251428Y-108357200D01*
X78251428Y-108357200D02*
X78156190Y-108404819D01*
X78156190Y-108404819D02*
X77918095Y-108404819D01*
X77918095Y-108404819D02*
X77822857Y-108357200D01*
X77822857Y-108357200D02*
X77775238Y-108309580D01*
X96353333Y-87354580D02*
X96305714Y-87402200D01*
X96305714Y-87402200D02*
X96162857Y-87449819D01*
X96162857Y-87449819D02*
X96067619Y-87449819D01*
X96067619Y-87449819D02*
X95924762Y-87402200D01*
X95924762Y-87402200D02*
X95829524Y-87306961D01*
X95829524Y-87306961D02*
X95781905Y-87211723D01*
X95781905Y-87211723D02*
X95734286Y-87021247D01*
X95734286Y-87021247D02*
X95734286Y-86878390D01*
X95734286Y-86878390D02*
X95781905Y-86687914D01*
X95781905Y-86687914D02*
X95829524Y-86592676D01*
X95829524Y-86592676D02*
X95924762Y-86497438D01*
X95924762Y-86497438D02*
X96067619Y-86449819D01*
X96067619Y-86449819D02*
X96162857Y-86449819D01*
X96162857Y-86449819D02*
X96305714Y-86497438D01*
X96305714Y-86497438D02*
X96353333Y-86545057D01*
X96686667Y-86449819D02*
X97305714Y-86449819D01*
X97305714Y-86449819D02*
X96972381Y-86830771D01*
X96972381Y-86830771D02*
X97115238Y-86830771D01*
X97115238Y-86830771D02*
X97210476Y-86878390D01*
X97210476Y-86878390D02*
X97258095Y-86926009D01*
X97258095Y-86926009D02*
X97305714Y-87021247D01*
X97305714Y-87021247D02*
X97305714Y-87259342D01*
X97305714Y-87259342D02*
X97258095Y-87354580D01*
X97258095Y-87354580D02*
X97210476Y-87402200D01*
X97210476Y-87402200D02*
X97115238Y-87449819D01*
X97115238Y-87449819D02*
X96829524Y-87449819D01*
X96829524Y-87449819D02*
X96734286Y-87402200D01*
X96734286Y-87402200D02*
X96686667Y-87354580D01*
X44114819Y-35893333D02*
X44829104Y-35893333D01*
X44829104Y-35893333D02*
X44971961Y-35940952D01*
X44971961Y-35940952D02*
X45067200Y-36036190D01*
X45067200Y-36036190D02*
X45114819Y-36179047D01*
X45114819Y-36179047D02*
X45114819Y-36274285D01*
X44448152Y-34988571D02*
X45114819Y-34988571D01*
X44067200Y-35226666D02*
X44781485Y-35464761D01*
X44781485Y-35464761D02*
X44781485Y-34845714D01*
X81113333Y-87354580D02*
X81065714Y-87402200D01*
X81065714Y-87402200D02*
X80922857Y-87449819D01*
X80922857Y-87449819D02*
X80827619Y-87449819D01*
X80827619Y-87449819D02*
X80684762Y-87402200D01*
X80684762Y-87402200D02*
X80589524Y-87306961D01*
X80589524Y-87306961D02*
X80541905Y-87211723D01*
X80541905Y-87211723D02*
X80494286Y-87021247D01*
X80494286Y-87021247D02*
X80494286Y-86878390D01*
X80494286Y-86878390D02*
X80541905Y-86687914D01*
X80541905Y-86687914D02*
X80589524Y-86592676D01*
X80589524Y-86592676D02*
X80684762Y-86497438D01*
X80684762Y-86497438D02*
X80827619Y-86449819D01*
X80827619Y-86449819D02*
X80922857Y-86449819D01*
X80922857Y-86449819D02*
X81065714Y-86497438D01*
X81065714Y-86497438D02*
X81113333Y-86545057D01*
X81970476Y-86783152D02*
X81970476Y-87449819D01*
X81732381Y-86402200D02*
X81494286Y-87116485D01*
X81494286Y-87116485D02*
X82113333Y-87116485D01*
D12*
%TO.C,U3*%
X69790000Y-96410000D02*
X69790000Y-98060000D01*
X69790000Y-100060000D02*
X69790000Y-101710000D01*
X69790000Y-101710000D02*
X105470000Y-101710000D01*
X105470000Y-96410000D02*
X69790000Y-96410000D01*
X105470000Y-101710000D02*
X105470000Y-96410000D01*
X69730000Y-104200000D02*
X105530000Y-104200000D01*
X105530000Y-93920000D01*
X69730000Y-93920000D01*
X69730000Y-104200000D01*
X69790000Y-98060000D02*
G75*
G02*
X69790000Y-100060000I0J-1000000D01*
G01*
%TO.C,C1*%
X40840000Y-96750000D02*
X40855000Y-96750000D01*
X40840000Y-101290000D02*
X40840000Y-96750000D01*
X40840000Y-101290000D02*
X40855000Y-101290000D01*
X42965000Y-96750000D02*
X42980000Y-96750000D01*
X42965000Y-101290000D02*
X42980000Y-101290000D01*
X42980000Y-101290000D02*
X42980000Y-96750000D01*
%TO.C,Y1*%
X91925000Y-87645000D02*
X85675000Y-87645000D01*
X91925000Y-92695000D02*
X85675000Y-92695000D01*
X85675000Y-92695000D02*
G75*
G02*
X85675000Y-87645000I0J2525000D01*
G01*
X91925000Y-87645000D02*
G75*
G02*
X91925000Y-92695000I0J-2525000D01*
G01*
%TO.C,J1*%
X41850000Y-109280000D02*
X41850000Y-107950000D01*
X43180000Y-109280000D02*
X41850000Y-109280000D01*
X44450000Y-106620000D02*
X69910000Y-106620000D01*
X44450000Y-109280000D02*
X44450000Y-106620000D01*
X44450000Y-109280000D02*
X69910000Y-109280000D01*
X69910000Y-109280000D02*
X69910000Y-106620000D01*
%TO.C,U1*%
X43120000Y-96410000D02*
X43120000Y-98060000D01*
X43120000Y-100060000D02*
X43120000Y-101710000D01*
X43120000Y-101710000D02*
X68640000Y-101710000D01*
X68640000Y-96410000D02*
X43120000Y-96410000D01*
X68640000Y-101710000D02*
X68640000Y-96410000D01*
X43060000Y-104200000D02*
X68700000Y-104200000D01*
X68700000Y-93920000D01*
X43060000Y-93920000D01*
X43060000Y-104200000D01*
X43120000Y-98060000D02*
G75*
G02*
X43120000Y-100060000I0J-1000000D01*
G01*
%TO.C,R4*%
X132430000Y-62850000D02*
X132430000Y-66690000D01*
X132430000Y-66690000D02*
X134270000Y-66690000D01*
X133350000Y-61900000D02*
X133350000Y-62850000D01*
X133350000Y-67640000D02*
X133350000Y-66690000D01*
X134270000Y-62850000D02*
X132430000Y-62850000D01*
X134270000Y-66690000D02*
X134270000Y-62850000D01*
%TO.C,R1*%
X38450000Y-97140000D02*
X38450000Y-100980000D01*
X38450000Y-100980000D02*
X40290000Y-100980000D01*
X39370000Y-96190000D02*
X39370000Y-97140000D01*
X39370000Y-101930000D02*
X39370000Y-100980000D01*
X40290000Y-97140000D02*
X38450000Y-97140000D01*
X40290000Y-100980000D02*
X40290000Y-97140000D01*
%TO.C,U2*%
X106620000Y-96410000D02*
X106620000Y-98060000D01*
X106620000Y-100060000D02*
X106620000Y-101710000D01*
X106620000Y-101710000D02*
X132140000Y-101710000D01*
X132140000Y-96410000D02*
X106620000Y-96410000D01*
X132140000Y-101710000D02*
X132140000Y-96410000D01*
X106560000Y-104200000D02*
X132200000Y-104200000D01*
X132200000Y-93920000D01*
X106560000Y-93920000D01*
X106560000Y-104200000D01*
X106620000Y-98060000D02*
G75*
G02*
X106620000Y-100060000I0J-1000000D01*
G01*
%TO.C,C2*%
X132280000Y-96830000D02*
X132280000Y-101370000D01*
X132295000Y-96830000D02*
X132280000Y-96830000D01*
X132295000Y-101370000D02*
X132280000Y-101370000D01*
X134420000Y-96830000D02*
X134405000Y-96830000D01*
X134420000Y-96830000D02*
X134420000Y-101370000D01*
X134420000Y-101370000D02*
X134405000Y-101370000D01*
%TO.C,RV1*%
X130140000Y-72490000D02*
X130140000Y-73060000D01*
X130140000Y-74340000D02*
X130140000Y-74910000D01*
X131840000Y-70390000D02*
X131840000Y-77010000D01*
X131840000Y-72490000D02*
X130140000Y-72490000D01*
X131840000Y-74910000D02*
X130140000Y-74910000D01*
X131840000Y-77010000D02*
X132830000Y-77010000D01*
X132390000Y-70390000D02*
X131840000Y-70390000D01*
X134260000Y-72100000D02*
X134260000Y-75900000D01*
X134260000Y-76490000D02*
X134260000Y-77010000D01*
X134260000Y-77010000D02*
X133870000Y-77010000D01*
X134310000Y-70590000D02*
X135550000Y-70590000D01*
X135560000Y-70590000D02*
X135560000Y-76810000D01*
X135560000Y-76810000D02*
X134260000Y-76810000D01*
%TO.C,R3*%
X72060000Y-91440000D02*
X73010000Y-91440000D01*
X73010000Y-90520000D02*
X73010000Y-92360000D01*
X73010000Y-92360000D02*
X76850000Y-92360000D01*
X76850000Y-90520000D02*
X73010000Y-90520000D01*
X76850000Y-92360000D02*
X76850000Y-90520000D01*
X77800000Y-91440000D02*
X76850000Y-91440000D01*
%TO.C,J3*%
X53280000Y-58480000D02*
X53280000Y-57150000D01*
X54610000Y-58480000D02*
X53280000Y-58480000D01*
X55880000Y-55820000D02*
X94040000Y-55820000D01*
X55880000Y-58480000D02*
X55880000Y-55820000D01*
X55880000Y-58480000D02*
X94040000Y-58480000D01*
X94040000Y-58480000D02*
X94040000Y-55820000D01*
%TO.C,R2*%
X132430000Y-80630000D02*
X132430000Y-84470000D01*
X132430000Y-84470000D02*
X134270000Y-84470000D01*
X133350000Y-79680000D02*
X133350000Y-80630000D01*
X133350000Y-85420000D02*
X133350000Y-84470000D01*
X134270000Y-80630000D02*
X132430000Y-80630000D01*
X134270000Y-84470000D02*
X134270000Y-80630000D01*
%TO.C,J2*%
X102810000Y-109280000D02*
X102810000Y-107950000D01*
X104140000Y-109280000D02*
X102810000Y-109280000D01*
X105410000Y-106620000D02*
X130870000Y-106620000D01*
X105410000Y-109280000D02*
X105410000Y-106620000D01*
X105410000Y-109280000D02*
X130870000Y-109280000D01*
X130870000Y-109280000D02*
X130870000Y-106620000D01*
%TO.C,J5*%
X78680000Y-109280000D02*
X78680000Y-107950000D01*
X80010000Y-109280000D02*
X78680000Y-109280000D01*
X81280000Y-106620000D02*
X94040000Y-106620000D01*
X81280000Y-109280000D02*
X81280000Y-106620000D01*
X81280000Y-109280000D02*
X94040000Y-109280000D01*
X94040000Y-109280000D02*
X94040000Y-106620000D01*
%TO.C,C3*%
X95600000Y-90819000D02*
X95600000Y-89561000D01*
X97440000Y-90819000D02*
X97440000Y-89561000D01*
%TO.C,J4*%
X45660000Y-36890000D02*
X45660000Y-35560000D01*
X46990000Y-36890000D02*
X45660000Y-36890000D01*
X48260000Y-34230000D02*
X86420000Y-34230000D01*
X48260000Y-36890000D02*
X48260000Y-34230000D01*
X48260000Y-36890000D02*
X86420000Y-36890000D01*
X86420000Y-36890000D02*
X86420000Y-34230000D01*
%TO.C,C4*%
X80360000Y-90819000D02*
X80360000Y-89561000D01*
X82200000Y-90819000D02*
X82200000Y-89561000D01*
%TD*%
M02*
