M48
; DRILL file {KiCad 9.0.6} date 2025-12-13T09:12:29-0800
; FORMAT={-:-/ absolute / metric / decimal}
; #@! TF.CreationDate,2025-12-13T09:12:29-08:00
; #@! TF.GenerationSoftware,Kicad,Pcbnew,9.0.6
; #@! TF.FileFunction,Plated,1,2,PTH
FMAT,2
METRIC
; #@! TA.AperFunction,Plated,PTH,ViaDrill
T1C0.300
; #@! TA.AperFunction,Plated,PTH,ComponentDrill
T2C0.700
; #@! TA.AperFunction,Plated,PTH,ComponentDrill
T3C0.800
; #@! TA.AperFunction,Plated,PTH,ComponentDrill
T4C1.000
%
G90
G05
T1
X58.42Y-104.366
X64.465Y-85.197
X64.77Y-98.216
X70.231Y-101.328
X75.963Y-96.997
X76.143Y-105.507
X79.063Y-98.218
X84.216Y-98.978
X85.26Y-85.682
X88.9Y-60.452
X89.87Y-94.273
X96.52Y-97.673
X99.499Y-59.182
X100.279Y-99.801
X102.387Y-59.836
X109.83Y-85.217
X114.097Y-98.218
X117.016Y-99.585
X120.753Y-98.178
T2
X39.37Y-95.25
X39.37Y-102.87
X71.12Y-91.44
X78.74Y-91.44
X133.35Y-60.96
X133.35Y-68.58
X133.35Y-78.74
X133.35Y-86.36
T3
X41.91Y-96.52
X41.91Y-101.52
X44.45Y-95.25
X44.45Y-102.87
X46.99Y-95.25
X46.99Y-102.87
X49.53Y-95.25
X49.53Y-102.87
X52.07Y-95.25
X52.07Y-102.87
X54.61Y-95.25
X54.61Y-102.87
X57.15Y-95.25
X57.15Y-102.87
X59.69Y-95.25
X59.69Y-102.87
X62.23Y-95.25
X62.23Y-102.87
X64.77Y-95.25
X64.77Y-102.87
X67.31Y-95.25
X67.31Y-102.87
X71.12Y-95.25
X71.12Y-102.87
X73.66Y-95.25
X73.66Y-102.87
X76.2Y-95.25
X76.2Y-102.87
X78.74Y-95.25
X78.74Y-102.87
X81.28Y-88.94
X81.28Y-91.44
X81.28Y-95.25
X81.28Y-102.87
X83.82Y-95.25
X83.82Y-102.87
X86.36Y-90.17
X86.36Y-95.25
X86.36Y-102.87
X88.9Y-95.25
X88.9Y-102.87
X91.24Y-90.17
X91.44Y-95.25
X91.44Y-102.87
X93.98Y-95.25
X93.98Y-102.87
X96.52Y-88.94
X96.52Y-91.44
X96.52Y-95.25
X96.52Y-102.87
X99.06Y-95.25
X99.06Y-102.87
X101.6Y-95.25
X101.6Y-102.87
X104.14Y-95.25
X104.14Y-102.87
X107.95Y-95.25
X107.95Y-102.87
X110.49Y-95.25
X110.49Y-102.87
X113.03Y-95.25
X113.03Y-102.87
X115.57Y-95.25
X115.57Y-102.87
X118.11Y-95.25
X118.11Y-102.87
X120.65Y-95.25
X120.65Y-102.87
X123.19Y-95.25
X123.19Y-102.87
X125.73Y-95.25
X125.73Y-102.87
X128.27Y-95.25
X128.27Y-102.87
X130.81Y-95.25
X130.81Y-102.87
X133.35Y-96.6
X133.35Y-101.6
T4
X43.18Y-107.95
X45.72Y-107.95
X46.99Y-35.56
X48.26Y-107.95
X49.53Y-35.56
X50.8Y-107.95
X52.07Y-35.56
X53.34Y-107.95
X54.61Y-35.56
X54.61Y-57.15
X55.88Y-107.95
X57.15Y-35.56
X57.15Y-57.15
X58.42Y-107.95
X59.69Y-35.56
X59.69Y-57.15
X60.96Y-107.95
X62.23Y-35.56
X62.23Y-57.15
X63.5Y-107.95
X64.77Y-35.56
X64.77Y-57.15
X66.04Y-107.95
X67.31Y-35.56
X67.31Y-57.15
X68.58Y-107.95
X69.85Y-35.56
X69.85Y-57.15
X72.39Y-35.56
X72.39Y-57.15
X74.93Y-35.56
X74.93Y-57.15
X77.47Y-35.56
X77.47Y-57.15
X80.01Y-35.56
X80.01Y-57.15
X80.01Y-107.95
X82.55Y-35.56
X82.55Y-57.15
X82.55Y-107.95
X85.09Y-35.56
X85.09Y-57.15
X85.09Y-107.95
X87.63Y-57.15
X87.63Y-107.95
X90.17Y-57.15
X90.17Y-107.95
X92.71Y-57.15
X92.71Y-107.95
X104.14Y-107.95
X106.68Y-107.95
X109.22Y-107.95
X111.76Y-107.95
X114.3Y-107.95
X116.84Y-107.95
X119.38Y-107.95
X121.92Y-107.95
X124.46Y-107.95
X127.0Y-107.95
X129.54Y-107.95
X130.85Y-73.7
X133.35Y-71.2
X133.35Y-76.2
M30
